<?xml version="1.0" standalone="no"?>
<!DOCTYPE svg PUBLIC "-//W3C//DTD SVG 20010904//EN" "http://www.w3.org/TR/2001/REC-SVG-20010904/DTD/svg10.dtd">
<svg xmlns="http://www.w3.org/2000/svg" version="1.0" width="900.000000pt" height="515.000000pt" viewBox="0 0 900.000000 515.000000" preserveAspectRatio="xMidYMid meet">
<metadata>
Created by potrace 1.16, written by Peter Selinger 2001-2019
<meta name="Producer" content="Online-Convert"/></metadata>
<g transform="translate(0.000000,515.000000) scale(0.100000,-0.100000)" fill="#000000" stroke="none">
<path d="M0 5074 l0 -76 33 7 c43 9 205 89 242 120 l30 25 -152 0 -153 0 0 -76z"/>
<path d="M1640 5135 c0 -8 7 -27 17 -41 16 -25 16 -25 -8 -20 -13 3 -43 8 -67 10 -36 4 -43 2 -40 -11 3 -17 88 -30 88 -14 0 5 9 7 20 4 11 -3 20 -9 20 -14 0 -5 3 -8 8 -7 16 3 42 -15 42 -29 0 -11 7 -14 27 -10 28 5 28 5 7 -12 -20 -16 -21 -20 -8 -49 9 -22 10 -33 2 -38 -7 -5 -8 -2 -3 6 5 8 3 11 -5 8 -21 -7 -23 -25 -4 -32 10 -4 21 -1 25 6 5 8 11 3 18 -17 6 -17 16 -38 21 -47 7 -13 7 -18 -1 -18 -5 0 -7 -5 -4 -10 10 -16 27 0 22 21 -3 11 0 19 6 19 15 -1 47 -25 47 -35 0 -4 -7 -2 -16 6 -13 10 -17 10 -25 -2 -14 -22 -11 -29 11 -29 11 0 20 -5 20 -12 0 -6 3 -9 6 -6 3 3 16 -5 30 -19 17 -17 29 -22 37 -15 7 5 21 12 32 15 20 7 20 7 1 -8 -19 -14 -18 -15 12 -15 19 0 32 5 32 13 1 6 16 -6 35 -27 20 -22 35 -33 35 -25 0 9 -9 25 -20 37 -11 12 -20 24 -20 28 0 4 -10 18 -22 31 -15 16 -17 22 -7 18 11 -4 18 1 22 14 3 12 1 21 -5 21 -5 0 -6 5 -3 10 3 6 0 10 -8 10 -13 0 -27 20 -26 36 0 4 -14 15 -31 26 -26 15 -31 23 -26 43 4 14 2 25 -4 25 -5 0 -10 -6 -10 -14 0 -27 -54 -14 -102 24 -44 35 -55 56 -22 43 18 -7 19 31 1 46 -11 8 -17 5 -26 -16 -12 -26 -14 -27 -26 -10 -9 12 -15 14 -20 7 -8 -12 -35 5 -35 22 0 6 -11 23 -25 40 -17 20 -25 25 -25 13z"/>
<path d="M3220 5135 c7 -8 22 -15 34 -15 11 0 26 -4 31 -8 25 -17 48 -69 48 -105 0 -35 1 -37 11 -19 11 20 12 20 40 -9 17 -16 36 -27 42 -25 7 3 23 -3 36 -13 13 -10 30 -21 38 -24 9 -3 10 -6 3 -6 -7 -1 -13 -6 -13 -12 0 -7 10 -9 25 -5 30 8 34 -10 5 -19 -24 -7 -40 1 -40 20 0 18 -70 39 -84 25 -7 -7 -6 -10 2 -10 10 0 9 -7 -2 -27 -13 -25 -12 -28 9 -45 36 -28 101 -19 127 17 5 6 13 4 23 -5 13 -13 13 -20 3 -42 -10 -22 -18 -26 -38 -22 -25 5 -25 5 -5 -11 33 -28 95 -56 95 -44 0 6 8 9 18 7 9 -2 17 -12 17 -23 0 -13 24 -33 82 -66 l82 -48 90 157 c49 86 98 175 110 197 l21 40 -77 77 -78 78 -333 0 c-296 0 -333 -2 -322 -15z"/>
<path d="M4945 5134 c-8 -9 -12 -20 -9 -25 3 -6 12 -2 20 8 14 17 15 16 8 -7 -4 -14 -7 -35 -6 -47 2 -23 -6 -27 -40 -24 -10 1 -18 -2 -18 -7 0 -5 -19 -7 -42 -5 -41 4 -119 -18 -228 -64 -59 -25 -65 -29 -78 -56 -26 -52 -5 -70 242 -214 126 -73 230 -133 233 -133 2 0 -1 9 -7 21 -15 26 -6 48 17 45 10 -2 32 3 49 10 17 7 60 16 95 20 35 3 67 8 72 11 17 10 5 23 -22 23 -29 0 -29 1 -20 32 12 45 11 56 -5 36 -7 -10 -17 -14 -21 -10 -5 4 -5 -2 -1 -12 10 -28 -3 -56 -25 -56 -23 0 -24 16 -3 65 23 57 22 109 -4 145 -26 35 -23 81 5 59 12 -10 19 -7 38 17 27 33 31 44 13 44 -9 0 -9 3 -2 8 16 11 51 75 48 90 -1 6 -2 19 -3 27 -1 12 -22 15 -121 15 -108 0 -120 -2 -120 -17 0 -11 -3 -14 -8 -7 -13 19 -41 23 -57 8z"/>
<path d="M7872 5083 c-71 -123 -162 -284 -162 -289 0 -2 7 -4 16 -4 8 0 13 4 9 9 -3 5 0 13 6 17 8 5 9 3 4 -6 -6 -10 -4 -12 8 -7 11 4 14 2 10 -9 -3 -7 -8 -14 -12 -14 -4 0 -13 -12 -20 -27 -12 -27 -13 -27 -27 -9 -7 11 -15 18 -17 15 -19 -23 -47 -80 -47 -94 0 -9 -9 -24 -20 -33 -10 -10 -35 -46 -53 -82 -19 -36 -45 -83 -58 -104 -13 -22 -18 -37 -12 -33 6 4 15 3 18 -3 4 -6 3 -10 -2 -9 -18 3 -36 -1 -30 -7 4 -4 -2 -14 -12 -23 -10 -9 -32 -41 -50 -72 l-32 -57 64 5 c51 4 73 1 115 -17 29 -12 52 -27 52 -32 0 -5 5 -6 12 -2 7 5 9 2 5 -9 -3 -9 -1 -17 5 -19 8 -3 7 -16 -4 -45 l-17 -40 27 4 27 3 -29 -11 c-22 -9 -30 -9 -37 2 -7 11 -9 11 -9 1 0 -7 -4 -11 -9 -7 -5 3 -13 0 -17 -6 -4 -7 -3 -9 3 -6 6 4 22 -4 37 -18 16 -14 28 -20 32 -13 4 6 1 14 -6 18 -8 5 -9 10 -2 14 9 5 42 -45 42 -64 0 -14 -50 -61 -59 -56 -5 4 -11 1 -13 -5 -3 -8 -13 -9 -28 -4 l-25 8 22 8 c16 6 21 13 16 25 -4 11 -2 15 4 11 11 -7 23 13 23 39 0 11 -6 14 -22 9 -19 -5 -20 -4 -8 5 12 9 12 11 1 8 -20 -6 -26 -28 -7 -28 8 0 18 -5 22 -11 4 -7 0 -9 -14 -5 -17 6 -19 3 -15 -14 3 -11 0 -20 -6 -20 -10 0 -15 14 -12 34 1 5 -9 6 -23 4 -18 -4 -26 0 -28 11 -2 11 -6 12 -11 4 -4 -6 -1 -17 6 -25 8 -7 11 -20 9 -28 -4 -11 1 -10 17 4 20 18 21 18 21 1 0 -10 -3 -16 -6 -13 -3 4 -17 0 -32 -8 -19 -9 -30 -10 -39 -2 -11 9 -16 5 -15 -12 0 -3 -8 -7 -19 -7 -11 -1 -19 5 -20 15 0 14 -2 14 -6 2 -11 -26 -30 -39 -52 -35 -23 4 -26 -2 -11 -25 6 -10 10 -11 10 -2 0 6 5 12 10 12 21 0 9 -28 -15 -34 -32 -8 -24 -27 23 -51 20 -11 55 -30 77 -44 22 -13 94 -55 160 -93 66 -38 127 -73 135 -78 163 -98 188 -106 197 -70 3 11 10 17 16 13 6 -4 7 -1 1 8 -4 8 -7 27 -6 44 2 24 1 27 -8 15 -9 -12 -10 -9 -6 15 4 17 3 26 -1 20 -11 -14 -47 -19 -38 -5 4 6 -5 30 -20 53 -25 41 -26 41 -2 15 14 -15 27 -32 29 -39 2 -7 9 -9 15 -6 9 5 9 16 2 36 -11 30 -27 41 -66 46 -16 2 -20 -1 -16 -13 5 -11 3 -13 -8 -6 -8 4 -23 7 -34 6 -15 -2 -16 0 -7 6 11 7 10 10 -3 16 -23 9 -25 8 -25 -10 0 -8 -7 -22 -15 -30 -11 -11 -15 -12 -15 -3 0 7 -7 5 -16 -7 -15 -18 -15 -17 -9 16 4 19 8 45 10 57 2 12 7 28 11 35 5 7 9 15 9 18 3 23 48 88 69 100 14 7 26 17 26 22 0 4 9 8 19 8 11 0 23 5 26 10 10 17 117 9 153 -10 17 -10 28 -21 24 -25 -4 -5 1 -5 11 -2 11 4 16 3 12 -3 -4 -6 4 -20 17 -31 13 -11 17 -18 11 -14 -7 3 -13 1 -13 -5 0 -6 -4 -9 -9 -6 -4 3 -7 -9 -6 -27 4 -47 4 -47 21 -47 8 0 13 -4 9 -10 -3 -5 -12 -7 -19 -4 -7 3 -18 -2 -25 -10 -7 -8 -20 -12 -29 -9 -14 4 -15 3 -2 -6 11 -7 20 -5 35 7 l20 17 -20 -25 c-11 -14 -26 -31 -35 -38 -13 -12 -10 -13 18 -7 32 7 33 6 23 -14 -7 -12 -14 -21 -17 -21 -3 0 -2 5 1 10 3 6 2 10 -4 10 -16 0 -25 -51 -13 -71 9 -13 9 -20 0 -25 -7 -5 -8 -3 -3 6 5 8 4 11 -3 6 -6 -3 -13 -2 -17 4 -4 6 -11 8 -16 4 -5 -3 -7 -10 -3 -15 3 -5 10 -7 15 -4 5 4 9 1 9 -4 0 -6 7 -11 15 -11 8 0 15 -4 15 -10 0 -5 -4 -10 -10 -10 -6 0 -6 -9 0 -24 5 -13 6 -27 2 -32 -4 -4 1 -4 11 -1 12 4 17 1 18 -11 0 -10 3 -12 6 -4 2 6 9 12 15 12 7 0 6 -5 -2 -14 -6 -8 -18 -12 -26 -9 -8 3 -14 0 -14 -6 0 -6 7 -11 15 -11 8 0 15 -8 14 -17 0 -11 -3 -13 -6 -5 -7 18 -20 15 -26 -7 -4 -15 22 -34 144 -104 82 -47 150 -83 153 -79 2 4 93 162 202 352 109 190 217 378 240 419 24 41 41 78 38 83 -3 4 -1 8 4 8 12 0 65 88 65 107 0 7 5 13 11 13 7 0 7 3 -1 8 -8 5 -8 12 2 25 7 10 16 17 19 15 3 -2 19 19 36 45 35 56 40 116 12 162 -23 37 -43 91 -48 130 -6 39 25 162 49 198 27 40 19 65 -34 96 -26 14 -125 72 -221 129 l-175 102 -157 0 c-103 0 -156 -4 -156 -11 0 -5 5 -7 12 -3 7 5 8 3 3 -6 -6 -10 -11 -10 -20 3 -10 15 -35 17 -168 17 l-156 0 -39 -67z m292 20 c4 -3 2 -9 -5 -13 -10 -7 -10 -12 0 -23 9 -12 9 -17 0 -23 -8 -4 -9 -3 -5 4 4 7 2 12 -3 12 -14 0 -14 -13 1 -28 15 -15 -8 -43 -29 -35 -12 5 -14 2 -9 -8 4 -8 -1 -4 -10 9 -9 12 -21 22 -26 22 -12 0 -44 32 -39 39 2 3 -4 10 -13 16 -20 13 -52 -6 -49 -30 0 -9 -1 -14 -4 -11 -11 11 -33 -24 -39 -61 -7 -46 7 -85 41 -115 44 -38 28 -57 -28 -33 -15 6 -16 10 -5 16 10 7 9 9 -4 9 -13 0 -18 -8 -18 -25 0 -22 -2 -24 -19 -13 -39 24 -54 66 -48 134 13 137 68 178 222 167 44 -3 84 -8 89 -10z m571 -245 c52 -22 74 -48 39 -48 -8 0 -12 -4 -9 -10 3 -5 1 -10 -5 -10 -6 0 -10 -8 -9 -17 1 -10 1 -21 0 -25 0 -5 -1 -11 -2 -15 0 -5 -8 -16 -17 -26 -15 -17 -15 -17 1 -11 16 6 22 18 18 38 -1 5 4 4 12 -2 8 -7 18 -8 23 -4 5 4 1 -2 -9 -14 -9 -11 -17 -26 -17 -32 0 -7 -5 -12 -11 -12 -5 0 -7 6 -4 13 4 6 0 4 -8 -5 -8 -10 -20 -18 -28 -18 -11 0 -11 2 1 10 11 7 11 10 2 10 -7 0 -10 5 -7 10 3 6 1 10 -4 10 -6 0 -11 -5 -11 -11 0 -6 -7 -17 -15 -25 -8 -8 -12 -22 -9 -32 4 -10 2 -13 -3 -7 -9 12 -28 13 -39 3 -13 -14 -26 -8 -20 8 4 11 2 15 -6 11 -14 -5 -40 17 -31 26 3 3 -6 4 -19 1 -12 -2 -17 -2 -10 2 14 7 16 34 2 34 -5 0 -10 9 -10 19 0 11 -6 22 -12 25 -7 3 -4 4 7 3 12 -2 19 -10 19 -20 -1 -9 2 -14 7 -11 5 3 9 12 9 20 0 16 17 19 22 4 2 -6 14 -4 30 4 15 8 29 12 32 8 3 -3 6 0 6 6 0 7 -6 12 -12 12 -9 0 -8 4 2 10 8 5 11 10 5 10 -5 0 -3 5 5 10 13 9 13 11 0 20 -21 14 -84 12 -98 -2 -9 -9 -15 -9 -24 0 -11 11 1 19 72 45 32 12 82 6 135 -15z m-721 -167 c-10 -10 -23 -18 -28 -17 -6 0 -11 -8 -13 -19 -3 -15 -2 -17 5 -6 5 7 15 12 22 9 7 -2 -2 -18 -24 -41 -34 -36 -34 -37 -11 -37 18 0 23 -4 18 -16 -3 -9 0 -20 8 -25 11 -7 10 -9 -4 -9 -10 0 -16 -3 -14 -7 9 -15 -13 -54 -25 -47 -9 6 -9 3 1 -9 9 -12 10 -17 2 -17 -7 0 -10 -4 -7 -9 4 -5 -3 -7 -14 -4 -27 7 -53 59 -46 89 4 13 15 28 27 34 15 9 18 15 9 25 -6 7 -20 11 -30 8 -21 -6 -28 -23 -9 -23 20 0 -25 -59 -52 -69 -30 -10 -39 -6 -39 18 0 18 76 88 105 97 11 4 39 26 62 50 24 24 50 44 60 44 15 0 14 -2 -3 -19z m169 -70 c25 -10 57 -37 57 -50 0 -16 -43 -52 -56 -47 -8 3 -14 2 -14 -3 0 -16 -39 -19 -57 -5 -21 15 -63 19 -63 5 0 -6 5 -13 12 -17 7 -5 8 -3 3 6 -5 8 -3 11 6 8 9 -3 13 -16 11 -39 -6 -63 -10 -69 -53 -69 -38 0 -39 1 -39 35 0 54 18 84 57 91 24 5 35 13 39 30 6 23 47 64 65 64 4 0 19 -4 32 -9z m191 -213 c7 -10 16 -15 19 -11 6 5 5 -30 -2 -69 -2 -14 -74 -30 -107 -24 -31 6 -34 10 -34 41 0 19 5 46 12 60 10 23 17 25 56 23 29 -1 48 -8 56 -20z"/>
<path d="M769 5068 c-23 -40 -48 -83 -55 -95 l-14 -23 97 0 c121 0 206 -18 303 -62 105 -49 164 -88 238 -160 154 -149 231 -310 250 -523 36 -384 -200 -731 -578 -850 -110 -35 -261 -40 -286 -9 -9 10 -12 13 -8 5 5 -10 3 -12 -7 -5 -8 5 -18 9 -24 9 -31 3 -43 18 -39 47 2 17 1 28 -3 25 -9 -10 -44 13 -38 24 4 5 3 8 -2 7 -11 -4 -54 27 -47 34 3 4 -4 9 -15 13 -17 5 -34 32 -36 58 0 4 -4 6 -10 5 -5 -2 -9 -9 -9 -16 2 -10 -1 -10 -13 -1 -10 9 -11 14 -3 19 7 4 12 11 11 16 0 5 9 8 21 6 12 -2 18 0 14 7 -4 6 -14 11 -22 11 -13 0 -19 20 -14 45 1 5 2 19 3 30 0 11 5 22 9 25 4 3 -4 22 -19 43 -21 30 -24 39 -13 52 7 8 21 15 32 15 13 0 17 4 11 13 -8 13 -10 18 -12 41 0 7 -11 16 -23 20 -17 4 -20 8 -10 14 10 7 10 11 -3 22 -17 14 -20 55 -5 65 12 8 8 67 -6 82 -7 7 -14 10 -17 7 -3 -3 -8 0 -13 7 -5 8 -3 10 7 5 10 -6 10 -4 -1 6 -16 14 -22 58 -8 58 4 0 6 21 4 48 -2 26 1 53 6 60 7 8 7 12 -1 12 -6 0 -11 5 -11 11 0 5 5 7 12 3 7 -5 8 -3 3 6 -4 7 -2 16 6 22 11 7 11 11 2 15 -7 2 -13 11 -13 19 0 9 4 13 9 10 5 -4 7 3 4 14 -5 21 11 28 22 10 15 -25 26 -8 20 30 -5 32 -3 43 15 62 29 30 50 80 50 117 0 16 5 31 11 33 5 2 7 11 3 21 -5 15 -11 11 -31 -25 -14 -24 -26 -49 -27 -56 -1 -8 -7 -17 -12 -20 -10 -7 -170 -278 -388 -655 l-97 -167 3 -71 3 -70 540 -314 c297 -172 543 -310 547 -307 9 10 868 1505 865 1507 -1 1 -245 143 -542 315 -297 171 -554 321 -572 331 l-32 20 -42 -73z"/>
<path d="M2542 5068 c-61 -103 -67 -118 -53 -141 11 -18 11 -20 0 -9 -19 18 -28 15 -39 -13 -8 -20 -6 -29 10 -45 11 -11 25 -20 31 -20 5 0 7 -5 4 -10 -4 -7 -12 -7 -25 0 -14 7 -20 6 -24 -7 -4 -9 -4 -18 -1 -21 3 -3 5 1 5 9 0 12 2 12 9 0 8 -12 12 -13 25 -1 23 18 32 5 12 -16 -14 -13 -14 -19 -4 -32 11 -13 10 -15 -5 -9 -10 4 -22 7 -27 7 -11 0 -33 57 -26 69 4 5 2 12 -3 16 -10 5 -31 -24 -31 -43 0 -17 57 -75 64 -64 10 16 45 2 43 -18 -1 -10 -5 -16 -9 -14 -4 3 -8 1 -8 -4 0 -5 10 -12 22 -15 17 -5 19 -9 9 -20 -9 -12 -9 -15 1 -13 18 2 22 -17 4 -20 -9 -1 -18 8 -22 19 -10 35 -26 50 -35 36 -9 -15 0 -41 12 -33 5 3 6 -2 3 -10 -3 -8 3 -23 13 -34 10 -10 19 -24 21 -31 5 -24 34 -61 44 -55 5 3 7 12 4 19 -3 8 4 12 17 12 15 0 36 -18 66 -58 24 -32 49 -55 54 -52 6 3 7 1 3 -5 -9 -14 19 -68 41 -81 17 -10 17 -10 1 -11 -9 0 -21 7 -26 16 -5 9 -13 15 -18 15 -5 -1 -9 3 -9 7 0 4 -15 27 -33 50 -29 36 -37 53 -41 83 -1 3 -12 5 -26 5 -14 -1 -25 -6 -24 -11 3 -23 12 -34 22 -28 5 3 7 2 4 -4 -3 -5 7 -25 23 -44 16 -19 29 -38 30 -43 0 -9 -58 51 -60 62 -1 4 -11 17 -22 29 -20 22 -38 22 -38 2 0 -6 5 -7 12 -3 6 4 9 3 6 -2 -4 -5 23 -45 58 -89 35 -44 64 -83 64 -87 0 -4 -9 -12 -20 -18 -15 -8 -20 -8 -20 3 0 7 5 18 10 23 8 8 6 15 -5 24 -9 7 -15 8 -15 2 0 -5 -10 -8 -22 -4 -18 4 -20 2 -14 -14 6 -16 5 -17 -6 -6 -7 7 -14 17 -14 22 -1 6 -2 15 -3 21 0 5 -6 7 -13 3 -8 -5 -9 -2 -5 10 10 26 -19 77 -39 69 -12 -4 -15 -2 -12 8 3 8 13 13 22 13 21 -2 20 2 -5 37 -11 16 -25 27 -30 23 -5 -3 -9 -2 -8 3 4 16 -23 73 -32 67 -5 -3 -6 2 -3 10 3 9 -4 32 -16 52 -17 27 -20 38 -11 44 15 9 11 56 -4 52 -5 -2 -9 -15 -8 -30 2 -23 0 -25 -10 -12 -7 9 -19 14 -28 12 -18 -3 -169 -259 -169 -286 0 -9 -6 -19 -14 -22 -16 -6 -78 -118 -71 -128 3 -3 2 -4 -2 -1 -4 3 -15 -9 -24 -26 -16 -32 -16 -32 17 -68 19 -19 34 -39 34 -45 0 -5 -16 8 -35 30 l-35 39 -19 -25 c-13 -16 -18 -33 -14 -47 4 -18 -1 -25 -21 -33 -14 -5 -26 -15 -26 -21 0 -6 -9 -24 -21 -40 -11 -16 -17 -34 -13 -40 4 -7 3 -9 -3 -6 -11 7 -86 -127 -76 -136 3 -4 0 -15 -8 -24 -13 -16 -12 -17 4 -4 20 15 23 2 5 -19 -11 -12 -10 -12 2 -3 20 15 46 1 35 -18 -5 -8 -5 -11 0 -7 12 12 48 -40 40 -59 -3 -10 -3 -14 1 -11 9 10 44 -10 44 -25 0 -7 -3 -8 -8 -2 -7 9 -42 17 -42 9 0 -2 23 -15 50 -29 28 -14 50 -28 50 -30 0 -3 -27 8 -60 25 -34 17 -66 28 -72 24 -6 -4 7 -16 33 -30 24 -12 46 -21 49 -19 3 2 17 -5 30 -16 24 -19 22 -18 -29 1 -30 12 -58 23 -61 25 -17 11 -60 12 -66 3 -4 -6 -2 -8 4 -4 6 3 13 2 17 -4 4 -6 11 -8 16 -5 5 4 9 2 9 -2 0 -5 16 -15 36 -22 19 -7 34 -15 31 -17 -2 -2 -24 3 -48 12 -45 16 -109 27 -109 19 0 -2 25 -12 55 -21 30 -10 53 -19 51 -22 -3 -2 -29 4 -58 13 -52 16 -103 58 -93 75 3 4 -2 7 -11 6 -8 -1 -26 -21 -40 -43 -23 -40 -23 -41 -6 -64 15 -17 21 -19 27 -9 5 8 4 11 -3 6 -6 -3 -13 -2 -17 4 -8 13 15 13 35 0 10 -6 11 -10 3 -10 -26 0 -12 -17 32 -41 25 -13 111 -63 191 -111 80 -49 148 -88 150 -88 3 0 2 6 -1 13 -4 6 2 2 12 -10 21 -26 211 -136 233 -136 8 0 18 -4 21 -9 4 -6 22 4 41 21 20 17 48 37 64 45 25 13 29 13 40 -2 6 -9 9 -22 7 -29 -3 -8 0 -13 7 -11 7 2 17 -8 21 -22 4 -14 7 -21 8 -16 1 5 8 2 17 -5 11 -9 14 -23 10 -49 -4 -24 -3 -30 4 -20 6 9 10 10 10 3 0 -6 -6 -18 -14 -26 -16 -15 -11 -20 73 -64 l44 -24 -15 23 c-9 13 -24 22 -34 20 -15 -3 -16 -2 -5 12 17 20 33 8 51 -34 7 -17 17 -30 22 -30 5 0 6 5 3 10 -3 6 -2 10 3 10 6 0 13 -7 16 -16 3 -8 2 -12 -4 -9 -6 3 -10 3 -10 -2 0 -14 78 -54 85 -43 3 6 3 15 -1 22 -4 6 -3 8 2 5 6 -3 15 3 22 13 7 12 8 21 2 25 -5 3 1 16 15 29 14 13 25 28 25 33 0 6 7 16 15 23 19 16 135 222 140 251 3 12 0 28 -6 35 -6 7 -8 18 -5 23 4 5 -8 26 -25 45 -17 20 -26 36 -21 36 6 0 28 -23 50 -50 l40 -50 93 162 c57 100 88 163 81 166 -7 2 -10 8 -7 12 3 5 11 7 18 5 15 -6 119 177 105 186 -5 3 0 9 11 12 32 8 25 22 -16 34 l-38 11 42 -5 c34 -4 43 -2 52 15 10 18 6 23 -26 39 -43 21 -44 36 -3 37 22 1 30 -4 30 -16 0 -25 18 -31 29 -10 8 16 5 21 -24 35 -20 10 -36 12 -39 6 -2 -5 -3 -4 -2 3 4 17 47 18 66 2 13 -11 18 -10 27 5 9 15 7 23 -15 46 l-26 28 -53 -58 c-29 -32 -51 -61 -48 -63 3 -3 1 -10 -4 -16 -13 -16 -17 -49 -8 -63 6 -9 3 -11 -8 -7 -10 4 -13 13 -10 25 4 11 2 19 -5 19 -7 0 -2 9 11 20 13 10 19 19 13 20 -15 0 -47 -37 -41 -47 5 -9 -47 -146 -76 -200 -19 -35 -34 -45 -22 -15 4 12 3 14 -4 7 -7 -7 -7 -22 -2 -40 l9 -30 10 25 c6 14 11 19 11 13 1 -7 6 -13 12 -13 5 0 7 5 3 12 -4 7 -3 8 4 4 6 -4 8 -14 5 -24 -9 -27 -52 -64 -65 -56 -6 4 -8 3 -5 -3 7 -11 -92 -100 -105 -96 -5 2 -8 -3 -8 -10 0 -18 -58 -69 -72 -64 -10 4 -10 6 -1 6 13 1 63 48 63 59 0 15 77 83 90 80 13 -3 43 66 32 76 -3 4 -17 -4 -30 -16 -24 -22 -24 -22 -14 -2 8 15 8 24 -1 34 -10 12 -9 12 4 2 13 -10 18 -7 28 15 11 24 11 25 -5 12 -15 -13 -16 -11 -10 11 6 25 6 25 -5 3 -7 -13 -17 -23 -24 -23 -7 0 -19 -8 -28 -18 -16 -17 -22 -17 -89 -5 -122 23 -143 32 -63 28 79 -4 99 4 164 64 24 22 48 38 52 35 13 -8 0 -30 -26 -44 -13 -7 -22 -17 -19 -22 4 -5 19 3 36 19 22 21 28 34 23 51 -4 18 -3 22 7 16 20 -13 37 -13 45 -2 4 7 1 8 -6 3 -9 -5 -12 -2 -9 11 2 11 9 18 16 17 7 -2 9 4 5 14 -4 10 -2 14 4 10 6 -4 14 0 17 9 3 8 10 13 15 9 6 -3 15 3 21 14 7 14 7 22 -1 26 -6 4 -8 13 -5 21 3 8 1 14 -3 14 -5 0 -12 7 -15 16 -5 13 -3 14 6 6 14 -11 43 10 31 22 -4 3 2 6 13 6 32 1 -5 17 -56 25 -25 4 -50 8 -57 9 -7 1 -16 5 -19 9 -11 10 -24 9 -24 -3 0 -5 6 -10 13 -10 8 0 14 -7 14 -15 0 -9 -6 -14 -14 -11 -11 5 -15 0 -12 -20 0 -3 -11 -16 -25 -29 -32 -30 -34 -55 -3 -56 12 0 16 -3 9 -6 -6 -2 -10 -9 -7 -14 4 -5 -1 -6 -10 -3 -9 4 -15 3 -14 -2 3 -20 -2 -34 -12 -34 -5 0 -7 5 -4 10 3 6 1 10 -6 10 -10 0 -10 3 -1 12 16 16 15 30 -3 54 -11 13 -13 14 -9 3 3 -11 -2 -18 -16 -22 -26 -7 -52 2 -44 14 3 5 1 9 -5 9 -5 0 -13 -4 -16 -10 -3 -5 -2 -10 3 -10 6 0 9 -11 8 -25 0 -14 -5 -25 -9 -25 -5 0 -5 -4 -2 -10 3 -5 1 -10 -4 -10 -6 0 -11 -5 -11 -11 0 -8 5 -7 15 1 12 10 19 10 27 2 7 -7 8 -12 2 -12 -5 0 -2 -5 6 -11 12 -8 11 -9 -6 -4 -14 4 -24 0 -28 -10 -3 -10 1 -15 12 -15 10 0 22 -4 28 -9 5 -5 23 -12 39 -14 17 -3 -4 -3 -46 -1 -41 2 -97 8 -124 13 -27 5 -54 7 -60 5 -7 -3 -11 12 -10 46 1 52 15 72 97 136 l28 22 -48 13 c-26 7 -56 18 -68 26 -11 7 -23 10 -26 7 -4 -3 -9 4 -13 15 -3 12 -10 21 -15 21 -5 0 -11 8 -14 18 -3 9 -17 22 -31 29 -19 8 -24 8 -19 0 3 -7 -2 -3 -10 7 -9 11 -16 16 -16 12 0 -5 -7 -3 -15 4 -8 7 -12 16 -9 21 7 13 -10 11 -23 -2 -7 -7 -12 -6 -16 5 -4 10 -1 13 9 9 7 -3 14 0 14 6 0 6 6 11 14 11 8 0 17 6 20 13 4 6 4 2 2 -10 -3 -15 1 -23 10 -23 8 0 15 1 17 3 4 4 35 -28 32 -33 -2 -3 6 -7 18 -7 17 -2 19 0 7 7 -8 5 -10 10 -5 10 6 1 -7 10 -27 21 -21 11 -38 26 -38 34 0 19 1 19 -54 -5 -48 -20 -54 -28 -33 -49 10 -10 9 -11 -5 -6 -10 4 -18 14 -18 22 0 11 -4 13 -12 6 -7 -5 -33 -18 -58 -27 -25 -10 -66 -26 -91 -36 l-46 -19 5 27 c3 15 7 22 9 16 4 -13 82 12 94 29 3 5 9 8 13 7 3 -1 32 8 64 20 31 12 65 22 74 23 15 1 32 22 25 30 -5 6 29 34 36 30 4 -3 14 1 22 7 10 8 15 9 15 2 0 -6 -8 -16 -17 -21 -10 -6 -13 -11 -6 -11 6 0 15 5 18 10 3 6 18 10 33 10 18 0 23 -3 14 -9 -11 -6 -10 -11 3 -24 9 -9 17 -32 19 -52 3 -37 26 -75 26 -42 0 9 -6 17 -12 17 -10 0 -10 2 0 8 8 5 10 16 6 27 -6 14 -4 16 6 10 9 -5 11 -4 6 3 -12 20 26 131 47 138 10 3 21 3 24 0 4 -3 -1 -6 -10 -6 -9 0 -17 -4 -17 -8 0 -5 7 -9 15 -9 14 0 19 9 16 33 -1 7 6 15 15 18 11 4 15 2 11 -8 -4 -10 -1 -13 7 -10 24 9 30 -18 9 -35 -23 -18 -37 -51 -23 -51 6 0 10 9 10 20 0 19 24 28 33 13 2 -5 2 -3 1 4 -3 13 23 26 37 17 5 -3 7 -10 4 -15 -4 -5 -1 -9 5 -9 6 0 8 -4 5 -10 -3 -5 0 -10 9 -10 15 0 16 -24 1 -37 -4 -4 -5 -3 -1 4 4 7 -3 17 -16 23 -21 10 -21 10 -5 -3 16 -13 13 -14 -30 -11 l-48 3 45 -11 c25 -6 47 -12 49 -14 2 -2 -9 -24 -23 -50 -25 -45 -27 -84 -5 -84 6 0 7 5 3 11 -4 7 -1 10 7 7 8 -3 15 -12 17 -20 2 -13 -4 -15 -32 -13 -20 2 -36 0 -36 -5 0 -20 13 -40 27 -40 9 0 13 6 9 15 -8 23 13 18 36 -7 11 -13 16 -17 12 -9 -3 7 0 17 7 22 10 6 11 9 2 9 -7 0 -13 4 -13 10 0 5 6 9 13 7 6 -1 11 4 10 11 -2 6 2 12 7 12 6 0 10 -6 9 -12 -1 -7 3 -25 11 -40 10 -22 11 -30 0 -43 -8 -10 -9 -15 -1 -15 6 0 11 5 11 10 0 6 7 10 16 10 9 0 12 -5 8 -12 -5 -10 -3 -9 7 0 12 11 11 15 -3 23 -16 9 -16 11 3 30 14 14 24 17 32 11 7 -6 33 -11 59 -13 42 -4 45 -2 37 14 -6 10 -15 15 -22 11 -9 -5 -8 -3 1 7 16 18 15 29 -3 29 -21 0 -68 47 -60 60 3 6 2 10 -3 10 -5 0 -12 -10 -16 -22 -8 -32 -7 -45 2 -30 7 9 13 8 27 -8 10 -11 13 -20 7 -20 -6 0 -12 6 -15 13 -2 7 -8 8 -13 3 -5 -5 1 -15 14 -23 23 -16 29 -33 11 -33 -5 0 -8 4 -5 8 3 5 -6 15 -19 22 -13 7 -23 16 -20 19 2 4 0 13 -5 21 -14 23 -24 2 -12 -25 14 -30 6 -60 -13 -45 -6 5 -15 7 -18 3 -4 -3 -7 3 -7 13 0 11 -6 26 -12 33 -11 10 -10 12 2 9 8 -2 18 -10 22 -18 3 -8 5 2 4 22 -2 39 -26 80 -26 44 0 -10 5 -14 11 -10 7 4 10 1 7 -7 -3 -8 -12 -13 -22 -11 -9 2 -16 -4 -16 -13 0 -8 -4 -15 -10 -15 -15 0 -12 10 19 68 l30 53 -22 19 c-12 11 -15 20 -8 20 7 0 10 4 6 10 -3 5 7 16 23 24 16 8 35 29 42 46 12 28 44 60 61 60 4 0 9 -11 11 -25 3 -14 2 -25 -1 -25 -3 0 -11 -11 -18 -25 -6 -15 -7 -25 -1 -25 5 0 6 -6 2 -12 -5 -9 -2 -9 9 1 9 7 17 19 17 25 0 7 14 25 30 41 24 23 33 26 43 16 10 -10 8 -11 -8 -5 -18 7 -19 6 -5 -12 14 -18 14 -18 -2 -5 -11 8 -18 9 -18 3 0 -14 38 -35 50 -27 5 3 7 12 3 20 -3 10 1 15 13 15 15 0 16 -2 5 -9 -7 -5 -9 -10 -5 -13 19 -10 35 -2 54 27 17 26 18 31 4 46 -14 16 -14 18 7 30 13 6 32 20 43 31 11 10 26 16 33 14 29 -11 10 5 -47 39 -33 20 -65 33 -71 29 -7 -4 -9 -3 -6 3 3 5 -11 18 -31 28 -20 11 -66 38 -102 61 -134 84 -247 144 -262 139 -8 -3 -22 3 -32 14 -10 11 -23 18 -29 14 -6 -3 -7 -1 -3 5 7 12 -23 33 -129 93 -33 18 -54 26 -47 17 14 -18 7 -26 -29 -33 -20 -4 -20 -3 -4 21 l16 25 -25 -16 c-13 -9 -30 -15 -38 -14 -7 1 -21 -1 -32 -6 -12 -5 -21 -3 -27 6 -8 12 -12 11 -23 -4 -12 -15 -15 -15 -26 -2 -10 12 -9 16 6 21 11 3 27 10 36 15 20 10 48 12 48 3 0 -4 -8 -13 -17 -20 -10 -7 -13 -14 -6 -14 6 0 15 5 18 10 4 6 11 8 16 5 13 -9 11 9 -3 23 -10 10 -10 15 2 22 16 10 17 9 -32 38 l-36 22 -20 -32z m569 -346 c17 -21 16 -24 -9 -82 -16 -35 -30 -56 -35 -51 -11 11 -37 3 -37 -10 0 -5 -9 -18 -19 -28 -19 -19 -19 -19 -14 17 3 20 9 51 13 69 7 27 5 31 -9 28 -27 -5 -21 25 6 31 13 4 22 8 19 11 -9 9 29 39 48 38 10 -1 27 -11 37 -23z m-249 -106 c6 4 5 -3 -2 -16 -6 -12 -9 -24 -6 -27 3 -3 8 2 12 11 3 9 12 16 20 16 8 0 14 6 14 13 0 9 2 9 9 -1 6 -11 10 -10 15 5 15 37 25 -10 14 -62 -12 -57 -23 -75 -47 -75 -14 0 -14 2 -1 10 12 8 9 9 -11 8 -14 -1 -26 -8 -26 -15 0 -6 4 -10 9 -7 4 3 8 0 8 -6 0 -7 -8 -9 -20 -5 -19 6 -25 -6 -21 -42 1 -6 -3 -14 -9 -18 -6 -4 -8 6 -6 25 3 25 1 28 -11 18 -8 -7 -13 -22 -10 -35 2 -13 2 -21 -1 -19 -3 3 -10 -1 -17 -10 -10 -15 -13 -15 -29 1 -14 14 -16 28 -11 79 12 111 43 179 71 155 11 -9 15 -7 20 6 6 16 8 16 16 1 5 -9 14 -14 20 -10z m-672 -416 c0 -6 5 -10 11 -10 6 0 8 7 5 16 -5 13 -4 14 7 6 8 -7 18 -8 22 -4 5 4 5 2 1 -5 -3 -6 -2 -14 4 -18 5 -3 10 -2 10 4 0 6 24 8 60 6 42 -3 59 -1 54 7 -4 6 -1 9 6 6 22 -7 21 -23 -2 -33 -29 -13 -36 -35 -8 -28 14 4 20 1 18 -8 -3 -15 15 -16 47 -3 18 7 19 6 5 -11 -14 -17 -13 -18 3 -12 9 3 17 2 17 -3 0 -6 -5 -10 -11 -10 -5 0 -7 -5 -3 -11 4 -7 1 -10 -7 -7 -8 3 -14 10 -14 16 0 7 -4 11 -10 10 -11 -3 -8 -20 6 -28 5 -3 7 -15 5 -26 -3 -16 1 -20 20 -20 13 0 24 4 24 8 0 4 -10 8 -22 8 -12 0 -19 3 -15 6 3 4 18 3 32 0 20 -5 25 -11 21 -24 -5 -13 -3 -13 9 2 12 16 15 17 15 4 0 -8 6 -21 14 -27 15 -13 27 -71 14 -71 -4 0 -8 -6 -8 -14 0 -8 -5 -18 -12 -22 -7 -4 -8 -3 -4 4 4 7 2 12 -3 12 -6 0 -11 -6 -11 -14 0 -8 -5 -18 -12 -22 -7 -5 -9 -2 -4 7 4 8 1 6 -7 -3 -13 -16 -37 -25 -37 -14 0 2 -3 13 -6 23 -6 16 -5 16 10 -2 l16 -20 -6 20 c-8 23 -114 126 -125 120 -4 -3 -12 8 -19 24 -11 28 -12 28 -41 14 -32 -16 -37 -30 -14 -39 21 -8 41 6 24 17 -8 5 -9 9 -4 9 6 0 17 -4 25 -10 12 -8 12 -10 -3 -16 -27 -10 -20 -22 11 -18 27 4 27 4 2 -5 -22 -7 -23 -9 -7 -16 10 -4 24 -2 33 6 13 10 17 10 25 -2 5 -8 9 -18 9 -24 0 -5 -4 -4 -8 3 -5 7 -16 10 -25 6 -10 -3 -14 -11 -10 -18 4 -6 -13 6 -37 26 -24 21 -46 35 -49 32 -3 -3 2 -10 12 -15 9 -6 14 -15 11 -21 -4 -6 -3 -8 3 -5 6 4 13 1 16 -7 3 -8 20 -21 38 -30 39 -19 42 -20 33 -3 -4 6 2 3 14 -7 29 -25 52 -73 45 -92 -3 -9 4 -28 16 -44 14 -20 17 -31 9 -36 -7 -5 -8 -2 -3 7 5 8 4 11 0 6 -13 -11 -17 -55 -6 -61 5 -3 7 3 4 14 -4 15 2 22 22 30 31 12 45 13 28 2 -8 -5 -6 -14 8 -31 19 -23 21 -23 37 -7 16 16 15 19 -18 46 -19 16 -30 30 -24 30 7 0 26 -16 43 -35 17 -19 35 -35 40 -35 19 0 21 -18 4 -31 -15 -12 -16 -12 -10 4 5 13 3 17 -5 15 -12 -4 -14 -8 -17 -44 0 -8 -5 -13 -10 -10 -11 7 -1 -45 13 -64 9 -13 9 -13 -6 -2 -14 11 -20 10 -37 -7 -12 -12 -29 -21 -38 -21 -13 0 -14 -3 -5 -12 7 -7 12 -16 12 -22 0 -18 -20 9 -25 33 -5 28 -24 53 -36 46 -4 -3 -6 3 -4 15 2 11 1 19 -3 19 -19 -3 -33 2 -27 10 3 5 1 12 -5 16 -5 3 -10 11 -10 17 0 6 11 1 24 -11 19 -18 28 -21 44 -12 11 6 23 7 27 3 5 -4 5 -2 2 5 -4 6 -2 13 5 15 9 3 9 6 1 11 -6 4 -18 0 -26 -8 -16 -16 -47 -21 -47 -7 0 4 -18 27 -41 52 -37 41 -38 41 -13 7 18 -26 24 -41 17 -48 -7 -7 -17 3 -32 34 -12 24 -30 52 -41 62 -18 17 -21 17 -46 0 -19 -12 -29 -14 -37 -6 -6 6 -7 11 -3 11 5 0 2 8 -5 18 -13 15 -12 16 4 3 35 -28 37 3 3 41 -18 20 -36 43 -39 52 -4 9 -14 16 -23 16 -11 0 -14 -5 -10 -16 3 -9 6 -21 6 -27 0 -7 4 -6 10 3 6 9 10 10 10 3 0 -16 -17 -26 -25 -13 -4 6 -11 8 -16 4 -6 -3 -9 0 -8 7 4 23 -13 53 -21 39 -5 -8 -9 -6 -12 7 -4 13 0 19 13 19 10 0 16 -4 13 -7 -12 -20 21 -18 42 2 27 25 28 25 56 -26 l11 -20 -23 20 -24 20 23 -33 c13 -18 26 -31 29 -28 9 10 31 -15 26 -29 -4 -10 2 -13 21 -10 27 2 45 20 44 40 0 6 -3 4 -6 -3 -4 -10 -8 -10 -19 -1 -8 6 -11 16 -8 23 3 6 -1 3 -9 -6 -13 -16 -17 -14 -47 28 -18 25 -44 51 -59 57 -28 12 -41 26 -41 42 1 6 7 1 15 -9 8 -11 15 -15 15 -9 0 18 -27 36 -35 23 -4 -6 -13 -9 -20 -6 -8 3 -19 -2 -25 -10 -15 -17 -50 -19 -50 -3 0 6 7 8 16 5 10 -4 18 0 21 13 3 12 11 17 19 14 8 -3 14 0 14 6 0 13 -22 15 -35 2 -6 -5 -21 -12 -35 -16 -18 -4 -13 1 15 19 33 20 37 26 23 31 -26 10 -22 32 6 37 21 4 23 3 13 -13 -19 -30 4 -41 33 -16 42 37 59 70 48 93 -9 19 -9 19 6 -1 15 -18 17 -18 33 -2 12 11 13 17 5 17 -7 0 -10 5 -7 11 4 6 -1 17 -11 25 -18 14 -18 14 4 4 12 -6 22 -15 22 -20z m-148 -285 c11 -14 23 -23 28 -20 5 3 12 0 16 -6 4 -8 3 -9 -4 -5 -18 11 -14 -2 10 -34 11 -16 26 -26 32 -23 6 3 8 3 4 -2 -4 -4 -3 -16 3 -26 7 -15 6 -21 -6 -25 -14 -6 -14 -9 2 -28 18 -20 18 -20 -2 -6 -11 8 -25 21 -31 29 -9 12 -16 11 -42 -7 -16 -12 -36 -22 -43 -22 -8 0 -5 6 6 14 18 13 18 14 -5 12 -31 -1 -40 30 -11 39 12 3 21 11 21 16 0 6 -13 1 -30 -11 -16 -12 -30 -17 -30 -11 0 5 5 13 10 16 8 5 7 11 0 20 -7 8 -9 19 -5 25 3 5 1 10 -4 10 -6 0 -11 -9 -11 -20 0 -11 5 -20 12 -20 9 0 9 -3 0 -12 -10 -10 -15 -10 -22 2 -6 8 -8 21 -5 28 3 7 0 10 -5 7 -22 -13 -8 25 15 43 13 11 21 23 17 27 -4 5 -1 5 5 1 7 -4 21 -2 30 3 24 14 22 14 45 -14z m783 -414 c3 -5 -3 -12 -12 -14 -14 -4 -13 -5 4 -6 21 -1 63 -48 63 -70 0 -6 6 -11 13 -11 14 0 73 -81 69 -95 -2 -5 5 -15 15 -23 15 -10 15 -14 4 -21 -7 -5 -11 -13 -7 -19 3 -6 2 -13 -4 -17 -5 -3 -10 -1 -10 4 0 6 -4 11 -10 11 -5 0 -7 -6 -4 -13 3 -8 -1 -19 -9 -25 -10 -9 -20 -3 -44 29 l-31 41 20 20 21 21 24 -29 c12 -16 23 -24 23 -19 0 6 -14 25 -30 44 -17 18 -30 28 -30 22 0 -7 -4 -10 -9 -7 -5 3 -11 -3 -14 -14 -6 -22 -29 -28 -26 -7 1 6 1 19 0 27 -1 12 -3 12 -9 2 -6 -9 -23 6 -56 49 -58 75 -61 82 -40 100 10 8 15 9 11 3 -4 -7 1 -18 11 -25 15 -12 16 -12 5 1 -8 10 -9 21 -3 30 6 8 10 11 10 7 0 -4 8 -3 18 2 22 13 29 13 37 2z"/>
<path d="M133 4965 c1 -5 -2 -10 -8 -10 -5 -1 -26 -5 -45 -9 -19 -4 -45 -8 -57 -9 l-23 -1 0 -318 0 -318 40 0 c35 0 43 5 60 33 11 17 18 38 15 45 -2 6 2 12 10 12 18 0 29 41 21 76 -6 23 1 34 54 84 59 56 77 85 43 73 -10 -3 -33 -21 -50 -39 l-33 -33 0 26 c0 26 -1 26 -15 7 -14 -18 -14 -18 -15 7 0 14 6 31 12 37 10 10 10 15 -2 22 -8 6 -22 7 -30 4 -45 -18 -48 -11 -6 12 65 35 81 51 67 67 -7 10 -3 29 18 70 16 32 24 60 20 63 -5 3 -1 13 10 22 11 9 22 33 25 52 4 26 4 30 -3 15 -9 -18 -10 -18 -10 -2 -1 15 -4 16 -23 6 -17 -9 -20 -9 -16 3 5 11 -2 14 -27 14 -18 -1 -33 -5 -32 -11z"/>
<path d="M4161 4801 c-14 -25 5 -47 48 -56 25 -5 32 -4 26 5 -5 8 -3 11 6 8 24 -8 10 -102 -38 -256 -22 -72 -24 -89 -14 -121 22 -75 11 -100 -58 -140 -67 -37 -105 -30 -209 41 -24 17 -45 28 -47 26 -5 -4 -189 -318 -207 -352 -8 -14 -2 -13 24 8 19 14 41 26 49 26 25 1 148 57 177 82 16 13 65 37 108 52 43 15 90 34 104 41 47 25 238 17 261 -12 11 -12 5 -13 -42 -6 -121 17 -185 1 -339 -86 -36 -20 -72 -37 -80 -37 -26 -3 -64 -21 -89 -43 -16 -14 -27 -18 -31 -11 -7 11 -60 -35 -60 -51 0 -5 -4 -9 -10 -9 -5 0 -10 7 -10 16 0 13 -4 13 -30 -3 -31 -18 -34 -26 -31 -83 1 -27 -1 -31 -8 -20 -6 8 -11 25 -11 38 0 26 -12 28 -30 7 -7 -9 -82 -136 -166 -282 l-153 -266 422 -244 c232 -135 479 -278 548 -319 70 -41 131 -74 136 -74 5 0 9 12 9 28 1 85 4 102 19 102 10 0 15 -10 15 -32 0 -41 10 -78 20 -78 12 0 520 888 519 908 0 12 -4 10 -12 -8 -6 -14 -16 -28 -22 -32 -14 -10 -73 -10 -79 0 -3 5 13 28 35 53 21 24 39 47 39 51 0 3 12 20 26 37 14 17 22 36 18 42 -4 8 -3 9 4 5 8 -5 12 0 12 14 0 20 -1 20 -32 4 -18 -9 -53 -30 -77 -47 -31 -21 -42 -25 -38 -14 3 9 3 16 -1 16 -25 -4 -32 2 -23 20 6 10 7 21 4 25 -3 3 -1 6 5 6 7 0 12 -4 12 -10 0 -5 5 -10 11 -10 5 0 8 4 4 10 -9 15 6 60 21 60 8 0 11 6 8 15 -9 21 6 41 18 24 7 -11 8 -9 4 4 -3 10 1 25 9 33 8 9 15 24 15 35 0 11 9 39 20 61 22 45 26 73 10 63 -5 -3 -10 -4 -10 -1 0 5 86 66 93 66 3 0 3 -8 0 -19 -3 -11 2 -21 11 -24 10 -4 16 -1 16 7 0 8 7 16 15 20 24 9 18 29 -7 23 l-23 -6 24 20 c13 10 28 19 35 19 7 0 6 -4 -3 -9 -10 -6 -10 -13 -2 -29 10 -19 5 -70 -15 -139 -5 -18 -2 -23 11 -23 12 0 15 -5 10 -17 -12 -33 -27 -112 -23 -129 2 -12 12 -1 30 32 15 27 40 69 55 94 20 34 22 41 8 30 -12 -9 -9 -2 8 21 15 20 27 41 27 48 0 7 4 10 8 7 4 -3 22 21 40 54 28 51 30 59 15 64 -9 4 -21 1 -26 -6 -7 -10 -8 -9 -4 3 4 12 -54 50 -236 156 -502 292 -474 277 -492 259 -11 -11 -13 -21 -7 -33 5 -10 8 -28 7 -40 -1 -14 4 -23 12 -23 9 0 6 -7 -7 -20 -11 -11 -17 -26 -14 -35 4 -8 3 -23 -2 -32 -9 -22 -11 -113 -2 -113 3 0 8 5 10 11 2 7 11 1 20 -13 15 -22 15 -26 -3 -49 -11 -13 -17 -17 -14 -9 7 22 -10 44 -29 37 -9 -4 -16 -15 -16 -26 0 -11 -4 -22 -9 -26 -18 -10 -22 14 -8 47 13 34 4 88 -16 88 -4 0 -5 -4 -2 -10 3 -5 4 -10 2 -10 -3 0 -14 18 -26 40 -13 25 -16 40 -9 40 6 0 8 3 5 7 -4 3 1 12 11 19 16 13 16 13 -2 14 -19 0 -19 0 -1 13 13 10 15 16 6 21 -9 6 -8 14 4 32 9 14 13 33 10 44 -4 14 -2 20 8 20 21 0 38 25 31 43 -10 27 -217 143 -234 132 -6 -4 -13 1 -16 9 -5 14 -63 56 -77 56 -4 0 -11 -8 -16 -19z"/>
<path d="M3487 4539 c-9 -6 -17 -15 -17 -21 0 -7 6 -6 15 2 9 7 19 10 22 6 10 -10 -45 -58 -57 -51 -6 3 -10 -1 -10 -9 0 -9 -4 -16 -9 -16 -5 0 -18 -16 -30 -35 l-21 -36 26 -9 c14 -6 35 -10 47 -10 37 0 83 -36 104 -80 l20 -43 -36 -31 c-20 -16 -38 -31 -40 -33 -6 -4 20 -33 30 -33 5 0 14 10 20 22 9 17 9 23 0 26 -8 3 -3 9 11 16 15 8 22 20 21 34 -2 16 2 20 15 16 14 -5 14 -4 2 4 -8 6 -18 8 -22 6 -4 -3 -8 -1 -8 3 0 5 15 16 33 26 32 18 87 94 87 122 0 8 6 15 13 15 6 0 -1 7 -16 15 -26 13 -31 13 -55 -3 -14 -9 -23 -12 -19 -6 4 7 0 14 -8 18 -8 3 -15 11 -15 18 0 9 3 8 10 -2 5 -8 10 -11 10 -6 0 5 6 3 14 -3 10 -8 16 -9 21 -1 3 5 4 11 1 11 -3 1 -9 2 -13 3 -5 1 -27 14 -50 30 -23 15 -46 25 -52 22 -5 -4 -13 0 -18 8 -6 11 -13 12 -26 5z"/>
<path d="M8971 3926 c-6 -7 -9 -20 -6 -28 4 -9 -2 -24 -12 -34 -10 -10 -18 -22 -19 -28 0 -17 -32 -74 -45 -82 -8 -4 -9 -3 -5 4 4 7 5 12 2 12 -3 0 -17 -21 -32 -47 -15 -27 -37 -65 -51 -85 -13 -21 -19 -38 -14 -38 5 0 12 -7 15 -16 5 -14 4 -15 -9 -4 -13 11 -18 10 -30 -6 -27 -35 -29 -63 -5 -88 12 -13 17 -27 12 -30 -5 -3 -15 1 -22 9 -7 8 -15 15 -19 15 -9 0 -8 -42 1 -56 5 -7 -1 -10 -16 -7 -25 5 -71 -30 -62 -46 3 -4 -3 -17 -13 -27 -26 -29 -101 -160 -101 -178 0 -9 -9 -24 -20 -33 -11 -10 -20 -23 -20 -30 0 -7 -4 -13 -8 -13 -5 0 -17 -18 -27 -40 -18 -39 -18 -41 1 -55 27 -20 47 -18 62 5 7 11 8 20 2 20 -5 0 -7 7 -3 16 4 11 8 12 13 4 5 -8 12 -5 23 10 9 13 17 17 22 11 3 -6 1 -11 -5 -11 -7 0 -10 -6 -7 -14 3 -7 -3 -20 -14 -29 -10 -9 -19 -26 -19 -38 0 -15 -5 -19 -19 -14 -13 4 -20 0 -24 -16 -6 -22 -6 -22 -42 5 -20 16 -39 25 -43 21 -4 -4 3 -14 16 -22 31 -21 28 -33 -7 -23 -23 6 -31 5 -35 -7 -9 -22 49 -65 67 -50 8 6 38 -34 32 -43 -3 -6 1 -7 9 -4 23 9 20 45 -4 51 -22 6 -26 18 -9 29 16 10 58 -16 52 -33 -3 -8 0 -13 8 -11 10 2 14 -7 14 -29 0 -28 6 -35 49 -57 27 -14 54 -36 60 -48 8 -16 21 -23 41 -23 17 0 53 -12 81 -27 28 -15 55 -24 59 -20 5 4 5 1 1 -5 -4 -8 -2 -14 6 -15 7 0 18 -2 23 -2 6 -1 16 -5 23 -9 8 -5 12 -3 12 7 0 9 -6 16 -14 16 -8 0 -17 4 -21 9 -8 14 51 -4 91 -28 49 -29 42 -8 -8 26 -24 16 -44 35 -46 42 -1 7 2 10 7 7 5 -4 12 0 15 6 3 7 3 3 1 -8 -4 -16 0 -23 16 -27 44 -12 48 11 49 273 l1 245 -58 38 c-32 20 -51 37 -42 37 9 0 33 -11 53 -25 20 -14 39 -25 41 -25 10 0 4 37 -7 48 -9 9 -9 12 0 12 7 0 12 16 12 40 0 22 -4 40 -9 40 -5 0 -17 7 -25 16 -14 14 -19 12 -46 -16 -21 -21 -35 -28 -45 -23 -10 6 -11 13 -5 23 8 13 10 12 10 -3 0 -10 4 -16 9 -13 5 3 7 14 5 24 -7 28 41 45 77 26 l29 -15 0 51 c0 36 -4 50 -14 50 -8 0 -17 7 -20 16 -5 14 -4 15 8 5 11 -9 15 -8 20 4 3 9 2 14 -3 11 -5 -3 -11 3 -14 14 -3 11 -2 18 3 15 16 -10 19 25 4 40 -31 31 -53 37 -70 20 -24 -24 -29 -10 -6 15 16 18 24 20 40 11 42 -22 52 -14 52 38 l0 49 -36 -33 c-47 -43 -63 -56 -98 -78 -26 -18 -28 -22 -21 -65 6 -43 5 -45 -8 -27 -26 35 -21 79 10 98 7 5 10 13 7 19 -4 7 -2 8 4 4 6 -3 19 2 29 13 10 10 28 21 39 25 12 4 34 24 48 46 23 34 26 50 26 119 0 72 -2 80 -17 75 -17 -5 -17 -5 0 9 9 8 17 17 17 21 0 11 -17 6 -29 -8z m-193 -815 c-12 -20 -27 -45 -32 -55 -6 -11 -15 -25 -19 -30 -24 -32 -77 -119 -74 -122 1 -2 15 8 30 22 30 28 31 27 17 -11 -5 -14 -14 -23 -20 -20 -5 3 -10 1 -10 -4 0 -6 -9 -11 -20 -11 -11 0 -20 4 -20 9 0 19 -41 23 -54 6 -11 -16 -16 -16 -41 -4 -40 19 -41 35 -5 43 18 3 29 10 25 16 -3 6 2 13 12 17 10 4 24 14 31 22 12 14 13 13 9 -7 -5 -20 -3 -21 11 -10 14 11 15 10 9 -6 -7 -17 -6 -17 9 -5 15 12 16 11 10 -9 -4 -12 -4 -22 1 -22 11 0 63 101 63 123 0 23 26 50 40 42 5 -3 10 -1 10 4 0 6 -5 11 -10 11 -6 0 -3 11 6 24 9 15 21 23 30 19 12 -4 10 -12 -8 -42z"/>
<path d="M7212 3677 c9 -7 25 -18 35 -25 17 -12 17 -12 -2 -4 -25 11 -95 14 -95 4 0 -4 -11 -8 -23 -8 -13 -1 -38 -15 -55 -32 -17 -16 -36 -32 -44 -35 -7 -2 -10 -8 -5 -12 4 -5 13 -3 19 3 7 7 18 12 25 12 15 0 18 -36 3 -45 -5 -3 -10 -2 -10 3 0 5 -7 9 -15 9 -11 0 -13 -6 -9 -21 16 -47 11 -81 -14 -111 -25 -30 -28 -32 -69 -34 -13 0 -23 -6 -23 -12 0 -7 10 -9 24 -7 21 4 23 1 22 -26 -2 -23 -7 -31 -20 -29 -11 0 -15 -4 -12 -13 3 -8 -1 -14 -9 -14 -7 0 -16 -9 -20 -19 -3 -11 -13 -22 -21 -25 -8 -3 -12 -2 -9 4 3 6 1 10 -4 10 -6 0 -11 -7 -11 -15 0 -22 -21 -18 -27 5 -6 24 -38 27 -47 4 -7 -19 2 -37 15 -29 5 4 9 2 9 -4 0 -6 12 -8 28 -5 24 5 30 1 45 -31 17 -35 17 -37 -6 -68 -15 -21 -23 -45 -23 -72 1 -38 3 -40 34 -43 32 -3 41 -15 22 -27 -5 -3 -10 -19 -10 -35 0 -39 -14 -45 -48 -22 -60 43 -111 63 -131 52 -11 -5 -29 -10 -41 -10 -19 0 -22 4 -18 30 3 17 1 30 -3 30 -14 0 -60 -91 -55 -108 12 -37 132 -63 241 -52 11 1 30 3 43 4 13 0 20 6 17 14 -2 7 4 12 15 12 11 0 20 -4 20 -10 0 -5 -4 -10 -10 -10 -5 0 -10 -7 -10 -15 0 -13 4 -12 22 5 24 22 53 27 45 8 -2 -7 -1 -22 3 -33 6 -17 0 -22 -44 -35 -45 -14 -58 -25 -123 -105 -40 -50 -71 -96 -68 -102 2 -7 0 -13 -5 -13 -6 0 -11 -35 -11 -77 -1 -54 -4 -67 -8 -43 -7 43 -41 56 -41 16 0 -13 -6 -31 -12 -38 -47 -50 -98 -119 -98 -131 0 -13 57 -35 64 -25 32 43 46 70 46 86 0 27 41 57 52 39 4 -6 8 -19 8 -27 0 -13 -1 -13 -10 0 -8 12 -10 9 -10 -12 0 -16 -5 -28 -11 -28 -7 0 -8 -7 -4 -17 5 -10 9 -34 11 -53 6 -69 17 -102 41 -127 18 -17 22 -28 15 -35 -7 -7 -8 -17 -2 -29 20 -36 30 -70 20 -64 -6 3 -10 -1 -10 -9 0 -8 9 -20 20 -26 15 -8 20 -21 20 -50 0 -22 4 -40 9 -40 5 0 43 -21 86 -46 l77 -47 21 25 c32 35 67 63 67 52 0 -6 -16 -25 -35 -44 -19 -19 -35 -38 -35 -41 0 -3 12 -11 28 -18 15 -7 69 -38 120 -68 51 -30 99 -53 107 -49 14 5 89 102 91 118 1 4 2 13 3 18 0 6 8 10 17 10 14 0 15 -2 3 -17 -13 -17 -12 -17 10 -2 19 12 24 25 26 60 1 31 13 67 39 115 21 38 28 58 17 44 -33 -40 -24 -14 19 59 35 59 40 74 39 124 -1 31 -5 57 -10 57 -5 0 -6 -7 -3 -15 4 -10 0 -15 -11 -15 -10 0 -15 5 -12 13 3 8 -3 34 -14 58 -10 24 -13 36 -6 27 8 -9 18 -13 25 -9 10 6 9 17 -3 50 -18 53 -19 49 3 54 13 4 13 5 -4 6 -12 0 -22 7 -21 14 1 37 -4 49 -18 43 -8 -3 -23 3 -32 13 -10 10 -28 22 -40 25 -26 8 -31 34 -8 42 8 3 24 -1 37 -10 23 -16 66 -20 106 -10 31 9 28 19 -15 37 -53 23 -123 79 -118 95 3 7 0 10 -5 7 -6 -3 -7 -17 -4 -30 7 -27 -12 -71 -19 -45 -2 8 -10 32 -16 52 -14 42 -7 65 13 49 7 -6 15 -8 19 -5 3 3 25 -7 49 -24 65 -44 104 -62 135 -62 26 1 25 2 -11 15 -21 7 -42 18 -45 23 -8 11 -43 26 -57 23 -7 -1 -15 6 -18 15 -5 14 -1 15 31 9 21 -4 40 -10 43 -13 3 -4 12 -8 20 -9 8 -1 26 -5 40 -9 23 -7 22 -6 -8 24 -21 21 -45 33 -77 37 -25 4 -45 11 -45 16 0 16 102 -8 158 -37 29 -15 47 0 21 17 -12 8 -12 10 -1 18 22 14 -6 47 -55 66 -24 9 -43 23 -43 31 0 8 -5 14 -10 14 -6 0 -9 -12 -8 -27 3 -24 -1 -28 -24 -31 -16 -2 -28 1 -28 7 0 6 -16 11 -35 11 -24 0 -35 5 -35 15 0 19 -68 54 -114 57 -31 2 -36 6 -38 28 -2 41 -5 65 -7 70 -14 34 -5 80 25 134 19 34 39 73 45 89 6 15 15 27 20 27 5 0 9 6 9 14 0 8 5 16 11 18 6 2 12 15 12 30 1 14 5 24 9 22 4 -2 9 0 13 6 3 5 2 10 -2 10 -24 0 -4 49 38 92 l48 49 63 -6 c39 -4 73 -14 88 -26 27 -21 107 -61 128 -65 7 -1 20 -8 29 -16 8 -7 36 -20 62 -29 37 -13 50 -23 69 -60 35 -68 39 -134 12 -213 -13 -41 -19 -74 -14 -88 7 -22 8 -21 19 12 11 34 12 34 24 13 13 -25 41 -21 36 5 -2 9 -4 17 -5 17 -1 0 -4 12 -6 28 -3 27 10 38 19 15 3 -8 6 -5 6 6 1 16 3 17 19 5 14 -11 14 -10 -2 9 -13 14 -19 37 -19 68 0 28 -3 41 -8 32 -5 -7 -9 -8 -9 -3 0 6 5 16 12 23 9 9 9 12 -3 12 -8 0 -19 10 -24 23 -6 12 -17 21 -24 19 -8 -2 -11 3 -8 11 3 8 2 18 -1 24 -8 11 -127 82 -470 282 -216 125 -292 166 -240 128z m-98 -1463 c13 -3 37 -5 52 -3 32 2 74 -9 74 -20 0 -22 -50 -51 -88 -53 -45 -1 -45 -1 -43 -65 1 -33 -3 -43 -19 -48 -19 -6 -24 -16 -21 -43 2 -12 -26 -29 -34 -20 -3 2 5 42 16 89 11 46 21 116 23 154 4 92 9 110 13 58 3 -35 9 -44 27 -49z"/>
<path d="M1326 2958 c-146 -254 -262 -466 -258 -470 5 -5 31 -12 58 -17 27 -5 54 -10 59 -11 6 -2 32 0 58 5 53 8 137 -9 120 -26 -5 -5 -21 -5 -39 0 -37 10 -80 4 -112 -17 -56 -36 -151 -296 -152 -415 0 -59 15 -36 51 76 26 82 60 160 59 137 0 -3 -23 -70 -50 -150 -49 -143 -59 -197 -40 -216 5 -5 11 -25 13 -43 2 -18 8 -36 14 -39 12 -9 25 -42 15 -42 -13 1 -37 25 -38 38 -2 26 -5 30 -24 35 -15 4 -20 0 -20 -14 0 -10 5 -19 10 -19 6 0 16 -12 22 -27 7 -16 23 -38 36 -50 24 -24 38 -30 27 -14 -3 5 -1 12 5 16 5 3 10 0 10 -9 0 -18 66 -66 194 -141 87 -51 102 -57 139 -52 43 6 120 54 125 77 1 9 -18 28 -43 43 -25 16 -45 33 -45 39 0 10 19 -2 49 -30 8 -8 25 -12 37 -9 14 2 21 0 17 -6 -4 -7 0 -7 13 -2 10 5 33 8 51 7 24 -2 35 4 44 19 9 17 13 19 20 8 7 -11 9 -11 9 -1 0 7 5 10 10 7 6 -4 8 -10 6 -14 -3 -4 18 -4 47 0 72 11 80 13 97 24 8 5 20 10 25 11 6 0 16 2 23 2 6 1 11 5 11 10 -3 19 2 25 11 12 8 -13 10 -13 10 2 0 11 5 15 15 12 15 -6 20 14 16 56 -2 13 -1 13 8 0 6 -8 11 -10 12 -5 5 37 7 55 10 93 2 23 6 42 9 42 3 0 7 19 9 42 l2 42 -21 -27 c-12 -15 -27 -54 -33 -87 -12 -57 -41 -109 -54 -96 -4 3 2 13 13 20 16 13 17 17 5 28 -10 9 -12 9 -7 1 4 -7 2 -13 -3 -13 -6 0 -11 6 -11 14 0 8 -5 18 -12 22 -8 5 -9 2 -5 -9 7 -20 3 -21 -25 -6 -19 10 -20 9 -15 -10 7 -28 5 -27 -22 10 -22 30 -22 30 -2 19 16 -8 21 -8 21 2 0 9 3 9 10 -2 8 -12 10 -11 10 8 0 12 4 22 10 22 5 0 20 16 32 35 15 23 31 35 46 35 37 0 29 45 -13 72 -23 16 -40 39 -53 73 -18 46 -21 50 -50 47 -23 -3 -33 2 -42 17 -16 30 -63 28 -79 -3 -8 -14 -25 -26 -42 -28 -15 -3 -26 -1 -23 4 3 4 0 8 -6 8 -6 0 -5 11 5 30 15 29 54 44 100 39 24 -3 125 12 125 18 0 2 -7 11 -15 20 -19 19 -9 39 11 22 18 -15 31 -3 36 31 3 24 6 25 66 24 34 -1 62 2 62 7 0 18 50 41 75 35 32 -8 32 -33 0 -94 -14 -26 -25 -62 -25 -80 0 -37 28 -129 41 -138 5 -3 6 3 2 12 -4 12 -3 15 5 10 8 -4 12 0 12 11 1 16 3 15 20 -6 12 -13 26 -21 35 -17 8 3 15 1 15 -4 0 -5 11 -9 24 -8 19 2 36 22 79 96 58 99 58 99 15 140 -10 9 -18 22 -18 29 0 6 -8 16 -17 22 -10 5 -15 13 -11 17 4 4 14 1 23 -6 8 -7 15 -8 15 -3 0 16 -35 43 -57 43 -25 0 -59 35 -44 45 7 4 3 20 -11 45 -13 21 -26 34 -29 28 -4 -6 -12 -4 -20 6 -8 10 -32 34 -53 54 -22 20 -48 45 -58 54 -9 10 -25 15 -33 12 -9 -4 -24 1 -33 9 -52 49 -62 56 -62 47 0 -5 -5 -10 -11 -10 -13 0 -7 22 8 27 6 2 19 -4 29 -14 9 -10 20 -17 23 -16 3 1 11 -6 16 -15 10 -18 35 -28 35 -14 0 4 -9 16 -21 25 -11 10 -19 21 -16 24 7 6 67 -37 115 -81 l33 -31 -14 28 c-8 16 -32 44 -52 63 -54 49 -24 41 80 -21 49 -29 92 -52 94 -49 7 6 -43 43 -66 50 -13 3 -23 10 -23 16 0 5 -4 6 -10 3 -5 -3 -10 -2 -10 4 0 5 -16 19 -36 31 -46 29 -37 37 14 11 22 -11 43 -17 47 -13 5 4 5 2 1 -5 -3 -6 -1 -15 5 -18 19 -12 22 4 5 29 -10 16 -12 27 -5 31 6 4 3 12 -8 21 -17 13 -17 14 1 8 16 -6 17 -4 7 14 -7 12 -8 22 -4 22 4 0 2 5 -5 12 -7 7 -12 22 -12 35 0 13 -4 23 -10 23 -5 0 -10 8 -10 19 0 10 -8 21 -18 23 -14 4 -17 13 -14 51 3 37 8 47 25 50 18 3 17 5 -5 6 -16 0 -28 -4 -28 -11 0 -9 -3 -8 -9 2 -15 22 -4 29 37 23 l37 -5 -30 21 c-16 11 -31 16 -33 11 -2 -5 -9 -4 -17 3 -10 9 -10 15 -1 26 8 12 8 13 -1 7 -7 -4 -13 -3 -13 3 0 6 -10 15 -21 22 -17 9 -24 8 -31 -2 -7 -11 -8 -9 -6 6 3 18 -36 43 -454 285 -14 8 -55 -57 -282 -452z"/>
<path d="M6454 3345 c-4 -29 -15 -55 -30 -68 -21 -21 -58 -130 -47 -141 10 -10 23 5 23 27 1 44 37 70 112 81 53 8 68 25 68 78 0 48 -11 59 -68 64 l-51 6 -7 -47z"/>
<path d="M20 3284 c46 -7 102 -25 96 -31 -10 -10 -81 -6 -79 4 1 5 -7 9 -18 9 -10 0 -19 -6 -19 -13 0 -7 6 -13 14 -13 8 0 18 -4 21 -10 3 -6 -1 -7 -10 -4 -11 5 -14 2 -9 -9 6 -17 28 -23 109 -32 49 -5 50 -5 20 10 l-30 14 33 1 c22 0 40 -8 55 -24 12 -12 44 -33 71 -45 53 -23 57 -40 5 -22 -49 17 -62 15 -50 -8 6 -10 14 -44 17 -75 4 -31 10 -56 14 -56 15 0 27 55 20 88 -6 24 -4 32 6 32 8 0 14 -10 14 -24 0 -38 11 -37 58 4 l42 38 -39 20 c-21 11 -50 32 -63 45 -32 32 -88 61 -88 47 0 -6 -5 -8 -10 -5 -6 4 -8 10 -5 15 3 5 0 12 -6 16 -8 4 -9 3 -5 -4 12 -19 4 -17 -72 21 -19 9 -52 16 -75 16 -24 -1 -31 -3 -17 -5z"/>
<path d="M4932 3082 c-61 -106 -73 -132 -68 -160 2 -18 11 -39 20 -47 8 -8 20 -39 26 -68 11 -54 30 -96 30 -68 0 20 15 3 15 -17 0 -9 5 -16 12 -15 7 2 12 -7 11 -20 -2 -42 2 -47 33 -47 38 0 30 -15 -12 -24 -25 -5 -30 -9 -23 -23 4 -10 8 -33 10 -51 5 -71 14 -101 29 -95 16 6 21 33 6 33 -6 0 -9 18 -8 40 2 22 -1 40 -6 40 -4 0 -5 5 -2 10 3 6 1 10 -6 10 -7 0 -9 3 -6 6 4 4 12 2 19 -4 10 -7 20 -5 37 10 21 16 22 21 10 29 -10 6 -7 9 14 9 23 0 27 3 22 19 -7 22 10 38 18 17 10 -25 66 -30 89 -9 11 10 22 17 24 16 11 -8 23 -1 28 15 3 10 4 6 3 -8 -1 -18 -9 -26 -25 -28 -13 -2 -26 -10 -28 -17 -4 -9 -18 -12 -44 -10 -25 3 -42 -1 -50 -10 -10 -13 -6 -14 31 -9 24 3 59 12 77 21 19 8 43 12 54 9 16 -4 18 -2 9 7 -16 16 -14 46 4 63 10 10 15 11 15 4 0 -7 7 -9 16 -6 9 4 23 1 32 -6 13 -11 15 -10 10 8 -4 16 -1 21 11 20 9 0 15 5 13 12 -1 6 4 12 12 12 30 0 52 50 36 80 -5 9 -11 28 -14 42 -4 25 -4 25 26 11 16 -8 32 -13 35 -10 3 3 -15 15 -40 26 -24 11 -47 27 -51 36 -6 18 5 20 21 4 9 -9 11 -7 9 6 -1 9 -11 22 -20 27 -11 6 -14 13 -8 17 9 6 -355 221 -374 221 -5 0 -42 -57 -82 -128z"/>
<path d="M0 2995 c0 -142 3 -175 14 -175 26 0 171 80 184 101 13 20 12 21 -13 15 -21 -5 -26 -4 -22 7 3 7 -4 24 -14 38 -15 20 -19 21 -19 7 0 -11 -8 -18 -19 -18 -29 0 -34 17 -16 53 10 17 19 45 21 61 4 32 -12 60 -29 49 -6 -3 -7 -1 -3 5 8 14 -25 32 -58 32 l-26 0 0 -175z"/>
<path d="M5548 3139 c7 -8 45 -17 85 -21 39 -4 115 -14 167 -23 52 -8 163 -24 245 -34 83 -11 168 -22 190 -25 22 -3 72 -10 110 -15 89 -13 85 -14 85 4 0 10 -10 15 -30 15 -16 0 -30 5 -30 10 0 6 17 8 43 4 28 -3 37 -2 27 4 -8 6 -82 17 -165 26 -172 18 -188 19 -181 8 5 -8 150 -25 206 -24 13 0 33 -7 45 -15 20 -15 20 -15 0 -9 -17 4 -225 27 -264 29 -8 0 -16 9 -19 19 -3 13 -15 19 -46 20 -22 1 -57 3 -76 5 -19 2 -89 7 -155 12 -66 6 -149 13 -185 16 -54 6 -63 4 -52 -6z"/>
<path d="M7420 3135 c-14 -17 -9 -18 48 -15 26 1 41 -6 74 -40 34 -33 39 -43 27 -51 -8 -5 -18 -9 -24 -9 -5 0 -4 4 4 9 18 12 -9 26 -73 41 -35 8 -51 7 -66 -2 -25 -16 -25 -27 -2 -35 9 -3 29 -15 45 -25 26 -19 38 -13 17 8 -7 7 -6 11 5 11 8 0 15 -8 15 -18 0 -19 28 -39 52 -39 9 0 9 3 -2 10 -8 5 -11 10 -6 10 5 0 5 6 0 13 -5 7 -1 5 8 -5 9 -10 19 -24 22 -31 5 -9 7 -9 12 1 8 16 34 -3 34 -25 0 -8 6 -13 13 -10 6 2 11 10 9 16 -1 6 5 14 13 17 8 4 15 14 15 24 0 11 4 21 10 25 5 3 6 13 3 23 -26 71 -214 143 -253 97z"/>
<path d="M367 3018 c-35 -37 -45 -54 -37 -62 10 -10 23 0 33 28 4 13 67 -3 67 -17 0 -7 -12 -18 -27 -25 -16 -7 -40 -23 -55 -35 l-28 -23 20 -40 c14 -28 18 -50 14 -72 -8 -40 -24 -42 -19 -2 6 44 -7 44 -46 -2 -19 -23 -41 -48 -50 -58 -12 -13 -13 -19 -3 -28 21 -19 41 -14 67 18 14 17 28 30 32 30 3 0 -1 -13 -10 -30 -12 -24 -13 -30 -2 -30 18 0 67 52 67 72 0 19 18 34 28 23 3 -3 0 -10 -7 -14 -11 -7 -11 -9 0 -13 17 -6 -20 -68 -41 -68 -8 0 -22 -5 -30 -11 -13 -9 -12 -10 3 -5 9 3 17 1 17 -4 0 -5 20 -12 45 -15 24 -4 50 -14 57 -23 11 -13 10 -14 -12 -7 -37 12 -214 33 -224 27 -5 -3 -6 1 -1 8 6 10 4 12 -9 7 -10 -4 -20 -7 -22 -7 -2 0 -4 -7 -4 -15 0 -9 10 -15 23 -16 20 -1 20 -1 -4 -10 -15 -6 -30 -20 -33 -32 -5 -19 -7 -20 -20 -7 -9 8 -17 32 -20 52 -2 21 -7 42 -11 48 -8 13 -105 13 -105 -1 0 -5 -4 -7 -10 -4 -15 9 -12 -27 4 -47 9 -12 27 -18 56 -18 l42 0 -16 -24 c-19 -29 -15 -32 44 -35 54 -2 174 -58 178 -83 4 -21 -23 -25 -31 -4 -8 20 -88 44 -190 58 -86 10 -89 12 -70 27 20 17 20 17 -2 33 l-23 17 -1 -94 c-1 -70 1 -95 11 -95 9 0 9 -3 0 -12 -7 -7 -12 -16 -12 -22 0 -5 3 -6 7 -3 3 4 12 2 20 -5 16 -13 24 -7 25 18 1 13 10 19 28 20 23 1 25 -2 22 -37 -3 -27 -9 -39 -24 -42 -15 -4 -18 -11 -14 -29 6 -20 5 -20 -8 4 -11 19 -21 25 -36 21 -19 -5 -20 -13 -19 -114 2 -100 3 -109 21 -109 16 0 17 -3 8 -20 -6 -11 -15 -18 -21 -15 -5 4 -9 -11 -9 -35 0 -32 7 -47 32 -73 22 -22 38 -55 53 -107 12 -42 20 -81 17 -88 -2 -7 -17 -19 -33 -28 -69 -35 -69 -35 -69 -186 l0 -138 25 6 c30 7 33 -6 5 -24 -30 -18 -25 -26 31 -57 48 -25 52 -26 67 -11 14 14 14 16 2 11 -13 -4 -15 12 -11 120 3 134 -1 144 -45 110 -27 -20 -34 -19 -33 8 1 12 -3 34 -9 49 -10 24 -9 29 9 38 10 6 25 8 31 4 7 -4 8 -3 4 4 -4 7 -3 12 3 12 5 0 17 7 26 16 12 13 13 19 4 24 -8 6 -3 17 20 39 17 17 31 36 30 43 0 11 -2 11 -6 0 -4 -10 -8 -10 -19 -1 -17 14 -19 61 -2 58 7 -1 21 1 30 5 9 4 25 3 35 -2 15 -8 18 -6 18 14 0 28 0 28 -24 12 -11 -6 -26 -8 -37 -3 -17 7 -17 8 6 15 14 5 21 9 15 9 -5 1 -3 5 5 11 8 5 12 11 9 15 -8 7 -65 -17 -70 -30 -5 -14 -18 -8 -40 18 -26 31 -24 37 11 37 l31 0 -43 41 c-32 30 -39 42 -29 48 11 7 11 10 0 14 -10 4 -8 6 4 6 19 1 59 -21 95 -53 17 -15 25 -17 34 -8 9 9 9 12 -2 12 -7 0 -11 3 -8 6 4 3 16 1 27 -6 18 -9 21 -8 21 10 0 12 -7 20 -18 20 -27 0 -65 84 -66 146 -1 27 3 31 24 31 40 0 232 56 219 64 -8 5 -7 9 3 15 8 5 25 24 37 42 18 26 26 31 32 20 5 -7 5 -14 1 -16 -4 -1 -7 -37 -7 -80 0 -57 5 -86 18 -105 28 -43 59 -67 88 -67 23 0 33 10 64 65 33 60 35 69 25 100 -10 31 -73 93 -123 121 -17 10 -14 12 29 19 27 4 57 14 68 23 31 29 56 89 56 138 0 40 2 45 18 39 29 -13 72 -18 72 -9 1 34 -68 209 -92 236 -24 27 -26 28 -9 4 12 -16 21 -38 21 -50 0 -12 5 -27 10 -32 14 -14 2 -42 -21 -49 -25 -8 -40 2 -32 21 5 13 -1 15 -34 13 -42 -3 -56 6 -81 49 -8 14 -8 22 -1 22 5 0 7 5 4 11 -5 7 -13 5 -24 -5 -23 -21 -30 -20 -24 4 3 10 8 18 12 17 3 -1 7 3 9 8 4 15 -36 14 -42 -1 -3 -8 -16 -14 -28 -14 -22 0 -21 1 6 19 17 11 33 18 38 15 4 -3 8 -1 8 5 0 6 26 9 62 8 92 -3 89 14 -18 123 -48 50 -92 90 -98 89 -6 0 -33 -23 -59 -51z"/>
<path d="M720 2932 c49 -66 113 -178 139 -246 l28 -69 46 81 c26 45 47 85 47 91 0 5 -53 40 -117 77 -65 37 -129 75 -143 83 l-25 16 25 -33z"/>
<path d="M3008 2814 c-47 -82 -95 -165 -105 -184 -11 -19 -72 -125 -136 -235 -358 -623 -436 -759 -434 -761 1 -1 67 -39 147 -85 80 -45 237 -136 350 -201 130 -75 211 -116 222 -112 12 4 16 1 13 -8 -3 -8 8 -21 27 -33 163 -96 375 -215 385 -215 6 0 16 12 22 28 6 15 25 50 43 77 63 102 428 741 428 751 0 3 9 17 20 32 16 22 18 33 11 59 -10 35 -9 37 29 46 16 4 35 24 53 52 28 47 35 71 17 60 -6 -4 -7 -11 -4 -17 5 -7 2 -8 -5 -3 -8 4 -18 -1 -26 -13 -8 -11 -24 -22 -35 -25 -20 -5 -20 -4 -6 18 30 45 2 34 -31 -12 -19 -27 -37 -48 -41 -48 -4 0 -6 -3 -5 -7 2 -4 -3 -5 -11 -2 -7 3 -30 -6 -51 -20 -32 -22 -33 -31 -4 -28 4 1 5 -8 2 -18 -3 -13 -14 -20 -28 -20 -13 0 -30 -7 -39 -15 -8 -8 -21 -15 -28 -15 -8 -1 -6 -6 6 -15 17 -13 18 -15 3 -15 -9 0 -17 4 -17 9 0 5 -8 8 -17 6 -10 -1 -12 0 -5 2 22 8 12 25 -12 21 -18 -4 -27 1 -35 20 -10 20 -17 23 -41 19 -33 -7 -43 2 -29 23 5 8 9 10 9 5 0 -6 14 -12 32 -13 18 -2 36 -8 40 -15 6 -9 8 -9 8 1 0 6 11 12 24 12 28 0 42 15 25 26 -8 4 -9 3 -5 -4 14 -23 -14 -11 -44 18 -32 32 -53 39 -44 16 6 -16 -46 -14 -101 4 -20 7 -42 9 -50 6 -8 -3 -21 1 -29 9 -16 16 -48 20 -43 6 2 -9 -9 -11 -28 -6 -54 16 -70 24 -67 35 1 7 -5 18 -15 25 -17 13 -17 14 0 20 16 7 16 8 1 20 -16 11 -16 12 0 18 9 4 16 12 16 18 0 7 -3 10 -6 6 -3 -3 -17 6 -30 20 -25 27 -31 57 -14 68 6 3 10 -3 10 -14 0 -19 11 -26 33 -22 5 1 5 -4 1 -10 -10 -16 17 -29 38 -18 12 6 18 6 18 0 0 -14 52 -61 67 -61 23 0 14 38 -13 59 -19 15 -22 21 -11 21 9 0 19 -4 22 -10 3 -5 15 -15 27 -21 18 -9 19 -8 13 10 -5 17 -2 21 14 21 25 0 26 6 6 26 -17 18 -20 44 -4 44 5 0 8 -4 5 -8 -2 -4 4 -13 14 -20 17 -10 18 -9 9 20 -9 32 -19 49 -19 31 0 -5 -7 -10 -15 -10 -16 0 -20 12 -7 20 4 2 1 2 -7 0 -7 -2 -19 1 -26 7 -8 7 -15 7 -19 2 -3 -6 1 -13 10 -16 8 -3 13 -10 10 -15 -9 -13 -66 17 -66 35 0 8 5 14 10 14 6 0 5 8 -2 20 -11 17 -10 22 2 30 13 8 13 10 -2 10 -9 0 -18 -6 -21 -12 -2 -7 -3 2 -2 21 1 18 7 36 12 40 15 9 -3 51 -22 51 -8 0 -15 7 -15 15 0 15 -29 10 -41 -8 -10 -14 -39 -1 -39 17 0 10 7 13 21 11 11 -2 31 3 44 11 13 9 28 15 32 14 4 0 10 6 11 15 3 14 -2 16 -30 10 -49 -11 -60 -11 -65 1 -2 7 10 17 27 22 16 6 30 18 30 26 0 8 10 22 21 30 18 12 20 21 15 50 -5 27 -12 36 -26 36 -23 0 -60 -34 -60 -55 0 -7 -6 -18 -14 -22 -7 -4 -19 -18 -25 -31 -13 -24 -46 -27 -46 -4 0 6 -3 12 -8 12 -4 0 -22 13 -40 30 -27 25 -30 32 -17 40 11 7 16 5 18 -6 3 -12 7 -13 18 -3 10 8 11 15 3 25 -5 7 -11 28 -11 46 0 18 -9 43 -20 54 -10 12 -20 32 -21 45 -1 13 -13 36 -27 50 -14 14 -30 34 -35 44 -9 15 -24 -5 -97 -131z"/>
<path d="M4635 2563 c-87 -153 -160 -282 -163 -287 -3 -6 3 -6 14 -1 10 4 36 8 57 10 22 1 43 8 49 16 6 10 7 7 2 -11 -4 -14 -8 -32 -9 -40 0 -9 -4 -21 -8 -27 -6 -10 -1 -11 32 -4 2 1 -2 8 -9 16 -10 12 -10 15 4 15 9 0 16 -5 16 -12 0 -6 3 -8 6 -5 4 4 3 12 -3 19 -17 22 -13 57 8 68 13 8 19 7 19 0 0 -6 -7 -13 -15 -16 -22 -9 -9 -23 15 -17 12 3 20 0 20 -6 0 -7 5 -9 10 -6 6 4 10 3 9 -2 -1 -4 -1 -15 0 -23 1 -12 3 -12 10 -2 7 11 11 11 24 -2 16 -17 38 -22 36 -8 -5 28 2 35 16 16 14 -19 15 -19 21 4 3 12 10 22 14 22 4 0 5 11 2 25 -3 20 -1 24 12 19 9 -3 13 -11 9 -17 -3 -6 -1 -7 6 -3 6 4 9 16 6 27 -4 11 -2 19 6 19 6 0 18 8 25 18 13 16 14 16 7 -3 -3 -11 -3 -17 2 -13 4 4 15 2 23 -5 13 -10 14 -9 8 1 -5 8 -9 28 -10 45 -5 62 -30 162 -44 174 -8 6 -15 24 -17 40 -1 15 -5 35 -9 43 -15 38 -26 115 -18 118 11 3 -7 72 -18 72 -4 0 -78 -125 -165 -277z"/>
<path d="M8356 2808 c5 -8 2 -9 -9 -5 -20 7 -22 -4 -5 -21 8 -8 8 -15 -2 -26 -7 -9 -16 -14 -20 -11 -5 3 -6 -4 -3 -15 6 -23 -51 -100 -74 -100 -13 0 -13 -3 -3 -15 10 -12 10 -15 -4 -15 -18 0 -23 -45 -6 -55 6 -3 10 -13 10 -21 0 -12 -3 -12 -20 -2 -17 11 -22 10 -30 -2 -6 -10 -1 -19 20 -31 15 -10 31 -22 34 -28 14 -22 36 -11 36 18 0 26 3 28 31 25 17 -2 34 -6 39 -9 18 -11 21 17 3 37 -18 21 -18 21 2 16 18 -4 20 1 22 39 2 44 30 82 61 83 14 0 16 16 2 25 -7 4 -7 12 0 25 18 33 11 50 -27 68 -21 9 -39 20 -41 25 -2 4 -8 7 -13 7 -6 0 -7 -5 -3 -12z"/>
<path d="M6332 2438 l-110 -192 91 -53 92 -53 9 26 c5 17 13 23 23 20 8 -3 19 -6 24 -6 6 0 7 -4 4 -10 -3 -5 0 -7 8 -4 15 5 40 -19 43 -43 2 -10 -3 -12 -14 -8 -38 15 -45 15 -19 0 15 -9 25 -20 22 -25 -4 -6 -2 -10 3 -10 13 0 22 25 17 48 -3 15 1 19 15 15 17 -4 17 -8 4 -39 -15 -37 -22 -29 61 -79 14 -9 25 -13 25 -11 0 3 -6 35 -14 73 -8 37 -17 86 -21 108 -6 36 -8 38 -20 21 -9 -11 -19 -15 -27 -10 -9 5 -8 2 2 -11 14 -17 13 -18 -5 -11 -11 4 -32 12 -47 18 -36 13 -45 44 -21 71 10 12 36 48 57 81 38 58 55 64 59 17 1 -24 10 -27 25 -8 12 13 5 58 -9 68 -15 10 83 83 109 81 15 -1 22 3 19 11 -2 6 -12 11 -21 9 -10 -2 -28 4 -41 12 -14 9 -37 16 -53 16 -15 0 -59 16 -98 35 -38 19 -72 35 -76 35 -3 0 -56 -86 -116 -192z"/>
<path d="M8785 2543 c28 -26 28 -38 1 -52 -17 -10 -22 -19 -18 -38 5 -24 3 -25 -29 -18 -29 7 -32 6 -21 -7 6 -8 9 -18 5 -21 -3 -4 0 -7 8 -7 12 0 12 -2 0 -9 -7 -5 -31 -6 -52 -4 -42 6 -49 -2 -21 -23 16 -13 16 -13 -2 -14 -18 0 -18 -1 -3 -18 10 -10 17 -22 17 -26 0 -4 10 -22 22 -39 l22 -30 -22 5 c-21 6 -26 -1 -23 -29 1 -10 -5 -10 -23 -4 -13 6 -27 7 -30 4 -3 -3 -12 0 -21 7 -9 7 -15 8 -15 2 0 -6 5 -12 12 -14 8 -3 7 -9 -4 -18 -14 -13 -12 -17 16 -36 43 -28 383 -224 390 -224 3 0 6 120 6 266 0 232 -2 265 -15 260 -8 -3 -14 -1 -12 5 1 5 -27 26 -63 45 -41 23 -56 28 -40 14 20 -17 12 -15 -40 10 -43 20 -58 25 -45 13z"/>
<path d="M5011 2335 c-1 -5 6 -35 15 -65 8 -30 17 -63 19 -73 2 -9 7 -22 11 -28 5 -8 -1 -10 -18 -7 -21 4 -24 1 -20 -19 2 -13 0 -23 -5 -23 -13 0 -8 -52 9 -108 14 -46 31 -56 36 -22 2 14 -2 20 -15 21 -14 0 -15 2 -3 6 8 3 18 11 23 17 4 7 9 3 13 -11 4 -13 10 -23 15 -23 14 0 10 27 -7 44 -10 10 -13 24 -9 37 5 16 4 19 -6 14 -9 -6 -11 -2 -7 13 3 12 1 23 -6 25 -6 2 -9 7 -6 10 13 14 31 -13 33 -46 1 -20 5 -37 10 -37 4 0 7 -6 7 -14 0 -8 5 -18 11 -21 14 -9 27 4 13 13 -6 4 -22 45 -37 92 -27 91 -76 221 -76 205z"/>
<path d="M8020 2250 c0 -6 -4 -8 -10 -5 -5 3 -10 0 -10 -9 0 -8 -4 -16 -8 -18 -8 -3 -81 -126 -260 -438 -30 -52 -69 -119 -87 -149 -29 -48 -31 -57 -18 -70 12 -11 17 -11 23 -2 5 9 9 6 13 -8 3 -12 11 -20 17 -19 19 5 23 -19 5 -26 -19 -7 -58 17 -47 29 4 5 2 5 -4 2 -7 -4 -15 1 -18 10 -6 14 -10 12 -25 -13 -9 -16 -21 -38 -25 -48 -7 -20 -7 -20 14 -1 l22 20 -13 -27 c-6 -15 -16 -25 -20 -22 -5 3 -6 -2 -3 -10 3 -9 11 -16 17 -16 6 0 7 3 4 6 -9 9 12 46 22 40 4 -3 16 1 27 8 13 10 22 11 35 3 14 -8 26 -7 51 5 20 10 26 17 16 17 -9 1 -20 -3 -23 -9 -3 -5 -14 -10 -23 -10 -14 1 -14 3 3 13 11 7 36 17 55 22 27 8 36 17 38 37 2 14 -4 32 -12 41 -8 8 -12 18 -8 22 4 3 -7 4 -23 0 -23 -5 -26 -4 -14 4 9 6 37 12 63 13 25 2 46 6 46 11 0 4 8 7 18 7 9 1 34 7 55 14 32 12 36 12 26 0 -17 -20 -6 -17 21 6 13 11 28 20 34 20 6 0 3 -7 -6 -14 -22 -16 -23 -26 -2 -26 8 0 12 -4 9 -10 -3 -5 0 -10 7 -10 10 0 9 -3 -2 -9 -8 -6 -17 -8 -21 -5 -4 2 -10 0 -14 -5 -3 -6 -13 -7 -23 -4 -14 5 -14 3 3 -17 17 -19 17 -22 3 -17 -9 3 -21 0 -27 -7 -8 -10 -4 -11 21 -8 20 3 29 1 24 -6 -3 -6 -1 -14 5 -18 8 -4 9 -3 5 4 -8 13 27 34 63 40 21 3 23 1 11 -13 -12 -15 -11 -16 14 -9 19 4 31 2 37 -7 6 -10 8 -7 6 9 0 12 -4 22 -7 22 -3 0 -7 12 -8 28 -1 20 1 23 8 12 7 -11 12 -12 20 -4 8 8 3 15 -19 24 -31 12 -40 33 -21 45 6 4 9 1 8 -6 -2 -7 10 -19 25 -27 38 -18 70 -71 55 -89 -6 -8 -8 -16 -4 -20 3 -3 6 0 6 8 0 8 7 4 16 -9 9 -13 14 -28 11 -35 -2 -7 2 -18 9 -25 18 -17 18 0 0 41 -44 103 -44 103 -13 137 12 14 23 32 25 40 2 8 8 19 13 24 11 12 49 15 49 4 0 -4 -10 -8 -22 -8 -18 0 -20 -2 -8 -10 18 -11 39 5 37 30 -1 10 -5 16 -9 14 -4 -3 -8 0 -8 6 0 6 11 15 25 20 28 11 34 22 8 14 -15 -5 -15 -4 -3 4 28 18 63 25 55 12 -6 -9 -3 -9 13 -1 12 6 24 16 27 21 3 6 11 10 16 10 6 0 7 -5 3 -12 -4 -7 -3 -8 5 -4 6 4 9 12 6 17 -4 5 -1 9 4 9 6 0 11 -8 11 -18 0 -11 -13 -23 -35 -31 -19 -7 -33 -17 -30 -22 3 -5 18 -1 33 8 24 16 26 16 14 1 -12 -14 -10 -16 10 -10 13 3 28 12 34 20 10 14 26 14 66 -3 13 -5 15 -2 11 16 -6 20 -5 21 9 8 9 -7 13 -18 11 -23 -4 -5 10 -6 32 -2 36 7 37 6 33 -17 -4 -18 -1 -24 9 -20 7 3 10 9 7 14 -3 5 0 9 6 9 6 0 9 4 6 9 -4 5 3 7 14 4 11 -3 20 -9 20 -14 0 -5 -6 -6 -13 -3 -18 6 -18 -22 0 -56 7 -14 13 -21 13 -16 0 5 7 3 15 -4 10 -9 15 -9 15 -1 0 6 -5 11 -11 11 -5 0 -7 5 -3 12 4 6 3 8 -4 4 -6 -3 -13 -2 -17 4 -3 5 1 10 10 10 9 0 13 4 10 10 -3 6 1 7 10 4 11 -5 14 -2 9 12 -4 15 -4 16 4 5 5 -8 9 -24 8 -35 -2 -15 3 -22 16 -23 21 -2 23 8 6 26 -11 10 -10 11 5 6 10 -4 17 -2 17 4 0 6 -4 11 -10 11 -5 0 -10 5 -10 12 0 6 9 3 21 -8 11 -10 16 -20 10 -22 -6 -2 -11 -11 -11 -19 0 -9 6 -13 15 -10 8 4 17 2 20 -3 4 -6 0 -10 -7 -10 -9 0 -9 -3 2 -10 8 -5 11 -10 6 -10 -5 0 -3 -6 3 -13 6 -8 7 -17 3 -22 -4 -4 0 -6 8 -3 29 10 15 66 -31 121 -24 28 -37 47 -30 42 10 -6 12 -4 7 4 -5 7 -14 10 -22 7 -8 -3 -13 0 -11 6 1 6 -11 16 -28 22 -16 6 -36 17 -43 23 -7 7 -20 13 -28 13 -8 0 -23 11 -35 24 -33 38 -92 60 -127 48 -22 -7 -33 -7 -42 1 -10 9 -11 9 -7 1 4 -7 0 -15 -8 -18 -18 -7 -31 -4 -27 7 1 4 -1 7 -5 7 -5 0 -9 12 -10 27 -1 17 2 22 7 13 12 -19 40 -22 33 -4 -3 8 -9 12 -13 9 -5 -3 -6 3 -3 13 3 14 -11 26 -64 54 -77 40 -98 40 -81 2 9 -18 14 -21 21 -12 6 9 7 7 4 -7 -3 -17 1 -21 26 -23 39 -3 49 -12 14 -12 -15 0 -27 -3 -27 -6 0 -16 23 -44 36 -44 9 0 12 -5 8 -12 -5 -9 -3 -9 9 1 14 11 18 11 24 -4 4 -11 0 -22 -10 -29 -8 -6 -24 -17 -34 -24 -10 -7 -12 -10 -4 -6 9 5 12 3 7 -4 -5 -9 -13 -9 -29 -1 -12 7 -24 15 -27 18 -3 3 -15 12 -28 19 -19 10 -23 10 -21 0 4 -32 -2 -47 -16 -42 -8 4 -15 10 -15 16 0 5 5 6 12 2 7 -4 8 -3 4 5 -10 16 -39 -7 -32 -25 7 -19 -10 -26 -26 -11 -20 20 -40 10 -28 -14 9 -15 7 -19 -5 -19 -19 0 -47 25 -38 34 12 12 -23 6 -42 -7 -27 -18 -57 -29 -50 -18 3 5 2 11 -2 14 -5 2 -2 2 5 1 6 -2 19 -1 27 2 14 6 13 8 -2 21 -10 8 -13 12 -6 9 6 -4 16 1 21 10 5 9 15 14 21 10 6 -4 9 -12 5 -17 -3 -5 -10 -7 -15 -4 -5 4 -9 1 -9 -4 0 -14 17 -14 25 -1 4 6 10 8 14 6 4 -3 12 -1 19 3 9 5 5 12 -13 21 -14 8 -24 19 -21 26 5 14 -21 40 -31 30 -3 -3 -1 -6 6 -6 7 0 9 -5 5 -11 -10 -16 -25 3 -28 37 -2 23 7 38 41 72 24 23 48 42 54 42 5 0 8 4 5 9 -3 5 1 11 9 15 8 3 15 12 15 21 0 8 5 15 11 15 5 0 7 5 4 11 -4 6 -9 8 -12 5 -3 -2 -12 2 -22 10 -34 29 -101 65 -101 54z"/>
<path d="M4929 2094 c-13 -15 -39 -33 -56 -40 -18 -8 -33 -20 -32 -27 0 -9 2 -9 6 1 2 6 9 12 14 12 4 0 6 -6 3 -14 -9 -23 30 -55 51 -44 12 8 22 5 37 -12 19 -21 20 -22 2 -16 -15 5 -19 1 -19 -18 0 -16 4 -21 11 -16 13 12 42 -20 38 -43 -1 -9 4 -24 11 -33 17 -24 47 -11 42 18 -8 47 -31 118 -39 118 -4 0 -5 7 -2 15 4 8 -1 27 -10 41 -10 15 -15 34 -11 47 5 18 4 19 -5 7 -10 -12 -11 -11 -7 8 7 29 -4 28 -34 -4z"/>
<path d="M6115 2060 c3 -5 2 -10 -3 -10 -12 0 -73 -115 -65 -124 3 -3 2 -6 -4 -6 -10 0 -116 -173 -196 -322 l-37 -67 28 -4 c25 -4 25 -4 -5 -6 -29 -1 -37 -9 -88 -97 -31 -53 -55 -98 -52 -100 2 -2 29 -6 61 -8 31 -2 60 -7 64 -11 4 -4 -27 -5 -68 -1 -52 5 -70 4 -60 -4 13 -8 12 -10 -5 -10 -23 0 -53 -52 -34 -59 6 -2 1 -8 -11 -15 -12 -6 -35 -34 -51 -63 l-30 -52 33 -10 33 -10 -38 2 c-37 1 -61 -15 -53 -38 1 -5 -4 -15 -13 -22 -14 -10 -13 -13 9 -23 l25 -10 -27 5 c-23 4 -30 -1 -53 -41 -15 -25 -24 -48 -21 -51 3 -3 -5 -13 -17 -23 -22 -18 -22 -18 38 -36 33 -10 62 -19 65 -19 3 -1 12 -4 20 -8 8 -3 22 -8 30 -10 10 -4 8 -6 -6 -6 -11 -1 -24 2 -28 6 -3 4 -16 8 -29 10 -36 6 -6 -13 43 -26 25 -7 61 -14 81 -15 19 -1 40 -6 46 -9 6 -4 46 -7 88 -6 42 1 79 -2 82 -5 4 -3 -7 -6 -23 -7 -16 0 -56 -2 -89 -3 -33 -1 -70 2 -81 7 -14 6 -28 5 -40 -2 -17 -11 -17 -11 4 -6 18 5 22 2 23 -17 1 -13 1 -29 0 -37 -2 -8 2 -10 11 -5 19 12 80 15 73 4 -3 -6 1 -7 10 -4 10 4 15 2 13 -6 -2 -9 13 -14 45 -16 26 -2 47 1 47 5 0 5 -20 7 -45 6 -35 -1 -42 1 -34 11 7 8 19 10 32 5 12 -4 32 -6 45 -5 23 1 27 -4 14 -22 -9 -15 -81 -23 -109 -13 -11 4 -34 4 -50 -1 l-28 -9 30 1 c17 1 35 -1 41 -4 5 -4 35 -7 65 -7 30 -1 68 -2 84 -2 93 -4 147 2 174 19 20 12 25 12 33 1 8 -11 9 -10 4 4 -3 11 0 17 10 17 8 0 12 -4 9 -10 -3 -5 -2 -10 4 -10 5 0 13 5 16 10 4 6 10 8 15 5 5 -3 27 2 50 11 22 9 44 14 47 10 3 -3 11 -1 18 4 8 7 12 5 12 -5 0 -19 -50 -38 -78 -30 -19 6 -20 5 -8 -7 7 -8 21 -13 31 -10 10 2 18 -1 18 -7 0 -6 -3 -10 -7 -9 -13 2 -65 -12 -106 -29 -20 -9 -51 -16 -67 -15 -17 0 -30 -4 -30 -10 0 -6 13 -8 33 -4 17 3 51 9 74 12 24 4 41 10 38 14 -2 3 2 7 10 7 26 0 16 -16 -12 -22 -16 -3 -50 -12 -78 -20 -27 -8 -106 -18 -175 -22 -69 -4 -111 -9 -93 -11 17 -2 37 -10 43 -18 14 -16 110 -20 110 -5 0 5 9 7 20 4 11 -3 20 -9 20 -13 0 -4 25 -2 55 5 30 7 55 10 55 5 0 -7 -67 -25 -82 -22 -15 4 -8 -26 7 -32 9 -3 15 0 15 9 0 8 5 15 10 15 6 0 10 -7 10 -15 0 -8 4 -15 9 -15 5 0 7 9 4 20 -4 16 -1 20 18 19 22 0 23 -1 4 -9 -11 -5 -18 -9 -15 -10 23 -7 40 -7 40 0 0 13 69 50 75 40 9 -15 30 -2 49 31 20 33 34 33 16 0 -13 -25 -3 -27 22 -4 18 16 18 16 12 0 -3 -9 -2 -17 4 -17 5 0 12 9 15 20 3 13 14 20 29 20 13 0 28 4 34 9 5 6 14 4 22 -5 10 -11 1 -21 -11 -11 -2 1 -11 -6 -21 -15 -10 -10 -22 -18 -29 -18 -6 0 -2 7 9 15 10 8 14 15 8 15 -6 0 -24 -12 -39 -26 -15 -14 -34 -23 -41 -20 -8 3 -14 1 -14 -3 0 -5 -7 -12 -16 -15 -15 -6 -15 -4 -3 10 13 16 12 16 -8 6 -12 -7 -23 -17 -25 -22 -2 -6 -19 -13 -38 -16 -51 -8 -74 -25 -27 -20 21 3 37 0 37 -6 0 -5 -6 -8 -14 -5 -8 3 -20 -1 -27 -10 -8 -8 -22 -19 -34 -24 -14 -6 -7 -7 20 -3 31 4 36 3 25 -5 -12 -9 -10 -11 12 -8 15 1 30 6 34 10 4 4 29 10 56 13 27 4 51 10 53 15 3 4 25 11 50 14 32 5 42 11 38 22 -3 8 -12 12 -21 8 -12 -4 -13 -3 -3 9 7 8 10 19 7 24 -3 6 3 12 14 15 16 4 17 2 8 -12 -7 -12 -7 -24 -1 -35 8 -15 11 -15 33 4 27 24 38 26 20 5 -11 -13 -10 -14 4 -9 12 5 15 2 10 -9 -3 -9 -13 -15 -22 -15 -9 0 -66 -16 -127 -36 -136 -46 -217 -66 -272 -66 -23 0 -45 -6 -49 -12 -4 -7 -4 -10 1 -6 4 4 17 3 28 -3 10 -6 17 -7 14 -2 -4 6 8 10 26 11 l32 1 -26 -14 c-15 -8 -37 -12 -50 -10 -17 3 -20 2 -11 -7 6 -6 38 -12 72 -12 33 0 60 -2 60 -3 0 -1 -15 -7 -32 -13 l-33 -10 35 5 c18 3 36 9 40 13 3 4 13 7 23 8 48 2 58 5 52 14 -3 5 0 7 8 4 35 -13 419 139 442 176 7 11 -20 2 -70 -23 -118 -60 -243 -108 -315 -122 -26 -4 -31 -3 -20 4 8 6 23 11 32 11 12 0 15 5 11 16 -5 13 -7 13 -14 2 -5 -7 -9 -9 -9 -4 0 5 -6 3 -14 -3 -11 -9 -16 -9 -22 0 -4 7 -3 9 4 5 5 -3 12 -2 14 4 1 5 12 11 23 13 19 4 51 15 68 24 4 2 7 -1 7 -6 0 -6 -9 -11 -19 -11 -10 0 -21 -7 -25 -15 -6 -17 12 -15 59 5 17 7 33 14 37 14 4 1 12 6 19 13 6 6 18 9 25 6 11 -4 13 4 10 36 -2 23 1 44 6 48 7 3 8 1 4 -5 -4 -7 -3 -12 3 -12 5 0 12 4 15 9 3 5 15 11 26 14 17 4 18 2 9 -15 -8 -15 -13 -17 -19 -8 -6 9 -11 7 -19 -8 -6 -11 -11 -23 -11 -25 0 -9 34 -17 39 -10 3 5 41 25 83 46 85 41 126 81 107 103 -8 10 -8 14 0 14 14 0 51 36 51 50 0 5 -7 7 -15 4 -8 -4 -12 -11 -8 -17 3 -6 1 -7 -6 -3 -7 4 -26 -3 -44 -16 -39 -29 -127 -72 -133 -65 -7 7 22 27 47 32 13 3 25 9 27 15 2 6 7 8 12 5 5 -3 15 1 23 9 7 8 37 28 65 46 54 33 72 53 116 133 31 57 32 62 7 40 -11 -9 -17 -23 -14 -32 3 -11 2 -12 -4 -4 -9 13 -18 8 -105 -59 -15 -11 -28 -28 -29 -37 0 -10 -2 -12 -6 -4 -3 10 -10 10 -24 2 -11 -5 -17 -14 -14 -19 3 -4 -16 -20 -41 -34 -26 -14 -41 -20 -35 -13 6 8 8 17 4 21 -4 4 1 4 11 0 13 -5 17 -4 12 4 -3 6 -2 13 4 17 5 3 10 1 10 -5 0 -6 5 -8 10 -5 6 4 8 10 5 15 -3 4 12 19 32 31 43 26 101 70 186 143 58 50 92 100 80 119 -3 6 -1 7 5 3 7 -4 12 -2 12 5 0 7 6 20 14 28 22 24 236 398 236 411 0 7 -7 10 -15 6 -8 -3 -14 -1 -12 4 1 6 -12 19 -29 30 l-31 20 -33 -62 c-38 -74 -112 -188 -122 -188 -3 0 15 33 41 73 51 79 105 177 99 181 -38 30 -131 76 -140 70 -7 -4 -10 -4 -6 1 9 10 -5 20 -87 65 -33 18 -70 40 -82 48 -13 8 -23 12 -23 8 0 -3 -9 3 -19 13 -11 11 -36 27 -58 37 -21 10 -40 21 -43 24 -12 15 -137 79 -143 73 -4 -3 -7 -1 -7 5 0 10 -78 62 -93 62 -3 0 -8 -35 -10 -77 l-3 -78 -2 90 c-2 62 -5 85 -12 75 -9 -13 -10 -13 -10 0 0 8 -18 25 -39 37 -46 26 -53 18 -38 -40 6 -25 6 -42 0 -48 -9 -9 -15 26 -16 94 0 15 -2 26 -4 23 -3 -2 -13 4 -22 13 -21 21 -164 101 -180 101 -7 0 -9 -4 -6 -10z m209 -1165 c5 -15 -26 -37 -89 -62 -16 -6 -23 -12 -15 -12 8 -1 26 5 40 12 39 20 60 27 60 19 0 -4 -10 -12 -22 -17 -12 -6 -23 -18 -24 -28 -3 -23 -23 -47 -40 -47 -7 0 -16 -5 -19 -11 -10 -15 48 -7 60 9 8 10 11 9 11 -7 0 -11 -8 -22 -18 -24 -10 -3 -16 -1 -12 4 3 5 0 9 -6 9 -6 0 -13 -6 -16 -14 -3 -8 -13 -12 -24 -9 -10 3 -21 0 -24 -6 -4 -6 -19 -10 -34 -10 -21 1 -23 2 -7 6 11 3 29 12 40 19 18 13 18 14 2 14 -10 0 -27 -5 -38 -10 -13 -7 -19 -7 -19 0 0 5 6 10 13 10 9 0 8 3 -2 9 -9 6 -10 11 -2 15 13 8 5 26 -10 26 -6 0 -7 -4 -4 -10 3 -5 2 -10 -3 -10 -5 0 -8 -10 -8 -22 1 -17 -4 -22 -19 -21 -11 1 -39 3 -62 4 -23 1 -48 6 -55 12 -10 6 -8 7 4 3 10 -3 20 -1 23 4 4 6 -2 11 -12 11 -10 1 -29 3 -43 5 -14 2 -65 4 -114 4 -95 1 -112 8 -28 13 28 1 54 6 59 11 4 5 3 6 -4 2 -7 -4 -21 -2 -30 3 -15 8 -11 10 20 11 20 0 37 -4 37 -10 0 -5 10 -10 23 -9 21 0 21 1 2 9 -11 5 -15 9 -10 10 6 0 30 5 55 10 33 6 57 4 89 -7 37 -12 52 -13 84 -3 27 8 36 14 27 20 -14 9 -5 30 13 29 8 0 7 -3 -2 -6 -27 -11 11 -21 43 -11 68 21 86 31 91 49 8 23 11 24 19 4z"/>
<path d="M5096 1945 c-3 -8 -13 -15 -23 -14 -16 0 -16 1 2 9 17 7 15 9 -12 9 -25 1 -31 -3 -27 -14 4 -8 10 -15 14 -15 4 0 6 -18 4 -40 -2 -25 0 -38 6 -35 6 3 7 -1 3 -10 -4 -11 -8 -13 -13 -5 -5 8 -11 6 -20 -5 -10 -12 -10 -15 0 -15 9 0 8 -5 -3 -18 -22 -25 -21 -29 8 -36 14 -4 25 -13 25 -22 0 -9 -5 -12 -12 -8 -7 4 -10 4 -6 -1 4 -4 2 -17 -3 -28 -10 -18 -9 -19 15 -13 19 5 24 3 20 -8 -3 -9 3 -17 16 -21 14 -5 19 -12 15 -23 -3 -8 0 -19 7 -24 10 -7 10 -9 -2 -6 -8 3 -17 15 -20 28 l-6 24 -22 -24 c-22 -24 -22 -24 -2 -35 11 -6 17 -14 14 -18 -4 -4 -2 -7 4 -7 6 0 14 5 17 10 10 17 25 11 18 -7 -4 -11 -3 -14 5 -9 8 4 10 -3 7 -24 -2 -20 1 -30 10 -30 8 0 12 10 10 26 -2 18 4 28 19 35 18 8 17 9 -6 4 -35 -7 -37 12 -3 25 33 12 32 19 -2 17 -21 -2 -28 2 -28 18 0 12 7 20 17 20 10 0 18 3 18 8 0 30 0 31 -11 20 -17 -17 -39 -4 -39 23 0 18 6 24 23 24 20 1 20 2 4 11 -13 8 -22 7 -32 -1 -8 -7 -15 -7 -19 -1 -8 12 30 25 45 15 8 -5 9 -3 3 7 -5 8 -7 21 -6 29 2 10 -6 16 -23 16 -15 1 -22 -2 -18 -9 3 -6 1 -7 -5 -3 -23 14 -13 33 13 28 25 -4 25 -3 20 37 -3 26 -1 41 6 41 8 0 8 5 -1 15 -7 8 -10 22 -6 30 3 8 1 15 -3 15 -5 0 -11 -7 -15 -15z"/>
<path d="M307 1824 c-3 -3 -27 -6 -53 -7 -30 -1 -49 -7 -52 -16 -3 -10 1 -12 16 -9 13 4 23 0 26 -8 3 -8 -1 -14 -10 -14 -8 0 -12 -4 -9 -10 3 -5 -1 -10 -9 -10 -21 0 -30 -19 -28 -57 2 -18 -1 -33 -6 -33 -17 0 -79 -55 -75 -66 2 -6 16 -9 31 -8 15 2 21 1 15 -2 -7 -3 -13 -10 -13 -15 0 -16 29 -10 50 11 l20 20 2 -47 c0 -27 1 -54 1 -61 -2 -29 27 11 32 47 4 20 10 45 15 56 16 36 17 84 3 89 -19 8 -16 26 4 26 14 0 12 5 -8 28 l-24 27 26 -22 c46 -41 108 -24 87 23 -6 13 -14 21 -19 19 -4 -3 -5 3 -2 14 5 18 -9 36 -20 25z"/>
<path d="M449 1437 c-95 -166 -235 -409 -311 -541 l-138 -238 0 -288 0 -288 57 -32 c50 -29 58 -30 68 -16 10 13 14 14 31 2 10 -8 16 -18 12 -22 -4 -4 -14 -1 -22 5 -14 12 -32 0 -19 -13 3 -3 47 -6 98 -6 l91 0 18 33 c46 88 59 103 44 53 -6 -19 -14 -33 -19 -31 -4 3 -10 -2 -13 -11 -4 -9 -5 -17 -4 -18 2 -1 13 -7 25 -13 24 -14 153 -16 153 -3 0 5 -6 11 -12 13 -7 3 2 6 21 6 28 1 43 10 78 47 25 28 43 56 43 70 0 13 5 24 11 24 20 0 89 63 89 82 0 10 6 18 14 18 8 0 17 7 20 16 5 14 4 15 -9 4 -32 -26 -13 7 30 53 48 51 55 55 55 32 0 -8 5 -15 10 -15 11 0 6 85 -7 125 -4 11 -6 30 -4 43 3 23 2 23 -23 7 -19 -13 -29 -14 -46 -5 -33 18 -50 -3 -50 -61 0 -27 -5 -49 -10 -49 -6 0 -14 -8 -17 -17 -7 -20 -53 -67 -53 -55 0 9 26 44 52 73 11 12 17 30 14 50 -4 42 20 89 45 89 11 0 22 -7 25 -15 5 -13 10 -13 36 3 28 16 30 20 25 65 -3 39 0 51 19 73 25 26 30 36 17 32 -21 -6 -53 29 -53 57 0 30 1 31 48 30 26 0 52 -3 59 -8 6 -4 14 -1 17 5 4 7 4 3 2 -9 -2 -13 0 -23 5 -23 5 0 9 6 9 14 0 8 5 16 11 18 7 2 12 24 13 48 1 49 1 49 -73 37 -45 -8 -95 -42 -119 -81 -12 -20 -13 -19 -7 9 3 17 13 35 22 40 9 6 24 17 33 26 16 15 87 31 137 30 37 -1 47 32 42 142 -1 15 2 38 5 52 l6 24 -27 -27 c-15 -15 -27 -30 -25 -34 1 -4 -6 -4 -15 -1 -9 4 -21 -1 -29 -12 -8 -10 -14 -15 -14 -9 1 17 25 41 48 48 12 4 22 12 22 17 0 6 4 8 9 5 18 -11 21 44 5 84 -15 36 -15 44 -1 78 8 21 13 49 10 63 -3 16 2 31 16 43 19 17 19 20 4 42 -14 22 -14 24 1 24 10 0 14 -4 11 -10 -3 -5 -1 -10 4 -10 6 0 11 6 11 13 0 27 12 19 -322 215 l-136 80 -173 -301z"/>
<path d="M8946 1713 c-3 -4 -6 -13 -6 -22 0 -14 2 -14 11 -1 7 11 8 1 5 -35 -4 -36 -3 -43 3 -25 9 24 9 24 10 -8 1 -24 -2 -31 -11 -26 -8 5 -8 1 1 -10 9 -10 11 -20 5 -24 -5 -4 -10 -16 -12 -26 -2 -11 -10 -29 -18 -41 -8 -12 -11 -24 -8 -28 4 -3 -7 -18 -24 -32 -21 -17 -29 -31 -25 -42 4 -10 2 -14 -5 -9 -6 3 -28 -10 -49 -31 -21 -20 -29 -30 -18 -22 18 13 19 13 7 -3 -8 -9 -19 -15 -26 -12 -6 2 -20 -3 -31 -12 -20 -16 -20 -16 0 -10 17 5 16 3 -5 -14 -14 -11 -36 -23 -48 -26 -19 -5 -21 -9 -10 -16 10 -8 9 -9 -4 -4 -10 3 -20 1 -23 -5 -4 -5 -12 -9 -18 -8 -25 3 -36 -1 -33 -13 1 -7 1 -10 -1 -5 -8 13 -25 7 -20 -7 4 -11 -1 -13 -21 -10 -23 5 -40 0 -92 -26 -8 -4 -16 -16 -18 -26 -2 -11 0 -15 5 -9 4 6 14 11 21 13 10 2 10 -2 2 -18 -9 -16 -8 -20 5 -20 9 0 14 4 11 8 -2 4 10 7 28 7 22 0 32 -4 29 -12 -3 -6 -11 -9 -18 -7 -7 3 -16 -3 -20 -15 -3 -11 -12 -20 -18 -18 -7 1 -11 -7 -9 -19 2 -15 -10 -33 -36 -55 -21 -19 -49 -50 -62 -69 -29 -42 -39 -50 -57 -43 -8 3 -12 0 -10 -8 2 -8 2 -11 0 -6 -3 4 -11 7 -19 7 -9 0 -13 4 -10 8 2 4 -4 9 -15 9 -18 2 -18 0 3 -17 13 -11 18 -19 11 -20 -6 0 -15 5 -18 10 -4 6 -16 3 -31 -9 -27 -21 -49 -19 -59 7 -5 14 -3 13 14 -2 28 -26 35 -3 6 24 -13 13 -22 27 -18 33 3 5 -1 13 -8 18 -19 12 -29 11 -29 -1 0 -5 4 -9 9 -7 5 1 8 -2 8 -8 -1 -5 -5 -9 -9 -8 -4 2 -4 -7 1 -20 5 -12 5 -32 0 -45 -7 -19 -5 -24 14 -31 16 -6 23 -5 26 7 2 12 4 13 12 1 7 -11 9 -11 9 -1 0 7 4 11 9 7 5 -3 17 3 27 12 17 17 17 17 10 -7 -4 -14 -8 -33 -7 -43 0 -9 -4 -15 -9 -12 -5 3 -12 0 -15 -6 -4 -5 -13 -8 -21 -5 -8 3 -11 0 -8 -8 3 -8 0 -17 -7 -22 -8 -5 -10 -3 -4 6 6 9 4 11 -4 5 -9 -5 -10 -10 -2 -18 15 -15 14 -24 -4 -24 -8 0 -11 5 -8 11 4 6 -2 4 -13 -5 -21 -18 -44 -15 -44 6 0 7 7 18 15 25 8 7 13 16 10 20 -3 4 2 13 9 19 12 10 14 8 12 -13 -2 -14 1 -23 5 -20 13 8 11 42 -2 50 -7 4 -26 8 -43 10 -17 1 -25 0 -18 -3 6 -2 10 -9 6 -14 -3 -5 1 -9 10 -9 16 0 15 -25 -2 -42 -18 -18 -15 -36 9 -49 25 -13 11 -33 -24 -34 -16 0 -22 -6 -21 -21 0 -13 -4 -20 -12 -17 -6 2 -15 -1 -20 -8 -4 -8 -3 -10 4 -5 8 5 10 2 6 -8 -4 -10 -1 -16 7 -16 10 0 10 -3 2 -11 -6 -6 -9 -18 -6 -25 3 -8 1 -14 -5 -14 -5 0 -12 -9 -15 -20 -3 -11 -10 -20 -17 -20 -6 0 -8 4 -5 10 3 5 1 18 -4 27 -9 16 -10 16 -11 1 0 -12 -7 -15 -27 -13 -15 1 -29 8 -31 14 -4 13 -22 15 -22 2 0 -5 10 -13 22 -17 l23 -7 -22 -8 c-14 -5 -21 -14 -17 -22 3 -8 -2 -17 -11 -21 -11 -4 -14 -2 -9 7 5 7 0 5 -11 -3 -17 -14 -18 -13 -14 15 4 26 2 30 -18 30 -13 0 -23 -2 -23 -5 0 -3 -19 -5 -42 -5 -36 0 -44 5 -59 30 -9 17 -21 29 -27 28 -6 -1 -15 11 -21 28 -7 21 -15 28 -23 23 -9 -6 -9 -3 1 9 12 15 11 17 -4 17 -13 0 -15 3 -6 13 6 8 8 17 5 20 -3 3 -8 22 -11 43 -4 29 -2 35 9 28 10 -6 11 -5 1 7 -10 12 -10 18 -1 27 9 9 9 15 -1 25 -10 8 -12 8 -7 0 3 -6 2 -14 -4 -18 -5 -3 -10 1 -10 9 0 9 -5 16 -11 16 -5 0 -7 -5 -4 -10 3 -6 -1 -13 -9 -16 -25 -9 -19 -23 7 -16 18 4 20 3 11 -9 -6 -8 -12 -21 -12 -29 -1 -8 -3 -31 -5 -50 -2 -19 1 -41 6 -47 6 -9 6 -13 -1 -13 -6 0 -14 9 -17 20 -3 11 -11 20 -17 20 -7 0 -7 -4 0 -12 5 -7 6 -22 2 -33 -6 -15 -9 -9 -15 28 -4 26 -5 56 -2 68 4 15 2 19 -9 15 -12 -5 -15 4 -13 46 3 65 26 113 78 165 l41 40 -22 19 c-19 17 -21 17 -15 2 4 -12 1 -18 -9 -18 -9 0 -12 -5 -8 -12 5 -8 0 -7 -11 2 -11 9 -16 10 -11 2 4 -7 1 -15 -8 -18 -9 -3 -13 -10 -10 -15 3 -5 -1 -9 -8 -9 -8 -1 -5 -7 7 -17 18 -14 19 -15 1 -9 -13 4 -24 0 -35 -16 -8 -13 -15 -25 -14 -28 1 -3 -12 -20 -30 -39 -18 -19 -25 -30 -17 -26 12 7 13 6 3 -7 -7 -8 -10 -18 -6 -21 3 -4 1 -7 -6 -7 -8 0 -9 -5 -1 -19 7 -14 6 -23 -3 -33 -18 -19 -19 -78 -1 -78 8 0 14 -5 14 -11 0 -6 -7 -9 -15 -5 -13 5 -13 3 0 -18 8 -12 12 -25 9 -28 -3 -4 11 -12 30 -19 20 -7 36 -17 36 -22 0 -5 7 -6 16 -3 8 3 13 2 9 -3 -3 -5 14 -19 37 -31 24 -12 59 -30 78 -42 l35 -20 -25 29 c-54 60 -62 76 -20 37 51 -46 105 -66 200 -71 35 -2 69 -8 74 -13 10 -10 -44 -22 -105 -24 -40 -1 -51 -9 -25 -19 21 -8 126 4 126 14 0 5 6 9 14 9 10 0 13 9 11 30 -2 17 0 30 5 30 4 0 6 9 3 20 -3 11 -9 17 -14 14 -5 -3 -15 -2 -21 3 -8 4 0 10 22 15 23 5 38 3 45 -5 11 -13 48 -19 40 -7 -3 5 -1 11 5 15 6 4 8 10 5 14 -2 5 7 6 20 3 15 -2 25 0 25 7 0 6 7 11 15 11 20 0 19 -9 -2 -33 -15 -17 -12 -16 14 3 18 13 35 32 39 42 3 10 10 18 15 18 5 0 9 7 9 15 0 17 16 20 25 6 5 -9 -11 -29 -88 -109 -17 -18 -37 -30 -44 -27 -10 3 -11 0 -3 -15 6 -11 8 -20 5 -20 -3 0 3 -10 14 -22 17 -17 23 -19 36 -8 12 10 16 9 21 -3 3 -9 3 -21 -1 -26 -4 -7 0 -8 11 -4 11 4 22 -1 30 -12 8 -10 14 -14 14 -8 0 7 -4 15 -10 18 -5 3 -10 15 -10 27 0 14 -5 18 -15 15 -23 -9 -28 11 -10 39 11 17 13 29 7 37 -7 8 -6 16 3 24 10 10 15 5 21 -25 4 -20 6 -41 5 -45 -1 -5 8 -5 20 -2 12 4 19 3 16 -2 -3 -5 11 -9 31 -10 20 -1 28 1 17 4 -34 9 -45 24 -39 52 4 18 3 22 -4 12 -6 -9 -12 -10 -16 -3 -7 12 31 62 48 62 5 0 1 -6 -9 -14 -19 -14 -19 -15 -1 -35 11 -12 16 -21 13 -21 -3 0 5 -11 18 -24 15 -15 22 -31 19 -40 -3 -9 -2 -16 3 -16 19 0 22 13 7 35 -19 29 0 39 34 17 19 -13 22 -13 22 1 0 26 16 27 18 1 1 -13 -3 -24 -9 -24 -6 0 -8 -7 -5 -16 3 -8 2 -12 -4 -9 -6 3 -10 1 -10 -4 0 -19 22 -12 27 9 3 11 9 20 14 20 13 0 11 34 -3 48 -17 17 2 29 42 27 16 -1 27 2 24 6 -2 4 -17 6 -32 5 -33 -4 -49 4 -31 15 10 6 11 9 2 9 -7 0 -13 4 -13 9 0 11 40 11 55 0 6 -4 17 -4 25 1 13 9 13 10 0 10 -13 0 -13 1 0 10 8 5 10 10 4 10 -6 0 -14 -3 -18 -7 -13 -14 -46 -10 -44 5 2 8 -5 16 -15 18 -14 2 -18 -2 -14 -17 3 -10 1 -19 -4 -19 -5 0 -9 5 -9 10 0 6 -7 10 -16 10 -13 0 -14 3 -5 14 7 8 21 13 31 11 11 -2 22 0 25 4 8 14 -41 19 -58 6 -11 -8 -15 -22 -12 -43 2 -24 0 -32 -11 -32 -11 0 -13 6 -8 22 6 20 5 21 -10 9 -14 -12 -16 -10 -16 12 0 17 7 28 20 32 11 4 18 11 14 16 -3 5 -11 6 -17 3 -7 -3 3 7 22 24 21 19 50 33 76 36 43 7 141 -9 151 -25 10 -16 22 -9 32 19 9 25 7 27 -20 29 -15 1 -36 7 -46 12 -15 9 -13 10 9 11 14 0 30 -5 36 -11 14 -14 48 3 64 33 9 18 8 24 -6 34 -9 7 -23 10 -30 8 -17 -7 -24 16 -14 44 8 22 10 22 39 7 16 -8 30 -21 30 -27 0 -20 40 26 45 52 3 13 -1 28 -8 33 -7 5 -3 6 11 2 l24 -7 -18 29 -18 28 22 -19 c23 -20 31 -9 10 13 -10 11 -10 12 -1 7 16 -9 56 33 74 77 7 17 16 34 19 37 4 3 26 39 50 80 24 41 50 86 59 99 14 23 14 23 -7 17 -27 -9 -56 11 -59 42 -3 20 7 27 30 23 4 0 7 3 7 9 0 5 16 1 34 -10 32 -18 35 -18 40 -2 8 26 4 202 -4 197 -12 -7 -6 29 5 37 6 5 5 8 -2 8 -7 0 -13 9 -13 21 0 11 4 18 9 15 10 -7 8 70 -3 96 -8 18 -31 30 -40 21z"/>
<path d="M2176 1370 c-31 -54 -56 -102 -56 -108 0 -45 162 -14 189 37 9 16 16 18 34 12 18 -7 26 -25 44 -102 12 -52 21 -95 19 -96 -4 -5 -122 47 -176 76 -36 20 -69 31 -97 31 l-42 0 -49 -82 c-66 -113 -66 -115 -34 -135 15 -10 48 -33 74 -51 47 -33 47 -33 28 -55 -10 -12 -45 -54 -79 -93 -34 -40 -61 -76 -61 -82 0 -6 -16 -29 -35 -51 -19 -23 -32 -48 -29 -56 3 -8 -4 -28 -16 -45 -12 -17 -23 -36 -24 -43 -3 -23 -43 -71 -121 -147 -94 -91 -235 -259 -235 -279 0 -8 20 -34 45 -58 44 -42 47 -43 111 -43 l65 0 -25 33 c-33 44 -36 106 -5 125 12 8 18 19 15 28 -3 9 -1 12 4 9 6 -3 10 -1 10 5 0 15 60 73 78 76 18 3 29 14 14 14 -6 0 -9 7 -6 15 5 11 11 12 25 4 14 -7 19 -6 19 3 0 8 9 21 20 31 11 9 20 22 20 29 0 9 -3 8 -10 -2 -8 -12 -10 -10 -10 9 0 23 1 24 20 6 19 -17 21 -16 64 29 25 25 50 46 55 46 7 0 7 9 1 25 -5 14 -7 26 -5 26 3 1 10 2 16 3 7 0 15 9 18 19 6 17 8 17 20 3 21 -25 -6 -84 -46 -101 -17 -7 -39 -25 -49 -40 -16 -25 -16 -27 2 -45 10 -10 51 -35 89 -55 39 -21 86 -49 105 -63 45 -33 174 -145 178 -154 2 -4 25 -23 52 -43 53 -39 100 -47 100 -17 0 10 5 23 11 29 7 7 8 17 2 28 -7 13 -2 24 25 51 19 19 36 34 38 34 3 0 11 -15 19 -32 8 -20 14 -26 15 -15 0 9 6 26 12 37 10 15 10 27 1 50 -9 24 -9 30 0 27 16 -5 37 17 37 39 0 22 16 7 23 -21 3 -16 7 -13 20 17 9 20 14 45 10 55 -3 10 -3 15 1 11 7 -6 27 7 61 40 31 28 29 -59 -2 -103 -13 -19 -14 -18 -7 10 10 45 10 47 -1 51 -16 6 -67 -93 -60 -116 8 -27 -11 -61 -31 -53 -9 3 -12 9 -7 12 11 7 11 27 1 37 -5 4 -8 0 -8 -9 0 -10 -5 -17 -11 -17 -6 0 -9 -9 -6 -20 3 -13 1 -18 -6 -13 -7 4 -8 0 -4 -11 4 -10 7 -25 7 -34 1 -15 2 -15 14 1 12 16 14 16 20 2 3 -9 2 -13 -4 -10 -5 3 -17 -6 -26 -21 -14 -21 -15 -30 -6 -45 12 -18 11 -19 -10 -7 -13 7 -27 19 -31 26 -4 6 -13 12 -19 12 -6 0 -8 -3 -5 -7 4 -3 -1 -12 -11 -20 -9 -8 -11 -11 -3 -7 11 5 13 3 8 -10 -6 -15 -4 -17 10 -11 19 8 20 8 74 -1 l37 -6 12 51 c6 28 21 62 31 76 11 13 27 48 35 77 14 50 65 157 87 186 8 10 17 6 41 -17 30 -28 153 -111 165 -111 13 0 73 112 67 125 -3 8 -1 14 5 12 10 -2 238 378 239 400 0 6 -24 25 -52 42 -57 32 -68 29 -68 -23 0 -23 -3 -27 -17 -21 -10 4 -31 12 -48 18 -16 5 -33 15 -38 21 -5 7 -15 1 -28 -16 -17 -23 -28 -28 -66 -28 -30 0 -43 4 -41 12 2 6 10 14 18 16 8 3 10 0 5 -8 -9 -15 9 -6 37 18 9 7 32 15 50 17 18 1 40 5 48 8 8 3 31 9 50 14 l35 9 -118 67 c-65 37 -120 67 -122 67 -2 0 -15 -10 -28 -22 -31 -30 -50 -66 -41 -80 4 -6 3 -8 -3 -5 -6 4 -13 0 -17 -8 -3 -10 -19 -15 -47 -15 -37 0 -48 7 -118 71 -42 40 -91 78 -108 86 -41 17 -43 27 -4 18 27 -6 30 -3 41 29 6 20 16 36 20 36 5 0 7 7 4 15 -5 11 1 15 22 15 l29 0 -23 18 c-13 10 -43 29 -68 42 l-44 25 -45 -25 c-25 -14 -45 -29 -46 -35 -1 -25 -18 34 -18 68 l-1 38 29 -22 c16 -11 37 -19 47 -17 13 2 0 14 -44 40 l-62 37 0 -84 c0 -46 -5 -87 -10 -90 -11 -7 -70 116 -70 146 0 13 7 19 23 19 12 0 28 4 35 9 10 6 6 11 -17 19 -17 6 -31 9 -31 7 0 -2 -12 7 -26 20 -15 14 -57 43 -95 64 l-68 39 -55 -98z"/>
<path d="M1150 1414 c0 -8 -11 -35 -24 -60 -19 -36 -22 -51 -15 -81 5 -23 4 -42 -2 -49 -7 -8 -6 -14 1 -19 5 -3 10 -11 10 -17 0 -6 -6 -6 -16 2 -13 11 -16 10 -21 -8 -3 -12 -10 -19 -15 -16 -6 4 -7 -2 -3 -17 9 -31 9 -31 1 -51 -4 -9 -6 -31 -4 -50 2 -25 7 -32 20 -30 9 1 22 -7 28 -18 6 -11 19 -20 30 -20 23 0 50 -36 49 -65 0 -13 -4 -9 -10 13 -8 25 -15 32 -34 32 -14 0 -30 9 -37 20 -23 36 -44 24 -57 -32 -7 -29 -14 -67 -16 -83 -1 -17 -10 -47 -18 -68 -14 -32 -11 -43 9 -34 3 1 11 -9 18 -21 10 -20 10 -30 -3 -58 -10 -23 -18 -30 -23 -21 -6 9 -10 9 -17 -3 -5 -8 -7 -18 -5 -22 3 -4 -2 -8 -10 -8 -8 0 -18 5 -21 10 -3 6 -2 10 3 10 6 0 12 20 14 45 2 25 0 45 -4 45 -5 0 -8 -18 -8 -39 0 -22 -5 -43 -10 -46 -6 -3 -8 -18 -4 -33 l5 -27 -15 25 c-8 14 -15 20 -16 14 0 -5 -7 -19 -15 -30 -13 -18 -14 -16 -11 21 3 31 8 40 22 40 13 0 19 8 20 23 1 18 1 19 -3 2 -2 -11 -9 -20 -14 -20 -6 0 -7 5 -4 10 11 17 -11 11 -27 -7 -22 -27 -21 -74 2 -90 24 -17 26 -42 4 -69 -15 -19 -16 -19 -9 1 7 23 8 25 6 43 0 7 -5 11 -10 8 -11 -7 -5 -109 8 -135 6 -11 8 -27 4 -37 -4 -12 -3 -15 5 -10 17 10 15 -9 -3 -24 -16 -14 -20 -30 -7 -30 11 0 34 49 27 60 -3 4 4 10 15 13 26 7 25 -2 -2 -45 -13 -18 -31 -48 -41 -66 -17 -29 -17 -32 -1 -32 9 0 14 -6 11 -12 -3 -9 6 -13 28 -14 25 0 32 3 28 14 -3 7 13 -4 37 -26 33 -31 41 -43 36 -60 -13 -41 -94 -40 -120 0 -8 13 -8 23 2 38 21 35 13 35 -19 -1 -17 -19 -37 -33 -45 -31 -8 2 -14 -2 -14 -9 0 -6 -6 -9 -14 -6 -8 3 -20 0 -26 -8 -14 -17 -46 -1 -53 27 -7 25 -33 23 -40 -3 -3 -12 -11 -19 -19 -17 -7 3 -21 -14 -34 -41 -21 -46 -50 -78 -89 -99 -16 -9 -2 -11 66 -12 54 0 90 4 98 12 11 11 13 10 7 -2 -5 -9 -2 -8 7 3 17 21 31 22 24 3 -5 -12 16 -15 133 -15 102 -1 139 2 143 12 3 9 7 9 20 -1 8 -7 32 -12 52 -10 37 3 38 4 152 203 379 658 493 858 493 865 0 4 -89 58 -197 121 -109 62 -246 141 -305 175 -75 44 -108 59 -108 48z"/>
<path d="M8645 1383 c6 -4 11 -15 13 -23 3 -12 1 -13 -9 -2 -7 6 -18 12 -23 12 -7 0 -6 -4 1 -8 8 -5 9 -13 3 -22 -7 -10 -10 -11 -10 -2 0 6 -7 12 -15 12 -9 0 -12 -6 -9 -17 5 -16 4 -16 -8 -3 -19 22 -61 14 -55 -11 3 -10 1 -19 -4 -19 -5 0 -9 5 -9 10 0 6 -5 10 -11 10 -5 0 -7 -4 -4 -10 3 -5 2 -10 -4 -10 -5 0 -12 6 -14 13 -4 9 -8 8 -16 -3 -7 -10 -6 -17 2 -23 8 -6 7 -7 -4 -4 -9 3 -26 -1 -38 -9 -11 -8 -21 -12 -21 -8 0 5 -5 3 -12 -4 -7 -7 -17 -12 -22 -12 -6 0 -4 5 4 10 11 7 11 10 2 10 -7 0 -11 4 -8 8 2 4 -11 6 -30 4 -18 -2 -31 -8 -29 -13 3 -4 12 -6 19 -3 8 3 17 1 21 -5 3 -6 0 -11 -7 -12 -7 0 -21 -2 -30 -4 -10 -2 -18 3 -18 11 0 8 -4 14 -9 14 -4 0 -7 -11 -5 -26 2 -21 0 -23 -12 -13 -9 7 -14 8 -14 1 0 -6 -13 -10 -30 -10 -21 1 -27 4 -21 12 6 7 12 24 15 40 4 21 2 25 -7 18 -7 -6 -28 -14 -47 -19 -25 -7 -34 -15 -32 -26 2 -10 -1 -17 -7 -17 -22 0 -2 36 30 53 19 10 26 16 16 13 -10 -4 -34 -6 -53 -6 -21 0 -33 -4 -29 -10 4 -6 11 -8 16 -5 5 3 6 -1 3 -9 -3 -9 -11 -16 -16 -16 -6 0 -7 -7 -4 -16 5 -13 3 -14 -6 -7 -17 13 -66 9 -80 -5 -9 -9 -5 -17 13 -32 13 -12 25 -17 27 -11 2 6 10 11 18 11 8 0 14 4 14 10 0 5 7 7 15 4 8 -4 23 0 32 7 10 8 18 10 20 4 3 -10 144 -11 173 -2 8 3 42 13 75 23 33 10 62 20 65 23 3 3 12 7 20 9 13 2 48 15 130 46 36 14 75 44 75 57 0 8 -11 15 -25 17 -14 2 -20 -1 -15 -5z"/>
<path d="M5104 1368 c-4 -7 -3 -8 4 -4 8 5 12 -2 12 -18 0 -14 5 -26 11 -26 6 0 9 -7 5 -15 -9 -25 2 -17 17 12 14 26 15 26 26 5 7 -14 8 -23 1 -27 -5 -3 -10 -3 -10 1 0 4 -8 -4 -18 -17 -28 -36 -24 -77 5 -48 7 7 12 2 17 -17 6 -21 3 -32 -11 -43 -23 -19 -24 -46 -3 -46 8 0 19 -6 23 -12 4 -7 17 -18 29 -24 16 -9 19 -8 13 3 -3 7 0 5 8 -4 14 -18 33 -25 23 -9 -3 5 4 11 16 14 15 4 18 3 10 -5 -13 -13 -4 -40 10 -32 6 4 5 10 -3 15 -10 6 -11 9 -1 9 14 0 16 19 4 37 -6 9 -17 10 -40 4 -43 -13 -41 2 3 18 19 7 33 17 29 22 -3 5 -10 7 -15 4 -8 -6 -13 9 -10 29 1 4 -11 6 -26 3 -15 -4 -22 -4 -15 -1 6 3 12 12 12 20 0 8 7 14 15 14 8 0 15 -7 15 -15 0 -8 5 -15 10 -15 7 0 7 6 0 20 -6 11 -21 20 -33 20 -17 0 -19 2 -7 9 8 6 18 7 22 5 4 -3 8 2 8 11 0 9 -4 14 -8 11 -5 -3 -8 5 -8 17 1 17 -4 21 -21 19 -23 -3 -28 8 -25 51 2 18 -24 24 -30 6 -2 -7 -12 -7 -30 0 -19 7 -29 7 -34 -1z"/>
<path d="M7443 1233 c-25 -3 -33 -9 -33 -24 0 -10 -4 -19 -9 -19 -15 0 -172 -285 -159 -289 7 -2 14 1 16 8 2 6 8 9 13 5 5 -3 9 1 9 10 0 8 13 17 30 21 17 4 30 13 30 20 0 7 6 15 13 18 9 3 9 9 0 25 -10 17 -9 23 5 34 15 12 16 11 3 -4 -11 -15 -11 -18 2 -18 13 0 23 18 33 63 2 10 -2 17 -10 17 -9 0 -13 -8 -10 -22 4 -21 4 -22 -5 -3 -6 14 -5 23 6 32 9 7 20 10 24 7 5 -3 9 1 9 8 0 18 58 17 70 -2 5 -8 6 -18 3 -24 -3 -5 -1 -6 5 -2 7 4 12 1 12 -8 0 -9 5 -16 10 -16 7 0 7 6 1 19 -6 10 -8 21 -5 24 3 3 -8 13 -25 23 -37 22 -37 24 -11 47 22 18 26 37 9 37 -5 0 -7 5 -4 10 3 6 5 9 3 8 -2 0 -18 -3 -35 -5z"/>
<path d="M7879 1213 c-1 -5 -1 -11 0 -15 0 -5 -3 -8 -9 -8 -20 0 -110 -44 -111 -54 -1 -6 -2 -17 -3 -25 -1 -17 -26 -28 -26 -11 0 6 5 8 10 5 6 -3 10 -1 10 4 0 6 -5 11 -11 11 -8 0 -8 5 1 15 7 9 8 15 2 15 -10 0 -25 -26 -27 -45 0 -5 -4 -16 -8 -22 -12 -18 1 -33 26 -32 12 0 16 3 10 6 -7 2 -13 9 -13 14 0 5 11 2 25 -7 24 -16 27 -15 45 1 18 16 18 16 13 -4 -3 -11 -9 -18 -14 -15 -5 3 -9 0 -9 -7 0 -9 -3 -9 -14 0 -11 9 -17 6 -30 -15 -10 -14 -23 -23 -30 -21 -19 8 -43 -10 -30 -23 7 -7 41 6 109 40 93 47 119 57 153 59 6 1 12 6 12 12 0 6 -7 9 -14 6 -11 -4 -13 -1 -9 11 3 11 -1 9 -11 -5 -10 -13 -28 -23 -42 -23 -13 0 -24 -4 -24 -9 0 -5 -9 -11 -21 -14 -15 -4 -17 -2 -10 6 5 7 11 17 13 22 1 6 7 9 13 7 5 -2 2 5 -7 15 -14 16 -15 19 -1 32 13 12 14 11 8 -8 -8 -25 3 -28 20 -4 9 13 14 13 20 3 5 -8 4 -11 -2 -7 -12 7 -25 -17 -16 -27 11 -11 24 -6 17 6 -4 7 -3 8 4 4 7 -4 12 -3 12 2 0 12 56 33 64 25 3 -4 6 -11 6 -17 0 -6 -4 -5 -9 3 -5 7 -11 9 -14 4 -3 -5 4 -15 16 -22 12 -8 19 -10 15 -6 -5 5 2 13 14 19 33 16 34 45 4 73 -16 14 -26 19 -26 11 0 -9 -3 -10 -8 -2 -7 11 -23 11 -61 -1 -16 -5 -20 -3 -15 9 3 9 1 16 -5 16 -6 0 -12 -3 -12 -7z"/>
<path d="M8357 1140 c-3 -11 -13 -20 -24 -19 -16 0 -16 1 2 9 12 5 14 9 6 9 -8 1 -22 -6 -32 -15 -14 -12 -22 -13 -39 -4 -20 11 -21 10 -10 -9 6 -12 13 -21 16 -21 3 0 2 6 -2 13 -4 6 2 4 14 -7 19 -16 22 -36 6 -36 -3 0 -3 4 1 9 3 5 1 12 -5 16 -5 3 -10 -1 -10 -9 0 -9 -5 -16 -11 -16 -6 0 -9 6 -7 12 8 22 -19 41 -39 28 -15 -10 -15 -11 -1 -6 9 2 19 -1 22 -9 3 -9 0 -12 -10 -8 -7 3 -14 0 -14 -6 0 -6 -10 -11 -21 -11 -18 0 -19 2 -9 15 10 12 10 15 -1 15 -8 0 -20 -4 -27 -9 -11 -6 -10 -10 5 -15 17 -7 17 -8 -1 -21 -10 -8 -22 -12 -26 -10 -4 2 -12 -6 -18 -19 -9 -20 -8 -25 4 -30 9 -3 21 -3 26 1 6 3 8 1 4 -5 -3 -6 -2 -13 4 -17 6 -3 10 4 10 17 0 16 3 19 9 10 6 -11 11 -10 24 3 19 18 57 29 57 15 0 -4 -6 -11 -12 -14 -7 -3 7 -3 31 -1 34 3 41 1 33 -7 -7 -7 -12 -16 -12 -21 0 -5 8 -1 18 9 16 16 17 16 20 1 4 -21 22 -23 22 -3 0 9 8 13 23 10 20 -4 20 -4 -2 6 -14 6 -32 12 -40 14 -46 9 -70 19 -75 32 -4 12 3 14 34 12 30 -1 37 -5 29 -14 -7 -9 -5 -14 9 -18 23 -8 70 8 54 18 -6 3 -13 2 -17 -4 -3 -5 -12 -10 -18 -10 -7 0 -4 5 5 11 9 5 15 16 12 23 -3 8 -1 17 5 21 7 4 8 0 4 -11 -4 -12 -2 -15 8 -12 8 3 13 14 11 26 -3 23 12 30 23 12 11 -18 25 0 24 33 0 25 -2 28 -8 13 -7 -18 -8 -18 -14 -2 -6 16 -10 16 -23 5 -14 -11 -18 -11 -29 4 -12 16 -13 16 -18 -3z"/>
<path d="M8033 1038 c-13 -6 -23 -15 -23 -20 0 -5 -10 -6 -21 -3 -16 5 -19 4 -14 -5 5 -9 4 -11 -3 -6 -7 4 -18 4 -24 -1 -7 -4 -20 -8 -28 -10 -8 -1 -16 -7 -18 -13 -2 -5 -9 -7 -15 -3 -7 4 -8 0 -3 -12 5 -14 4 -16 -7 -7 -10 9 -27 4 -71 -18 -32 -17 -64 -37 -73 -45 -8 -8 -19 -15 -24 -15 -6 0 -7 -9 -4 -20 4 -12 2 -19 -3 -18 -11 3 -12 -2 -11 -29 0 -14 2 -15 6 -3 4 8 16 22 27 32 16 13 17 18 6 18 -10 1 -8 4 5 10 14 5 26 2 42 -12 20 -19 21 -19 20 -1 -1 10 -8 23 -16 29 -10 8 -11 13 -3 18 7 4 12 1 12 -6 0 -10 3 -9 11 2 9 13 10 13 6 -1 -3 -9 0 -22 6 -28 14 -14 30 -14 21 1 -5 7 -3 8 5 4 7 -5 10 -14 7 -22 -3 -7 -1 -16 4 -19 15 -9 12 39 -2 55 -7 7 1 3 18 -11 27 -21 29 -25 15 -36 -9 -7 -11 -13 -5 -13 6 0 17 7 24 15 13 16 52 14 58 -3 2 -6 -5 -8 -17 -5 -15 4 -21 1 -21 -11 0 -10 -4 -14 -10 -11 -10 6 -11 5 -15 -31 -1 -12 -5 -26 -8 -31 -4 -6 1 -19 9 -29 9 -10 13 -13 9 -6 -4 8 6 18 27 27 20 9 26 14 15 15 -10 0 -15 5 -12 10 4 6 10 8 15 5 5 -3 12 6 16 20 7 28 19 25 19 -6 0 -10 3 -19 8 -19 4 0 10 0 13 0 4 0 0 7 -7 17 -13 15 -11 16 16 9 17 -3 25 -3 19 1 -6 4 -17 19 -24 33 -13 24 -12 24 5 10 17 -14 18 -13 12 15 -3 17 -4 24 -1 18 9 -20 43 3 41 27 -1 11 -5 20 -10 20 -5 0 -5 -9 -2 -20 5 -14 2 -20 -10 -20 -9 0 -13 4 -10 10 3 6 -1 7 -10 4 -8 -4 -22 -1 -30 6 -14 12 -14 15 0 30 8 9 12 20 8 25 -5 4 2 3 14 -4 28 -14 40 -14 25 1 -18 18 -15 27 7 21 10 -3 22 0 26 7 10 16 -16 42 -37 37 -26 -7 -22 0 10 17 31 17 19 20 -15 4z"/>
<path d="M4011 970 c6 -16 16 -30 21 -30 6 0 6 6 -1 14 -10 12 -8 17 8 26 14 7 21 7 21 0 0 -5 -4 -10 -10 -10 -16 0 -12 -15 13 -43 17 -20 32 -27 60 -27 31 0 37 -3 37 -21 0 -16 4 -19 21 -14 13 5 25 2 29 -6 7 -10 11 -10 24 0 14 12 16 11 16 -7 0 -21 -26 -37 -35 -22 -3 5 -12 7 -20 3 -8 -3 -15 0 -15 7 0 7 -6 10 -14 7 -7 -3 -19 0 -25 6 -8 8 -11 8 -11 -1 0 -7 7 -15 15 -18 8 -4 15 -11 15 -16 0 -6 -7 -8 -15 -4 -8 3 -15 1 -15 -4 0 -6 -7 -10 -16 -10 -8 0 -12 -5 -9 -11 4 -6 12 -8 19 -6 8 3 11 -5 10 -25 -2 -27 0 -29 22 -24 17 5 24 2 24 -9 0 -16 20 -16 32 0 4 5 10 6 14 3 8 -8 -16 -32 -36 -36 -8 -2 -20 -9 -25 -16 -8 -11 -13 -10 -25 3 -14 14 -15 14 -18 -3 -4 -16 -5 -16 -19 3 -8 12 -18 19 -23 16 -4 -3 -10 -1 -12 4 -5 13 -48 -6 -48 -23 0 -17 -45 -27 -59 -13 -8 8 -11 6 -11 -7 0 -13 5 -17 19 -13 32 8 42 -5 31 -42 -5 -17 -7 -38 -4 -46 4 -10 0 -13 -15 -10 -12 2 -19 0 -16 -6 4 -5 10 -7 15 -4 4 3 11 -1 14 -7 5 -10 7 -10 12 0 3 6 12 12 20 12 17 0 48 -46 39 -60 -3 -5 -2 -10 3 -10 6 0 8 -9 5 -20 -4 -15 0 -20 16 -20 14 0 21 6 21 20 0 11 5 20 11 20 6 0 9 -7 5 -15 -4 -12 -2 -13 12 -7 20 11 42 5 42 -10 0 -6 -7 -8 -15 -4 -8 3 -15 1 -15 -5 0 -6 -4 -8 -8 -5 -4 2 -14 1 -22 -4 -11 -7 -11 -11 -1 -24 11 -13 9 -14 -12 -10 -28 5 -44 -20 -27 -41 5 -6 7 -15 3 -18 -3 -4 3 -7 13 -7 25 0 59 24 59 42 0 16 18 24 23 10 2 -6 -5 -18 -16 -29 -10 -10 -22 -26 -25 -36 -4 -9 -12 -16 -19 -15 -8 2 -12 -5 -10 -19 2 -13 -2 -23 -9 -23 -8 0 -8 -4 1 -15 29 -34 75 -3 68 46 -4 27 -2 30 21 27 17 -2 27 -11 32 -28 l7 -25 1 26 c1 16 10 30 26 39 14 7 25 20 25 27 0 8 5 11 10 8 6 -3 14 5 19 18 5 13 20 27 32 30 28 7 54 -10 40 -27 -13 -15 23 -96 42 -96 8 0 20 7 27 15 10 12 9 15 -5 15 -13 0 -16 5 -11 23 3 12 6 29 6 37 0 8 9 -2 20 -23 27 -50 25 -63 -11 -76 -17 -6 -28 -14 -25 -19 3 -5 0 -9 -7 -9 -7 0 -19 -4 -27 -7 -11 -5 -16 -1 -16 14 0 13 5 19 13 16 7 -3 13 -1 13 4 0 6 -9 10 -20 10 -11 0 -20 -4 -20 -10 0 -5 -4 -10 -10 -10 -5 0 -10 13 -10 28 0 16 -9 37 -20 47 -19 17 -20 17 -31 -9 -7 -14 -18 -26 -26 -26 -7 0 -13 -4 -13 -9 0 -5 14 -8 31 -7 18 0 34 -5 36 -12 4 -9 -5 -12 -30 -9 -29 3 -34 1 -29 -15 2 -10 0 -18 -6 -18 -18 0 -10 -50 11 -65 12 -8 16 -15 9 -15 -9 0 -10 -5 -3 -18 9 -16 11 -92 3 -92 -2 0 -12 5 -23 10 -10 6 -19 7 -19 2 0 -5 16 -14 35 -20 33 -10 35 -9 30 9 -4 10 -3 23 0 29 9 14 54 -21 55 -41 0 -23 28 -32 33 -11 4 16 5 16 6 0 1 -16 16 -17 151 -17 125 0 150 2 150 14 0 8 5 15 10 15 12 0 14 26 3 33 -5 2 -3 2 4 1 15 -4 24 8 65 86 19 36 45 81 56 100 12 19 20 41 17 48 -3 7 -1 11 4 8 4 -3 13 5 19 18 9 20 7 27 -7 40 -10 9 -23 16 -30 16 -20 0 -3 17 29 28 27 10 29 9 18 -8 -14 -22 -6 -35 17 -27 8 4 15 18 15 33 0 22 -3 25 -22 21 -27 -8 -78 40 -53 49 19 8 19 31 0 31 -8 0 -15 -7 -15 -14 0 -8 -3 -12 -7 -10 -5 3 -17 1 -28 -4 -17 -6 -17 -8 -2 -8 18 -1 25 -31 6 -31 -6 0 -8 -7 -5 -16 5 -14 4 -15 -8 -5 -11 9 -13 7 -13 -14 0 -14 4 -25 10 -25 6 0 7 -3 4 -6 -9 -9 -36 15 -33 29 1 7 1 9 -1 5 -3 -5 -11 -8 -19 -8 -16 0 -19 26 -4 35 6 4 7 11 4 17 -5 7 -1 9 9 5 13 -5 17 -1 17 18 0 14 -5 25 -11 25 -6 0 -9 -6 -6 -14 5 -11 0 -12 -24 -3 -31 12 -39 27 -14 27 17 0 20 16 5 25 -5 3 -10 19 -10 35 0 16 -5 32 -12 36 -8 5 -9 2 -5 -9 3 -10 2 -17 -2 -17 -14 0 -20 25 -10 41 5 8 9 10 9 6 0 -15 40 14 40 29 0 8 5 12 10 9 6 -3 10 1 10 10 0 12 -6 15 -22 10 -23 -6 -23 -6 2 15 18 16 26 18 29 8 2 -7 10 -17 16 -23 21 -17 25 -53 6 -51 -9 0 -19 6 -23 11 -5 6 -8 4 -8 -4 0 -8 -8 -20 -17 -27 -26 -18 -8 -29 18 -10 13 9 32 13 45 10 16 -4 26 0 36 15 17 28 25 26 30 -6 3 -16 9 -36 13 -45 5 -14 2 -18 -13 -18 -11 0 -23 6 -25 13 -4 9 -6 9 -6 -1 -1 -8 8 -16 19 -19 22 -6 32 -30 32 -77 0 -30 2 -32 25 -28 15 3 29 -1 34 -9 4 -7 11 -10 16 -6 4 5 1 12 -6 17 -9 5 -11 15 -7 26 6 16 8 16 17 4 11 -18 6 -25 95 128 46 80 63 119 59 133 -5 16 -3 20 12 17 12 -2 18 3 17 14 -1 10 2 16 6 13 4 -2 12 7 19 22 10 21 9 28 -1 35 -10 7 -9 12 6 23 24 18 15 30 -12 16 -11 -6 -28 -8 -36 -5 -11 4 -16 0 -16 -12 0 -16 2 -17 11 -4 9 12 10 11 6 -7 -3 -15 0 -23 12 -25 12 -3 10 -5 -6 -10 -16 -4 -23 -2 -23 7 0 12 -36 31 -52 27 -11 -3 -30 27 -24 37 4 6 20 8 36 6 25 -3 30 0 30 18 0 15 -14 30 -44 49 -46 27 -56 27 -56 -3 0 -13 -8 -17 -30 -17 -17 1 -36 -4 -42 -10 -9 -9 -5 -12 15 -12 31 0 36 -20 11 -45 -20 -20 -32 -11 -14 10 17 21 7 29 -19 16 -17 -10 -20 -9 -14 5 5 13 3 15 -13 7 -25 -13 -94 -4 -101 13 -2 7 -11 10 -19 7 -13 -5 -12 -8 2 -24 9 -10 20 -16 24 -14 4 3 11 -7 14 -21 9 -33 43 -29 38 5 -3 20 -1 21 17 12 16 -9 19 -19 16 -49 -5 -50 -5 -50 -15 -24 -5 12 -14 22 -20 22 -10 0 -8 -16 7 -57 3 -7 -2 -13 -11 -13 -9 0 -16 6 -16 13 0 7 -9 21 -21 30 -16 14 -18 21 -9 32 16 19 -3 28 -41 20 -21 -5 -27 -10 -21 -18 25 -31 24 -58 -3 -78 -24 -20 -25 -22 -9 -34 16 -12 16 -13 -4 -19 -12 -4 -26 -5 -31 -2 -5 3 -8 -2 -7 -11 0 -9 -5 -18 -13 -21 -10 -3 -12 0 -8 12 5 12 0 16 -19 16 -14 0 -23 4 -19 10 4 6 10 8 15 5 5 -3 11 -1 15 5 3 5 2 10 -3 10 -5 0 -17 15 -27 34 l-19 35 -24 -20 c-14 -10 -31 -19 -38 -19 -8 0 -14 -5 -14 -11 0 -7 9 -9 24 -5 22 5 24 3 24 -29 0 -34 -10 -45 -23 -25 -3 6 -1 10 5 10 6 0 8 5 4 11 -3 6 -19 9 -35 5 -16 -3 -29 -1 -29 4 0 6 5 10 10 10 6 0 10 5 10 10 0 6 -11 8 -27 4 -19 -5 -30 -2 -41 12 -13 18 -14 17 -8 -8 6 -26 5 -26 -24 -15 -29 11 -41 27 -20 27 6 0 10 4 10 10 0 5 -7 7 -15 4 -8 -4 -15 -1 -15 6 0 6 -6 10 -12 7 -7 -2 -26 2 -43 8 -16 7 -36 10 -42 8 -7 -3 -13 0 -13 6 0 14 18 23 24 12 9 -13 46 -1 46 15 0 8 7 14 17 14 15 0 15 2 -1 19 -11 12 -24 17 -34 13 -15 -6 -15 -7 1 -10 21 -4 22 -16 2 -32 -13 -11 -19 -9 -35 11 -11 13 -24 29 -30 36 -13 16 -13 26 1 17 7 -4 10 -1 7 6 -6 20 -40 38 -45 24 -5 -16 -59 -5 -78 16 -9 10 -23 16 -31 13 -8 -3 -14 -1 -14 5 0 6 6 13 13 15 6 3 -11 6 -40 6 l-52 1 10 -30z"/>
<path d="M8971 738 c-1 -48 -5 -89 -9 -92 -5 -3 -10 0 -11 7 -1 7 -5 39 -10 72 l-8 60 -2 -67 c-1 -72 -21 -97 -21 -27 0 24 -4 38 -10 34 -5 -3 -10 -26 -10 -51 0 -35 3 -44 18 -44 14 0 14 -2 3 -9 -17 -11 -41 10 -41 36 0 14 -2 15 -9 5 -5 -8 -9 -39 -9 -69 l0 -55 51 6 c29 3 60 6 69 6 14 0 16 14 17 108 1 59 -3 121 -8 137 -7 24 -9 11 -10 -57z"/>
<path d="M5288 632 l-36 -67 488 -282 488 -283 76 0 c47 0 76 4 76 11 0 5 -4 7 -10 4 -5 -3 -10 1 -10 9 0 11 -10 16 -32 16 -35 0 -113 41 -122 65 -3 9 -10 14 -15 11 -5 -3 -14 1 -21 9 -7 8 -18 15 -26 15 -17 0 -24 12 -29 49 -4 35 -33 78 -57 86 -10 4 -18 11 -18 18 0 8 -3 8 -12 -1 -14 -14 -72 -16 -63 -3 3 5 1 12 -4 15 -5 3 -12 25 -15 49 -7 43 -33 77 -61 77 -7 0 -17 5 -21 12 -5 7 -3 8 6 3 10 -6 12 -4 7 9 -4 10 -7 20 -7 22 0 2 -9 4 -20 4 -11 0 -20 4 -20 8 0 12 -58 14 -81 2 -11 -6 -17 -16 -13 -23 4 -7 -2 -4 -13 6 -11 9 -22 14 -25 11 -8 -7 -48 32 -48 46 0 6 -8 5 -20 -2 -14 -9 -23 -10 -28 -3 -28 39 -115 82 -154 76 -10 -1 -18 4 -18 11 0 14 -80 88 -95 88 -5 0 -26 -30 -47 -68z"/>
<path d="M7020 548 c-25 -42 -25 -51 0 -38 13 7 20 7 20 0 0 -5 -16 -16 -35 -24 -23 -10 -35 -22 -35 -34 0 -11 -6 -22 -13 -25 -8 -3 -24 -25 -35 -49 -12 -23 -33 -61 -47 -83 -41 -66 -56 -95 -50 -95 4 0 0 -7 -8 -15 -15 -14 -107 -169 -107 -180 0 -3 40 -5 90 -5 75 0 88 2 84 15 -4 8 -1 15 5 15 6 0 11 -7 11 -15 0 -19 34 -19 50 0 7 8 18 15 24 15 6 0 2 -7 -8 -15 -19 -14 -18 -15 16 -15 26 0 38 5 41 18 4 15 5 16 6 0 1 -15 21 -17 217 -18 212 0 217 0 237 22 l19 23 -6 -22 -7 -23 282 0 c155 0 280 2 278 4 -5 4 -208 121 -275 157 -49 27 -54 28 -63 12 -5 -10 -13 -14 -18 -9 -4 5 -2 11 5 13 25 9 10 23 -82 77 -95 56 -112 64 -101 47 3 -5 1 -12 -4 -15 -5 -3 -12 5 -15 19 -6 24 -42 52 -53 41 -3 -3 -13 2 -22 12 -29 32 -75 56 -103 54 -20 -2 -26 2 -22 11 3 9 -29 33 -96 71 -88 50 -104 56 -136 50 -28 -5 -35 -4 -29 5 4 7 13 10 21 7 7 -3 16 -1 19 3 4 8 -16 21 -31 21 -2 0 -13 -15 -24 -32z"/>
<path d="M3921 546 c-7 -8 -15 -30 -18 -50 -5 -30 -8 -34 -24 -26 -26 15 -28 13 -16 -15 14 -30 38 -29 52 3 5 12 13 22 17 22 12 0 10 -28 -2 -35 -16 -10 -12 -45 5 -45 24 0 17 -20 -11 -30 -33 -13 -31 -14 -49 18 -9 15 -13 18 -10 7 18 -50 17 -55 -1 -56 -11 0 -14 -3 -6 -6 7 -3 27 0 44 6 38 13 47 7 25 -17 -10 -10 -17 -25 -17 -33 -1 -11 -4 -10 -14 4 -18 23 -24 21 -22 -7 0 -13 5 -22 10 -18 5 3 7 -2 3 -11 -8 -21 2 -22 30 -2 20 14 23 14 33 -4 5 -11 10 -29 10 -40 0 -12 5 -21 10 -21 6 0 8 12 5 28 -4 15 -8 37 -11 50 -2 12 0 22 6 22 5 0 10 -9 10 -21 0 -11 5 -17 10 -14 6 4 8 11 4 16 -3 5 -2 15 4 22 29 38 19 62 -13 31 -18 -19 -20 -18 -29 13 -6 19 -4 22 10 16 14 -5 16 -3 9 13 -4 10 -10 30 -12 44 -4 24 -4 24 11 6 9 -11 16 -23 16 -28 0 -4 9 -8 20 -8 21 0 27 15 10 25 -12 7 -10 85 2 85 4 0 8 7 8 16 0 25 -23 11 -49 -29 -29 -44 -41 -42 -14 3 17 30 17 32 1 41 -10 6 -18 17 -18 24 0 19 -14 19 -29 1z"/>
<path d="M5041 205 c-61 -106 -111 -195 -111 -199 0 -11 863 -2 866 9 2 6 -143 94 -321 196 l-324 186 -110 -192z"/>
<path d="M6618 339 c-2 -5 -11 -11 -20 -12 -9 -2 -22 -8 -30 -15 -8 -6 -19 -8 -23 -4 -5 4 -5 -1 -2 -10 4 -11 1 -18 -6 -19 -7 0 1 -6 17 -13 23 -11 25 -14 11 -19 -24 -10 -27 -9 -19 5 5 8 2 9 -9 5 -9 -3 -55 -18 -102 -32 -47 -15 -85 -28 -85 -31 0 -2 12 -1 26 2 18 5 25 3 21 -3 -4 -6 0 -14 9 -17 8 -3 12 -11 8 -17 -4 -8 -3 -9 5 -5 6 4 18 2 26 -4 8 -7 15 -9 15 -4 0 5 17 10 37 12 35 2 36 1 18 -13 -11 -8 -14 -15 -8 -15 14 0 46 44 50 69 1 8 8 20 16 26 7 5 21 22 31 37 16 24 16 27 1 36 -14 7 -12 11 14 22 17 7 31 16 31 21 0 13 -28 11 -32 -2z"/>
<path d="M8720 331 c0 -11 -5 -21 -10 -23 -12 -4 -1 -308 12 -308 4 0 8 72 8 161 0 104 3 158 10 154 6 -4 10 -68 10 -161 0 -128 2 -154 15 -154 12 0 13 23 8 153 -3 83 -9 154 -13 157 -3 3 -9 13 -13 23 -9 23 -27 22 -27 -2z"/>
<path d="M4021 271 c-1 -14 -8 -33 -18 -43 -15 -17 -15 -18 2 -18 16 0 15 -3 -5 -20 -30 -26 -31 -26 -57 13 -16 22 -23 26 -23 14 0 -9 -4 -17 -10 -17 -5 0 -10 -5 -10 -10 0 -6 12 -8 28 -5 15 3 21 2 15 -1 -22 -10 -15 -36 7 -29 11 4 20 2 20 -4 0 -6 -7 -11 -15 -11 -19 0 -19 -14 -2 -29 17 -13 27 -5 27 24 0 22 17 45 33 45 5 0 2 -12 -8 -26 -16 -25 -16 -26 5 -19 18 6 17 2 -9 -23 -20 -19 -31 -39 -31 -57 0 -15 -7 -33 -16 -40 -14 -10 -9 -12 27 -11 24 1 50 5 57 9 7 5 12 4 12 -2 0 -6 8 -11 18 -11 13 0 14 2 4 9 -10 6 -7 10 12 13 18 4 26 1 26 -8 0 -9 12 -14 33 -14 44 0 49 7 31 41 -18 36 -10 37 20 4 28 -30 40 -32 31 -4 -5 15 -2 22 14 26 12 3 21 10 21 15 0 5 -4 7 -10 3 -15 -9 -49 26 -42 44 5 14 2 13 -22 -2 -33 -22 -50 -14 -18 9 12 8 19 21 16 29 -4 8 -1 15 5 15 6 0 11 -7 11 -15 0 -8 5 -15 11 -15 5 0 7 5 4 10 -3 6 -1 10 4 10 6 0 11 4 11 10 0 5 -15 8 -32 6 -18 -2 -37 1 -41 8 -6 7 -7 5 -3 -6 3 -10 1 -20 -5 -23 -5 -4 -7 -10 -4 -15 6 -9 -66 -60 -85 -60 -5 0 -10 -4 -10 -10 0 -13 6 -13 31 0 24 13 24 2 0 -28 -21 -24 -46 -29 -57 -10 -5 8 -2 9 10 5 18 -7 18 -7 -1 39 -2 6 6 14 19 18 19 5 20 8 8 15 -8 6 -11 13 -7 17 4 4 -3 19 -15 32 -18 19 -20 26 -9 30 11 4 11 6 0 13 -11 7 -11 11 -2 17 9 5 10 17 4 37 -9 27 -9 28 -10 6z"/>
<path d="M3306 259 c-16 -23 -15 -24 6 -31 21 -6 21 -6 -5 -7 -21 -1 -31 -9 -45 -38 -9 -21 -22 -43 -27 -49 -6 -6 -22 -32 -35 -58 -25 -46 -25 -47 -6 -62 26 -19 252 -21 259 -1 3 9 8 9 18 1 19 -14 169 -19 169 -5 0 6 -7 29 -16 51 -14 34 -20 40 -38 34 -20 -6 -20 -5 -3 8 23 17 15 58 -15 85 -21 18 -21 18 -9 -4 8 -15 8 -23 1 -23 -5 0 -10 3 -10 8 0 4 -12 15 -26 26 -26 18 -26 18 -15 -2 6 -11 11 -25 11 -29 0 -12 -38 -10 -82 6 -39 13 -58 9 -58 -12 0 -7 -9 -13 -20 -13 -15 0 -19 5 -14 21 4 11 11 25 15 31 6 8 4 14 -6 18 -8 3 -15 13 -15 23 0 10 -4 24 -9 32 -7 10 -12 8 -25 -10z"/>
</g>
</svg>
