<?xml version="1.0" standalone="no"?>
<!DOCTYPE svg PUBLIC "-//W3C//DTD SVG 20010904//EN" "http://www.w3.org/TR/2001/REC-SVG-20010904/DTD/svg10.dtd">
<svg xmlns="http://www.w3.org/2000/svg" version="1.0" width="614.000000pt" height="557.000000pt" viewBox="0 0 614.000000 557.000000" preserveAspectRatio="xMidYMid meet">
<metadata>
Created by potrace 1.16, written by Peter Selinger 2001-2019
<meta name="Producer" content="Online-Convert"/></metadata>
<g transform="translate(0.000000,557.000000) scale(0.100000,-0.100000)" fill="#000000" stroke="none">
<path d="M2052 4022 c-17 -21 -21 -23 -21 -9 -1 22 -17 22 -30 0 -8 -16 -14 -16 -41 -6 -17 6 -38 9 -46 6 -8 -3 -14 0 -14 7 0 9 -3 10 -13 1 -9 -7 -17 -7 -24 0 -7 7 -14 5 -23 -6 -11 -14 -14 -13 -26 2 -12 17 -74 26 -74 11 0 -4 -12 -7 -27 -7 -50 0 -63 -4 -63 -19 0 -13 -2 -13 -17 0 -19 15 -26 16 -58 4 -11 -4 -36 -14 -55 -21 -19 -7 -53 -12 -75 -11 -22 2 -43 -2 -47 -8 -4 -6 -11 -11 -15 -12 -4 0 -21 -6 -38 -13 -16 -7 -39 -15 -49 -17 -11 -2 -23 -9 -26 -15 -4 -6 -34 -13 -66 -15 -51 -3 -62 -8 -86 -36 -26 -31 -28 -31 -46 -15 -34 31 -137 43 -165 19 -13 -12 -22 -13 -40 -4 -42 21 -65 23 -80 8 -16 -16 -50 -14 -72 4 -6 5 -42 12 -78 15 -51 3 -66 1 -71 -10 -7 -18 -33 -20 -38 -3 -4 10 -10 10 -31 1 -20 -9 -28 -9 -37 2 -9 11 -15 9 -33 -8 -17 -17 -19 -24 -10 -30 25 -16 12 -27 -24 -23 -21 3 -118 8 -216 12 l-177 6 0 -275 0 -275 96 3 c68 2 99 7 105 16 7 11 9 11 9 1 0 -9 24 -11 103 -8 56 3 203 8 327 11 124 3 275 7 335 10 228 10 667 19 863 18 165 0 202 2 202 13 0 18 10 18 24 -1 8 -11 34 -17 81 -20 39 -3 86 -8 105 -12 37 -7 48 -9 95 -12 17 -2 25 -5 18 -7 -7 -3 -9 -12 -6 -21 5 -13 2 -15 -15 -11 -12 4 -22 2 -22 -4 0 -5 12 -8 28 -6 23 3 27 -1 27 -24 1 -50 60 -100 80 -68 5 7 11 8 19 1 6 -5 36 -11 66 -12 30 -1 58 -7 61 -12 4 -5 17 -2 30 7 25 16 69 12 69 -6 0 -5 8 -7 19 -3 12 3 21 0 25 -11 3 -9 13 -14 21 -10 8 3 18 -2 23 -11 7 -12 18 -14 48 -9 21 4 79 7 128 7 50 0 96 5 103 10 8 8 18 6 33 -4 25 -18 81 -8 111 19 18 16 19 16 19 0 0 -9 5 -14 10 -11 6 3 10 1 10 -4 0 -6 5 -11 10 -11 6 0 10 9 10 20 0 11 3 19 8 18 4 -1 19 4 34 10 14 6 39 10 55 9 23 -2 28 -7 28 -27 0 -37 19 -36 25 2 5 32 6 32 58 31 28 -1 57 -1 62 -2 6 -1 11 -18 11 -38 2 -34 2 -35 6 -8 6 39 11 44 53 45 73 1 85 -4 89 -41 l4 -34 7 30 c3 17 11 29 18 27 7 -1 12 2 12 7 0 5 26 8 57 7 56 -1 58 -2 64 -31 l6 -30 4 30 c4 33 -5 30 117 26 19 -1 22 -6 22 -41 0 -23 5 -40 11 -40 8 0 10 12 6 33 -7 42 1 53 33 50 14 -1 44 -4 68 -5 41 -2 43 -4 36 -28 -11 -42 -10 -55 6 -55 11 0 14 10 13 36 l-2 37 67 -3 c37 -1 75 -6 85 -10 9 -4 23 -2 31 4 10 9 16 8 26 -4 9 -11 16 -12 25 -5 9 8 14 6 18 -4 8 -21 0 -24 -55 -22 -46 2 -48 1 -48 -26 0 -30 -1 -29 85 -33 58 -3 65 -4 64 -12 -1 -5 -1 -35 1 -68 1 -44 4 -55 10 -40 5 12 9 14 9 6 2 -35 14 4 15 48 1 28 5 53 9 57 4 4 7 2 7 -4 0 -7 5 -12 11 -12 31 0 81 -90 77 -140 -1 -8 0 -26 1 -40 l3 -25 8 25 c4 14 9 52 10 85 1 55 17 122 20 85 0 -11 6 -8 20 9 l20 23 0 -45 c0 -44 -14 -71 -23 -45 -2 7 -9 -4 -16 -25 -15 -45 -7 -82 12 -56 12 16 61 34 52 19 -3 -4 2 -11 11 -14 8 -3 12 -2 9 3 -3 5 4 13 16 16 19 6 20 8 3 26 -15 17 -15 19 -1 19 9 0 22 -9 30 -21 10 -13 17 -17 22 -10 3 6 11 9 16 6 5 -4 9 -2 9 4 0 5 13 22 29 38 16 16 31 38 33 49 5 19 5 19 13 -1 14 -32 36 -50 44 -36 20 31 86 52 164 52 60 -1 79 3 83 14 4 8 15 15 25 15 10 0 19 7 19 15 0 13 6 17 26 14 4 0 10 5 14 11 4 6 25 14 48 17 l41 5 4 -38 4 -39 1 35 2 36 73 -3 c39 -1 80 -3 90 -3 13 0 17 -9 18 -42 l2 -43 6 40 6 40 55 3 c84 4 133 -9 141 -38 7 -25 7 -25 8 3 1 25 4 27 40 27 22 0 43 -5 47 -11 4 -7 24 -9 55 -5 l49 7 1 -53 1 -53 10 52 10 53 69 -6 69 -7 0 217 c0 225 1 221 -42 217 -10 -1 -18 3 -18 8 0 6 3 10 8 10 4 -1 17 -1 30 0 21 1 22 4 22 100 0 80 -3 100 -15 105 -9 3 -18 -1 -21 -9 -8 -19 -24 -9 -24 15 0 12 10 21 30 25 34 7 34 8 18 34 -9 15 -9 25 0 46 17 36 15 100 -3 115 -10 9 -15 9 -15 1 0 -21 -18 -11 -28 17 -9 22 -11 23 -12 7 -1 -11 -2 -26 -1 -32 1 -7 -5 -13 -14 -13 -8 0 -15 -4 -15 -10 0 -5 -7 -10 -15 -10 -8 0 -15 -5 -15 -12 0 -6 -3 -9 -6 -5 -4 3 -3 14 0 24 4 10 6 18 5 18 -1 0 3 10 10 23 7 14 8 22 1 22 -5 0 -13 0 -17 0 -5 0 -8 -3 -8 -7 -2 -27 -18 -53 -28 -46 -7 5 -19 8 -27 7 -8 -1 -20 -2 -26 -3 -16 -1 -24 -37 -11 -50 8 -8 1 -11 -26 -11 -26 0 -37 -4 -37 -15 0 -12 13 -15 55 -15 47 0 54 -2 43 -14 -7 -8 -16 -12 -20 -9 -5 2 -8 -6 -8 -19 -1 -41 -68 -76 -113 -59 -19 8 -36 6 -61 -4 -22 -9 -37 -11 -41 -5 -3 6 -15 10 -25 10 -10 0 -31 11 -47 24 -22 18 -33 22 -46 15 -19 -11 -41 -3 -32 12 4 5 27 9 53 10 26 0 40 3 32 6 -8 4 -20 13 -27 22 -7 9 -13 11 -13 5 0 -7 -7 -15 -16 -18 -10 -4 -14 -1 -12 6 5 13 -46 65 -71 73 -10 3 -25 21 -34 41 -14 29 -21 34 -40 29 -17 -5 -19 -4 -7 4 13 10 13 11 0 12 -8 1 -19 1 -23 0 -4 -1 -15 -2 -25 -4 -32 -5 -44 -17 -32 -32 38 -46 -50 -32 -92 14 -14 16 -29 27 -32 24 -3 -4 -6 1 -6 9 0 9 -11 23 -25 32 -25 17 -25 16 -20 -7 5 -19 2 -25 -13 -29 -11 -3 -25 -1 -30 4 -6 6 -12 6 -17 -2 -5 -8 -11 -6 -22 7 -14 17 -14 17 -10 -4 4 -17 -2 -24 -26 -33 -21 -7 -33 -7 -37 0 -7 11 -40 3 -40 -9 0 -7 52 -32 73 -35 6 -1 17 -5 24 -9 6 -4 19 -4 29 0 12 4 15 3 10 -5 -5 -8 -2 -10 8 -6 11 4 16 0 16 -10 0 -19 56 -46 94 -46 14 0 27 -4 30 -9 4 -5 38 -15 76 -21 86 -14 99 -29 26 -28 -30 1 -61 -3 -68 -9 -7 -6 -27 -13 -45 -16 -29 -6 -33 -3 -50 30 -21 42 -37 45 -41 8 -4 -33 -12 -32 -40 9 -20 30 -56 52 -86 54 -5 0 -12 6 -17 13 -6 11 -9 10 -14 -4 -6 -13 -11 -14 -27 -6 -11 6 -22 8 -26 5 -3 -3 0 -6 6 -6 7 0 12 -9 12 -20 0 -22 -3 -21 -52 24 -19 17 -26 18 -68 7 -45 -12 -80 -7 -80 10 0 16 -45 4 -56 -15 -11 -19 -12 -19 -19 3 -4 14 -12 20 -21 17 -9 -3 -19 4 -26 19 -13 29 -33 38 -58 25 -20 -11 -50 -4 -50 11 0 14 -28 11 -33 -3 -4 -10 -8 -10 -14 -2 -13 19 -86 36 -94 22 -6 -9 -11 -9 -22 1 -11 8 -17 9 -22 1 -4 -7 -11 -6 -20 4 -19 19 -64 9 -95 -21 l-24 -24 -8 21 c-7 20 -12 21 -110 15 -104 -6 -189 -8 -198 -5 -3 1 -15 1 -27 1 -11 -1 -24 2 -27 8 -4 6 -13 8 -21 4 -8 -3 -15 -1 -15 5 0 11 -150 7 -185 -5 -11 -4 -29 -7 -40 -8 -11 -1 -31 -6 -45 -12 -20 -9 -27 -8 -37 5 -9 10 -13 11 -13 3 0 -7 -4 -10 -9 -6 -5 3 -12 1 -16 -5 -10 -16 -24 -12 -51 17 -21 23 -28 25 -44 15 -11 -6 -25 -10 -32 -7 -7 3 -40 7 -73 10 -76 6 -98 9 -111 17 -5 4 -26 3 -45 -1 -18 -4 -44 -6 -57 -5 -12 1 -25 -3 -28 -8 -3 -5 -12 -4 -20 3 -8 6 -17 9 -21 6 -3 -4 -13 -1 -21 5 -19 16 -46 16 -52 1 -4 -9 -14 -5 -34 14 -26 24 -31 25 -62 14 -19 -7 -38 -10 -44 -6 -20 12 -155 12 -181 -1 -14 -7 -41 -13 -60 -13 -34 0 -90 -6 -99 -10 -12 -6 -47 -13 -75 -15 -16 -1 -40 -8 -51 -14 -24 -13 -34 -7 -34 19 0 20 -35 43 -50 34 -5 -3 -18 3 -30 15 -24 24 -33 25 -51 4 -12 -15 -15 -14 -30 4 -16 21 -16 21 -37 -6z m222 -227 c11 -8 34 -15 50 -15 17 -1 42 -7 56 -15 14 -8 39 -14 55 -14 l30 0 -24 19 c-28 24 -14 25 54 6 28 -8 77 -21 109 -30 33 -9 67 -14 75 -10 9 4 21 8 26 9 17 2 50 18 56 27 3 4 13 2 23 -5 16 -11 16 -15 1 -50 -14 -35 -14 -39 2 -56 10 -10 28 -22 40 -25 14 -5 20 -12 16 -22 -6 -16 -33 -19 -33 -4 0 15 -16 12 -34 -5 -18 -18 -24 -19 -40 -2 -7 7 -34 12 -59 12 -26 0 -47 3 -47 8 0 4 13 7 30 7 22 0 28 4 24 15 -5 12 -20 14 -73 11 -36 -2 -79 -9 -96 -16 -16 -7 -35 -13 -42 -14 -7 -1 -16 -5 -19 -9 -4 -4 -14 -7 -23 -7 -14 0 -14 2 -1 10 12 8 10 10 -10 11 -17 1 -19 3 -7 6 9 2 17 8 17 13 0 5 14 11 30 15 27 6 29 9 18 23 -10 12 -10 14 0 8 6 -4 12 -2 12 3 0 13 -33 15 -44 4 -10 -11 -146 -10 -146 0 0 5 -7 2 -15 -6 -8 -9 -19 -17 -25 -19 -6 -2 -13 -12 -15 -23 -2 -11 -4 -22 -5 -25 0 -3 -5 3 -11 14 -9 14 -8 20 2 27 11 7 10 9 -3 9 -10 0 -20 10 -24 23 -8 35 -50 25 -58 -14 -5 -24 -10 -29 -36 -29 -23 0 -33 -6 -39 -22 -9 -23 -9 -22 -21 7 -6 17 -13 38 -16 49 -5 27 -25 48 -41 42 -21 -8 -15 18 8 38 15 12 29 16 48 11 14 -4 42 -8 61 -8 19 0 47 -6 62 -13 31 -16 68 -18 68 -4 0 5 7 7 15 4 20 -8 19 5 -2 28 -19 22 -6 23 21 3z m2526 -100 c52 -3 109 -7 125 -11 17 -3 48 -7 70 -10 22 -2 60 -6 85 -9 35 -4 40 -3 23 4 -36 16 -29 35 10 26 92 -20 111 -22 127 -13 12 8 35 5 85 -11 82 -25 113 -28 96 -7 -10 12 -6 13 26 4 21 -6 60 -11 86 -12 42 0 47 -3 45 -21 -3 -20 -10 -20 -511 -23 -366 -2 -507 1 -502 8 4 7 -2 14 -15 17 -14 4 -20 12 -18 27 5 32 45 46 113 41 33 -3 103 -7 155 -10z m-550 -39 c52 -3 116 -5 141 -5 38 -1 48 -5 52 -21 5 -19 1 -21 -36 -19 -23 1 -126 -2 -228 -6 -125 -5 -188 -4 -193 3 -9 16 51 32 98 27 22 -3 35 -2 29 1 -26 12 -14 34 15 29 15 -3 70 -7 122 -9z m-1762 -67 c-10 -5 -15 -16 -12 -24 4 -10 0 -15 -12 -16 -17 -1 -17 -2 -1 -6 20 -5 23 -29 5 -36 -7 -2 -26 0 -42 4 -22 6 -34 5 -47 -7 -10 -9 -19 -11 -23 -6 -3 6 -15 8 -27 5 -12 -4 -25 0 -31 8 -7 10 -8 5 -4 -16 3 -16 3 -24 0 -17 -8 17 -48 16 -41 -1 4 -10 -2 -13 -18 -9 -15 2 -22 9 -18 18 4 11 -1 11 -31 -1 -21 -9 -36 -11 -36 -5 0 15 -23 8 -42 -14 -15 -16 -22 -17 -40 -7 -13 6 -15 9 -6 7 10 -3 25 2 34 12 16 16 15 17 -22 26 -37 8 -53 21 -54 39 0 5 10 7 23 6 12 -2 28 0 35 4 17 11 32 0 32 -25 0 -20 13 -17 16 3 1 5 2 13 3 18 0 5 16 5 36 -1 19 -6 32 -15 29 -20 -3 -4 0 -8 5 -8 6 0 11 5 11 10 0 6 8 10 18 10 10 0 24 6 30 12 10 10 15 10 22 -2 7 -10 12 -12 18 -4 10 16 82 5 82 -12 0 -12 4 -12 20 -2 11 7 20 18 20 25 0 6 6 14 13 16 9 4 8 8 -3 16 -11 8 -4 11 30 11 35 -1 41 -3 28 -11z m2503 6 c14 -5 19 -16 19 -42 0 -45 14 -35 14 10 l1 32 81 3 82 3 4 -41 c2 -23 1 -43 -3 -45 -7 -5 -508 -6 -559 -2 -19 2 -56 4 -82 5 -48 2 -48 2 -48 37 l0 35 80 0 80 0 2 -37 1 -38 4 38 4 37 80 0 79 0 1 -27 c1 -21 3 -23 6 -8 2 11 6 25 8 31 4 12 115 19 146 9z m-1129 -28 c5 -8 8 -6 8 6 0 14 10 17 70 17 49 0 70 -4 71 -12 0 -10 2 -10 6 0 3 8 28 12 75 12 67 0 70 -1 55 -18 -18 -20 -11 -37 16 -38 9 0 27 -2 40 -4 19 -2 18 -3 -8 -9 -16 -4 -40 -4 -51 0 -14 5 -29 2 -43 -7 -11 -8 -25 -13 -30 -10 -5 3 -62 8 -127 11 -137 7 -191 11 -219 18 -11 2 -23 0 -26 -5 -9 -13 -130 -13 -138 0 -4 7 -12 8 -21 2 -23 -15 -53 -12 -47 4 3 7 0 19 -6 25 -8 8 -8 11 1 11 7 0 12 -4 12 -9 0 -5 17 -7 38 -3 20 3 72 6 114 8 43 1 85 8 95 13 22 13 105 4 115 -12z m628 -11 c0 -26 -5 -35 -22 -39 -12 -3 -29 -2 -39 4 -11 5 -27 5 -41 0 -16 -6 -27 -4 -36 5 -15 16 -42 19 -42 3 0 -5 5 -7 10 -4 6 3 10 1 10 -4 0 -6 -21 -11 -50 -11 -27 0 -50 5 -50 10 0 6 8 10 18 10 15 0 18 6 14 29 l-4 29 116 1 116 1 0 -34z"/>
<path d="M2133 3217 c1 -7 -9 -12 -23 -12 -33 -1 -71 -14 -88 -31 -10 -10 -10 -14 -1 -14 7 0 9 -3 6 -7 -4 -3 -16 2 -27 12 -14 13 -28 16 -50 11 -19 -3 -29 -2 -25 4 3 6 2 10 -4 10 -5 0 -14 -6 -18 -12 -4 -7 -19 -19 -32 -26 -20 -12 -26 -11 -47 9 -21 20 -26 21 -41 8 -10 -9 -35 -14 -58 -13 -30 1 -44 -3 -57 -20 l-18 -21 0 23 c0 12 -4 22 -8 22 -14 0 -32 -23 -32 -41 0 -14 7 -17 35 -14 19 2 35 -1 35 -7 0 -5 5 -6 10 -3 6 4 16 2 23 -3 7 -5 36 -10 65 -11 41 -1 54 2 59 15 6 15 7 15 18 1 10 -14 20 -14 79 -4 54 9 71 9 88 -2 18 -11 22 -11 30 3 11 20 28 12 28 -14 0 -25 26 -16 33 11 l6 20 20 -20 c13 -13 27 -18 42 -14 13 4 18 8 11 11 -21 7 -13 18 15 20 14 1 29 4 31 7 12 11 8 64 -5 69 -7 3 -13 12 -13 21 0 8 -4 15 -10 15 -5 0 -10 -4 -10 -8 0 -4 -9 -8 -20 -8 -11 0 -20 3 -20 7 0 4 -7 9 -15 13 -8 3 -14 0 -12 -7z"/>
<path d="M286 3103 c-11 -12 -6 -23 12 -23 16 -1 16 -1 -1 -11 -14 -8 -22 -6 -36 10 -18 21 -89 31 -76 12 3 -5 1 -12 -5 -16 -5 -3 -10 1 -10 9 0 17 -15 22 -24 8 -2 -4 -24 -9 -47 -11 -23 -1 -47 -5 -52 -8 -6 -3 -7 -1 -3 5 8 13 -4 15 -28 6 -12 -5 -16 -21 -16 -66 0 -37 4 -57 10 -53 6 4 8 11 5 16 -4 5 3 9 15 9 13 0 19 -4 14 -12 -8 -12 -8 -12 79 16 28 9 45 11 41 5 -4 -7 1 -9 12 -7 12 2 18 11 17 23 -1 19 -1 19 11 3 17 -22 37 -23 29 -2 -5 14 -3 15 14 6 22 -12 93 -5 93 9 0 5 7 9 15 9 8 0 15 5 15 10 0 6 -4 10 -10 10 -5 0 -10 4 -10 10 0 5 13 7 30 4 24 -5 30 -3 30 11 0 17 -11 17 -71 -1 -9 -2 -24 2 -32 10 -8 8 -17 12 -21 9z"/>
<path d="M5950 2419 c0 -11 -4 -17 -10 -14 -5 3 -10 -2 -10 -12 0 -10 -3 -29 -7 -42 -4 -17 -3 -22 5 -17 8 5 12 -4 13 -26 2 -30 2 -31 6 -5 4 25 33 40 33 17 0 -5 -4 -10 -10 -10 -5 0 -7 -7 -3 -16 4 -10 -1 -17 -16 -21 -12 -3 -21 -14 -22 -27 -1 -19 -2 -19 -6 -2 -3 11 -8 15 -12 8 -3 -6 -19 -14 -34 -17 -25 -7 -27 -6 -21 21 5 27 3 29 -25 30 -17 1 -39 9 -49 18 -20 17 -52 22 -52 7 0 -5 6 -12 13 -15 6 -3 -3 -4 -21 -2 -18 3 -30 0 -26 -5 3 -5 14 -9 25 -9 16 0 19 -6 16 -35 -1 -19 -5 -35 -9 -35 -5 0 -8 -7 -8 -15 0 -8 5 -15 10 -15 6 0 10 -10 10 -22 0 -19 -2 -20 -10 -8 -8 13 -10 13 -10 1 0 -12 -3 -12 -12 -3 -8 8 -9 21 -1 47 6 19 9 35 7 35 -2 0 -23 -19 -46 -41 -33 -32 -44 -38 -46 -25 -7 32 -22 15 -22 -23 0 -62 -15 -56 -18 7 -2 32 -5 66 -9 76 -4 15 -1 18 11 13 18 -7 20 18 6 63 -7 23 -8 23 -9 3 -1 -23 -21 -43 -21 -21 -1 7 -7 0 -14 -17 l-12 -30 -12 33 c-6 17 -16 32 -21 32 -14 0 -14 -13 -1 -26 8 -8 7 -20 -2 -39 l-13 -29 -6 30 -7 29 -1 -27 c-1 -16 6 -31 17 -37 13 -9 14 -12 4 -19 -8 -6 -12 -23 -10 -42 2 -25 11 -38 33 -51 17 -10 33 -18 37 -18 13 -2 -6 45 -26 62 -11 10 -15 15 -7 12 11 -6 12 0 9 26 -3 19 -9 43 -13 54 -6 14 1 11 25 -12 27 -27 31 -35 21 -47 -9 -10 -9 -20 -3 -33 6 -10 9 -30 7 -45 -2 -16 4 -32 13 -40 9 -7 13 -8 10 -3 -4 6 -3 17 3 25 6 11 9 8 9 -12 0 -15 5 -30 10 -33 6 -3 10 -11 10 -16 0 -6 -5 -7 -11 -3 -7 4 -9 -2 -7 -17 2 -18 9 -24 29 -24 19 -1 25 3 22 16 -3 12 7 19 41 29 46 13 60 33 31 44 -18 6 -20 26 -4 26 7 0 22 11 35 25 28 30 30 31 37 4 3 -12 10 -18 16 -15 18 11 24 -17 7 -30 -11 -7 -15 -18 -10 -25 4 -7 3 -10 -3 -6 -6 4 -14 0 -17 -8 -8 -21 20 -31 39 -15 8 7 15 23 15 36 0 14 6 24 15 24 9 0 12 6 9 15 -4 8 -10 13 -14 10 -9 -6 -35 23 -27 31 3 3 14 1 25 -5 23 -12 36 6 21 30 -17 27 -10 42 15 35 14 -3 27 -2 30 3 3 5 15 7 26 4 11 -3 20 -1 20 4 0 6 12 8 26 5 20 -3 25 -2 19 7 -5 9 -2 9 14 -1 17 -10 18 -14 6 -21 -10 -5 -12 -14 -6 -30 4 -12 7 -29 5 -37 -2 -8 3 0 11 18 19 40 55 78 55 58 0 -8 -4 -16 -10 -18 -6 -2 -5 -13 3 -28 7 -14 11 -34 9 -44 -4 -18 -5 -18 -18 5 -13 24 -13 23 -14 -13 0 -36 14 -52 22 -26 3 9 6 9 12 0 5 -8 -3 -14 -24 -19 -27 -5 -30 -7 -15 -16 12 -6 20 -6 25 3 4 7 16 9 26 6 17 -5 19 -1 17 42 -2 35 -1 42 7 27 6 -13 9 30 9 131 l-1 152 -30 6 c-39 8 -43 4 -40 -41 2 -28 0 -34 -12 -30 -13 5 -15 -1 -11 -34 4 -26 2 -38 -5 -34 -5 3 -10 2 -10 -4 0 -5 8 -15 18 -20 15 -9 15 -12 2 -21 -11 -7 -16 -5 -18 5 -2 9 -8 13 -13 10 -5 -4 -10 0 -10 7 -6 56 -37 154 -38 121 -1 -7 -5 -13 -11 -13 -6 0 -7 18 -3 45 3 25 3 45 -1 45 -3 0 -6 -9 -6 -21z"/>
<path d="M5370 2300 c-1 -3 -3 -12 -5 -21 -1 -9 -6 -27 -10 -39 -5 -15 -4 -20 4 -16 7 4 11 -1 11 -13 0 -24 -15 -28 -23 -7 -6 14 -47 11 -45 -3 3 -25 -4 -51 -12 -46 -6 4 -8 11 -5 16 4 5 0 9 -7 10 -40 2 -79 19 -45 19 22 0 22 13 -1 33 -23 21 -47 7 -39 -23 4 -16 2 -20 -9 -16 -8 3 -14 1 -14 -4 0 -9 14 -14 32 -11 4 0 5 -6 1 -15 -5 -13 -7 -13 -14 -2 -7 10 -9 10 -9 -2 0 -13 -1 -13 -10 0 -5 8 -10 10 -10 5 0 -6 -15 -15 -32 -20 -22 -7 -34 -17 -36 -32 -6 -42 -67 -66 -96 -38 -21 21 -21 49 0 41 8 -3 12 -2 9 4 -3 6 1 10 11 10 12 0 15 6 10 23 -3 12 -6 30 -6 40 0 9 -5 17 -11 17 -6 0 -9 -10 -6 -22 6 -27 -5 -61 -18 -56 -6 2 -11 -9 -13 -24 -4 -30 -22 -39 -22 -11 0 13 -4 11 -20 -7 -18 -21 -20 -22 -21 -4 -1 10 0 29 0 40 1 12 -5 24 -13 27 -9 3 -12 14 -9 25 4 16 1 19 -20 15 -21 -4 -26 -12 -31 -50 -11 -82 -8 -123 10 -123 11 0 14 -5 10 -16 -4 -12 -2 -15 9 -10 8 3 15 1 15 -5 0 -6 5 -7 11 -4 11 7 49 -22 49 -38 0 -5 -7 -7 -15 -3 -8 3 -15 0 -15 -6 0 -7 -14 -9 -40 -5 -22 3 -40 1 -40 -4 0 -5 -11 -9 -25 -9 -14 0 -25 5 -25 10 0 6 -11 10 -24 10 -33 0 -71 47 -55 67 17 20 3 28 -16 9 -20 -19 -25 -20 -25 -3 0 6 14 20 30 29 44 25 39 55 -7 49 -7 -1 -13 5 -13 14 0 14 -29 21 -67 16 -7 -1 -13 4 -13 10 0 7 -2 10 -5 7 -11 -10 7 -37 21 -31 8 3 14 1 14 -5 0 -6 3 -18 6 -27 5 -13 2 -16 -17 -15 -44 4 -59 0 -59 -15 0 -8 -6 -15 -14 -15 -8 0 -17 -12 -19 -27 l-4 -28 -2 28 c0 16 -5 25 -11 22 -5 -3 -10 -1 -10 4 0 10 14 15 32 12 4 0 5 6 2 14 -4 8 -10 12 -15 9 -5 -3 -9 2 -9 10 0 9 5 16 10 16 6 0 10 4 10 9 0 5 -15 9 -32 8 -25 -2 -32 -6 -30 -19 2 -15 -1 -16 -23 -8 -38 14 -45 13 -45 -11 0 -16 4 -19 20 -14 16 5 20 2 20 -16 0 -18 3 -20 12 -11 7 7 17 12 24 12 15 0 26 -42 14 -54 -7 -7 -10 -6 -10 2 0 18 -69 15 -76 -3 -5 -11 -9 -12 -19 -2 -8 8 -10 18 -4 29 12 23 11 51 -1 43 -5 -3 -10 3 -10 14 0 11 -4 22 -9 25 -5 4 -7 -4 -3 -16 4 -15 2 -19 -7 -14 -20 13 -121 17 -121 5 0 -6 -19 -10 -47 -8 -35 2 -47 -1 -45 -10 2 -10 -9 -11 -48 -6 -36 5 -55 3 -67 -6 -8 -8 -29 -12 -46 -10 -43 4 -107 -29 -107 -55 0 -12 -6 -27 -13 -33 -11 -9 -14 -3 -13 32 1 39 -1 42 -28 45 -22 3 -27 0 -23 -11 5 -12 -16 -14 -136 -13 -159 1 -303 -9 -422 -29 -44 -8 -107 -17 -139 -20 -33 -4 -71 -11 -85 -17 -14 -5 -62 -10 -106 -10 -44 0 -84 -4 -90 -8 -5 -4 -37 -10 -70 -14 -33 -4 -71 -9 -85 -11 -13 -1 -26 -8 -28 -14 -2 -6 -12 -11 -23 -11 -35 0 -23 -38 18 -55 60 -25 66 -33 42 -63 -18 -24 -19 -27 -4 -32 9 -3 16 -10 15 -15 -1 -6 7 -14 17 -20 49 -27 44 -55 -9 -52 -36 2 -43 -1 -40 -15 2 -10 -3 -18 -10 -18 -7 0 2 -9 20 -20 17 -11 32 -27 32 -37 0 -14 -3 -14 -20 4 -10 12 -29 24 -40 28 -14 5 -19 12 -15 25 4 14 -2 19 -29 24 -20 4 -39 14 -44 22 -6 11 -20 14 -45 12 l-37 -3 22 -32 c13 -18 32 -33 43 -34 11 0 14 -3 8 -6 -7 -2 -13 -11 -13 -18 0 -17 -31 -35 -59 -35 -12 0 -21 -5 -21 -10 0 -7 -19 -10 -45 -9 -35 2 -48 -2 -60 -17 -9 -12 -14 -14 -15 -6 0 9 -7 11 -21 7 -15 -5 -19 -4 -15 4 5 8 0 8 -20 1 -27 -11 -50 3 -38 22 3 4 0 8 -6 8 -6 0 -8 -10 -4 -24 3 -13 1 -27 -5 -30 -6 -4 -11 -13 -11 -19 0 -7 4 -6 10 3 5 8 10 10 10 4 0 -6 -7 -17 -15 -24 -9 -7 -13 -15 -11 -18 8 -8 -14 -42 -26 -42 -9 0 -9 3 -1 11 6 6 9 18 6 26 -4 11 -10 5 -19 -17 -17 -40 -17 -39 1 -36 22 3 65 47 58 59 -3 6 -1 7 6 3 6 -4 9 -12 6 -17 -4 -5 -1 -9 4 -9 6 0 10 -3 10 -7 -5 -34 2 -38 60 -38 47 0 64 -5 83 -21 13 -12 31 -20 41 -19 9 2 17 -1 17 -6 0 -5 10 -9 23 -10 21 -1 21 -1 -3 -9 -14 -4 -19 -8 -12 -9 6 -1 12 -5 12 -10 0 -5 -15 -8 -34 -6 -27 2 -35 -1 -39 -16 -7 -25 -37 -25 -37 0 0 11 5 23 10 26 15 9 12 19 -11 33 -26 16 -56 -2 -39 -23 8 -10 8 -15 -1 -21 -7 -4 -9 -3 -6 3 4 6 -2 13 -13 16 -11 3 -20 12 -20 20 0 11 -7 13 -22 10 -34 -9 -47 -22 -41 -42 5 -20 -18 -42 -25 -23 -2 8 -12 7 -34 -4 -19 -10 -28 -21 -24 -30 3 -8 3 -21 -1 -29 -5 -14 -7 -14 -23 0 -17 15 -20 15 -43 0 -23 -15 -25 -14 -32 2 -6 16 -9 15 -30 -12 -22 -27 -24 -28 -18 -6 4 18 3 22 -6 17 -8 -6 -11 -2 -9 10 2 14 -3 19 -22 19 -18 0 -25 -5 -25 -20 0 -11 -4 -23 -10 -27 -6 -5 -5 -8 3 -8 6 0 12 -7 12 -15 0 -23 -27 -18 -33 6 -4 14 -11 20 -21 16 -10 -4 -14 0 -11 14 3 12 -5 25 -20 35 -22 14 -26 14 -50 -3 -15 -11 -23 -25 -21 -35 5 -24 -11 -23 -23 1 -6 10 -21 21 -34 25 -13 3 -29 17 -37 31 -10 19 -16 22 -27 14 -8 -7 -13 -8 -13 -1 0 17 53 46 92 49 21 2 57 8 80 12 32 7 36 9 16 10 -16 1 -28 6 -28 11 0 6 12 10 28 10 62 -1 63 1 60 44 -2 26 -7 40 -16 39 -6 -2 -12 2 -12 7 0 6 -7 10 -16 10 -8 0 -25 5 -37 12 -22 11 -117 18 -147 11 -9 -3 -17 -17 -18 -35 -3 -36 -10 -50 -22 -43 -4 3 -10 -2 -14 -10 -3 -8 -11 -12 -19 -9 -8 3 -20 -3 -28 -12 -11 -13 -11 -18 -1 -21 6 -3 10 -9 6 -14 -3 -5 2 -9 10 -9 24 0 19 -13 -9 -26 -19 -10 -27 -9 -38 5 -26 29 -38 61 -31 83 4 12 2 18 -4 14 -5 -3 -12 -21 -14 -40 -3 -27 -1 -33 12 -28 13 5 13 3 1 -11 -7 -9 -10 -17 -5 -17 5 0 2 -5 -6 -11 -13 -9 -12 -10 2 -5 21 6 31 -8 23 -34 -3 -11 -12 -17 -20 -14 -9 4 -16 -3 -21 -20 -3 -14 -10 -26 -14 -26 -4 0 -11 -7 -14 -16 -3 -8 -2 -12 4 -9 6 3 10 0 10 -8 0 -23 -31 -30 -37 -8 -4 16 -10 17 -41 10 -22 -5 -41 -4 -46 1 -15 15 -36 12 -36 -5 0 -8 -3 -15 -6 -15 -10 0 -44 41 -44 52 0 6 -9 21 -20 35 -18 24 -37 77 -54 155 -4 15 -15 36 -27 46 -11 11 -22 37 -26 58 -3 22 -22 61 -42 89 -21 28 -43 64 -49 80 -7 17 -21 41 -32 55 l-20 25 0 -23 c0 -25 31 -95 72 -164 25 -40 27 -50 16 -67 -10 -17 -9 -23 6 -40 10 -10 16 -28 15 -38 -3 -24 93 -223 107 -223 12 0 23 -26 29 -67 2 -13 -1 -23 -6 -23 -15 0 -39 -26 -39 -42 0 -10 -2 -10 -8 0 -7 10 -15 10 -42 -1 -18 -8 -27 -16 -20 -19 25 -8 -1 -28 -35 -28 -19 0 -37 -5 -40 -10 -11 -17 -41 -11 -63 13 -29 30 -28 40 3 35 14 -3 25 -1 25 3 0 5 6 6 14 3 8 -3 17 -1 21 5 3 6 -1 11 -9 11 -26 0 -18 28 11 42 29 14 47 46 20 35 -8 -3 -18 -3 -21 0 -8 9 23 35 37 31 6 -3 20 4 30 14 18 19 17 19 -25 16 -29 -2 -42 -7 -40 -16 2 -10 -2 -10 -19 -1 -15 8 -19 8 -15 0 4 -6 2 -11 -3 -11 -6 0 -11 14 -11 31 0 42 -18 73 -34 60 -12 -10 -35 -9 -68 4 -12 5 -18 2 -18 -8 0 -8 -6 -17 -12 -19 -22 -7 -63 6 -63 21 0 15 33 31 52 24 6 -3 25 5 41 17 17 12 35 19 41 16 6 -4 11 -3 11 3 0 6 -8 14 -17 20 -32 16 -144 41 -188 41 -24 0 -46 4 -49 8 -2 4 -22 9 -43 10 -21 1 -50 5 -64 8 -14 2 -37 1 -50 -5 -31 -11 -70 5 -48 21 10 7 8 8 -6 2 -11 -4 -29 -6 -40 -5 -11 1 -57 2 -103 2 -47 0 -81 3 -77 8 3 5 -25 12 -62 15 -38 3 -89 8 -115 12 l-48 6 0 -721 0 -721 774 0 775 0 4 28 4 27 2 -27 c1 -21 6 -28 22 -28 11 0 17 4 14 10 -9 14 13 40 34 40 13 0 13 -2 2 -9 -8 -5 -11 -16 -8 -25 9 -24 112 -23 126 2 10 16 10 16 11 0 0 -16 13 -18 125 -18 111 0 124 2 118 16 -4 12 -2 15 8 12 7 -2 24 1 37 8 31 16 55 7 49 -17 -4 -16 1 -19 39 -19 24 0 44 5 44 10 0 6 7 10 15 10 8 0 15 7 15 15 0 8 1 15 3 16 1 0 23 3 50 6 40 4 47 2 47 -12 0 -14 3 -15 15 -5 19 16 55 3 55 -21 0 -17 7 -19 69 -19 46 0 71 4 74 13 4 9 6 9 6 0 1 -16 186 -18 226 -3 17 7 24 7 20 0 -4 -6 40 -10 125 -10 126 0 131 1 140 23 l9 22 7 -22 6 -23 254 0 c221 0 253 2 248 15 -4 10 0 15 11 15 11 0 15 -5 11 -15 -5 -13 24 -15 223 -15 l228 0 7 39 c6 40 0 71 -17 82 -5 3 1 9 12 12 19 5 21 1 21 -34 0 -32 3 -37 18 -32 9 4 19 9 22 12 3 3 14 11 25 17 14 8 21 23 23 50 5 78 13 124 24 124 6 0 8 -11 5 -26 -4 -24 -3 -25 34 -20 36 5 39 4 39 -19 0 -14 -3 -25 -7 -26 -5 0 -20 -2 -35 -4 -19 -2 -28 2 -31 13 -3 9 -5 2 -6 -15 -1 -33 13 -45 22 -20 3 6 6 2 6 -9 1 -21 5 -22 63 -18 35 2 64 8 66 14 5 14 18 13 20 -2 0 -7 2 -22 4 -33 2 -15 -3 -20 -22 -21 -14 0 -31 4 -37 9 -10 7 -13 4 -13 -12 0 -13 -9 -26 -22 -32 -13 -6 -39 -19 -58 -30 l-35 -19 127 0 c110 0 129 2 138 17 11 17 11 17 6 1 -5 -16 3 -18 75 -18 79 0 81 1 75 23 -3 12 -6 28 -6 35 0 6 -5 12 -10 12 -6 0 -8 -11 -4 -25 5 -20 2 -25 -13 -25 -28 0 -74 45 -67 64 3 9 1 16 -5 16 -21 0 -11 25 14 37 17 7 27 8 31 1 4 -6 11 -4 16 6 13 24 6 28 -25 17 -23 -9 -30 -5 -66 36 -40 43 -52 73 -31 73 6 0 10 -4 10 -9 0 -5 13 -11 30 -13 22 -3 31 0 36 14 7 22 41 32 91 26 54 -6 79 19 76 76 -3 45 10 67 28 49 6 -6 6 -20 0 -36 -12 -30 -3 -97 9 -76 5 6 15 9 24 6 9 -4 16 -2 16 4 0 5 10 7 23 4 15 -4 32 1 49 14 28 23 48 27 48 11 0 -17 18 -11 24 8 3 10 15 18 27 19 12 1 27 10 34 20 13 17 14 17 21 0 3 -10 4 -33 1 -52 -5 -31 -3 -35 26 -44 17 -6 33 -7 36 -3 8 11 40 7 54 -7 8 -8 6 -27 -7 -65 -11 -32 -16 -65 -12 -80 4 -15 2 -35 -3 -45 -17 -30 1 -74 30 -75 22 -1 25 3 25 33 0 19 5 36 12 39 7 2 12 -3 12 -12 0 -9 5 -16 10 -16 6 0 10 10 10 21 0 17 5 20 21 16 19 -5 20 -2 14 34 -7 38 -1 46 30 39 6 -1 20 -2 33 -2 27 -1 28 -10 1 -34 l-21 -19 22 -17 c13 -10 20 -24 16 -33 -3 -8 -1 -15 4 -15 6 0 10 -5 10 -11 0 -20 26 -38 41 -28 10 6 10 9 2 9 -7 0 -13 7 -13 15 0 8 5 15 10 15 6 0 10 12 10 28 1 24 2 25 13 10 10 -13 23 -15 56 -11 l43 6 -3 -34 c-2 -19 -8 -38 -14 -42 -5 -5 6 -5 25 -1 19 5 49 8 67 7 26 0 32 3 30 19 -2 23 33 51 40 31 2 -6 15 -23 29 -38 24 -26 26 -27 39 -9 13 18 14 18 15 2 0 -20 11 -23 27 -7 8 8 13 8 17 0 4 -7 42 -11 94 -11 77 0 89 2 100 21 l13 20 19 -23 c11 -13 19 -17 20 -10 0 14 36 16 45 2 3 -5 23 -10 43 -10 49 1 77 43 80 120 2 40 0 51 -8 40 -8 -12 -10 -11 -10 8 0 12 5 22 10 22 15 0 13 97 -2 103 -10 3 -10 9 -2 23 14 24 19 184 5 184 -5 0 -13 -4 -16 -10 -10 -16 -23 -12 -30 10 -10 33 4 60 31 60 22 0 24 3 24 54 0 52 -10 66 -42 62 -4 -1 -15 9 -23 22 -20 28 -35 28 -35 0 0 -62 -8 -79 -41 -102 -47 -32 -98 -27 -155 14 -44 31 -64 32 -64 4 0 -11 -9 -15 -32 -12 -19 2 -33 -2 -35 -9 -3 -8 5 -13 21 -13 34 0 39 -13 15 -38 -18 -21 -40 -27 -81 -23 -15 2 -16 -3 -9 -38 1 -2 7 1 14 8 10 8 17 7 25 -1 8 -8 15 -8 25 0 15 13 107 14 107 1 0 -5 11 -9 24 -9 26 0 43 -35 21 -44 -17 -6 -12 -41 6 -42 8 -1 18 -2 23 -3 6 0 -2 -13 -16 -28 -14 -16 -28 -37 -31 -48 -5 -19 -5 -19 -6 1 -1 17 -6 20 -31 16 -18 -3 -30 0 -30 7 0 6 6 11 14 11 7 0 16 9 19 21 3 12 10 18 16 14 6 -3 11 0 11 8 0 12 -46 42 -61 39 -57 -11 -104 -10 -130 4 -17 8 -28 11 -25 5 11 -17 -22 -69 -52 -85 -50 -26 -112 3 -83 38 9 10 7 19 -7 36 -39 49 -74 31 -94 -47 -7 -26 -17 -51 -23 -55 -6 -5 -5 -12 3 -20 9 -9 12 -9 12 0 0 10 26 11 50 2 3 -2 9 -2 13 -1 4 1 10 -6 13 -14 4 -8 12 -15 20 -15 18 0 18 -3 -6 -45 -11 -20 -20 -43 -20 -53 0 -9 -12 -28 -25 -41 -21 -19 -28 -21 -40 -11 -19 16 -19 25 0 43 21 21 32 71 14 65 -9 -3 -20 10 -31 34 -16 35 -38 52 -38 28 0 -6 -3 -9 -7 -8 -9 3 -12 -11 -8 -27 13 -45 12 -55 -5 -55 -21 0 -28 15 -25 50 2 28 -10 40 -40 40 -25 0 -105 72 -105 94 0 21 43 21 60 1 17 -21 30 -19 30 5 0 13 7 20 20 20 17 0 26 11 18 24 -2 2 5 13 15 24 16 17 16 20 2 25 -8 4 -15 13 -15 22 0 9 -9 15 -22 16 -21 1 -20 2 7 14 17 8 40 14 53 15 16 0 23 5 21 18 -1 9 -1 33 0 52 2 48 19 19 22 -38 2 -32 7 -42 20 -42 10 0 19 8 21 17 4 22 78 29 78 7 0 -8 8 -14 18 -13 10 0 12 3 5 6 -8 2 -13 22 -13 44 0 33 4 41 26 49 14 6 36 10 50 10 27 0 28 3 13 32 -10 19 -9 20 12 15 18 -5 29 -1 41 16 15 19 18 19 18 5 0 -10 7 -19 15 -19 32 -3 36 -4 45 -19 5 -8 17 -15 27 -15 10 0 17 -5 16 -11 -1 -6 11 -11 28 -12 16 0 38 -4 49 -7 15 -5 20 -2 20 13 0 15 5 19 20 15 17 -5 20 0 20 26 0 21 6 34 18 39 21 9 22 33 2 50 -13 11 -12 12 6 7 23 -6 42 19 24 30 -21 13 -9 26 18 21 23 -6 29 -2 41 25 8 17 22 34 32 36 11 3 19 13 19 22 1 14 2 14 14 -2 12 -15 15 -15 26 -2 7 8 10 23 7 34 -5 22 1 34 28 49 20 11 20 12 -2 18 -27 7 -29 17 -8 34 8 7 12 16 9 21 -3 5 0 9 5 9 6 0 11 22 11 50 l0 50 -62 -4 c-35 -2 -77 -7 -94 -11 -37 -8 -74 8 -74 33 -1 28 -25 52 -53 52 -14 0 -40 12 -57 26 -22 19 -34 24 -42 16 -6 -6 -17 -8 -24 -5 -7 3 -21 -2 -29 -11 -9 -9 -25 -16 -36 -16 -10 0 -19 -7 -19 -15 0 -8 -4 -15 -10 -15 -5 0 -10 7 -10 15 0 8 -7 15 -15 15 -8 0 -15 4 -15 10 0 15 -29 0 -35 -18 -8 -27 -115 -18 -115 10 0 5 5 6 10 3 16 -10 12 7 -7 28 -17 19 -17 20 5 8 12 -7 27 -9 32 -6 13 8 92 9 117 1 17 -6 20 -2 21 34 l2 40 -38 -6 c-32 -5 -43 -2 -70 21 -18 15 -29 31 -26 36 3 5 9 7 14 4 5 -3 19 -1 30 5 25 13 66 16 98 6 19 -7 22 -4 22 23 0 17 -4 31 -10 31 -5 0 -10 5 -10 10 0 6 7 10 15 10 7 0 18 7 23 16 9 16 12 16 42 0 18 -9 42 -16 53 -16 12 0 17 -5 14 -14 -3 -8 -1 -16 5 -18 8 -3 7 -11 -1 -26 -16 -30 -8 -40 28 -36 37 4 44 -6 31 -41 -6 -15 -6 -24 -1 -20 6 3 14 -2 19 -12 9 -14 13 -15 26 -4 12 10 19 11 30 2 7 -6 32 -12 55 -14 27 -1 43 -7 46 -18 7 -22 -4 -49 -20 -49 -8 0 -17 -5 -21 -12 -5 -8 0 -9 14 -6 12 4 24 2 27 -3 9 -13 35 1 35 20 1 14 1 15 10 0 5 -9 23 -16 39 -17 28 -1 29 1 28 43 -2 35 -7 46 -24 54 -13 6 -23 15 -23 20 0 6 -7 8 -15 5 -9 -4 -15 0 -15 10 0 9 -4 16 -10 16 -5 0 -10 8 -10 18 0 14 -9 17 -44 17 -35 0 -49 6 -69 27 -17 18 -27 23 -30 15 -3 -7 -3 20 1 58 3 47 10 74 21 82 19 14 34 6 27 -13 -3 -7 3 -18 14 -24 24 -13 33 -13 25 0 -6 9 8 15 29 11 5 -1 12 3 16 10 5 8 10 4 15 -10 6 -19 9 -20 22 -9 13 10 19 8 39 -15 29 -33 34 -34 34 -2 0 19 -5 25 -22 25 -12 0 -18 3 -15 7 4 3 2 12 -4 19 -14 17 8 29 26 14 13 -11 15 9 15 154 0 104 -4 166 -10 166 -9 0 -14 -14 -11 -32 0 -5 -6 -8 -15 -8 -13 0 -15 -8 -12 -35 4 -38 -15 -45 -20 -7 -2 15 -11 22 -25 22 -17 0 -19 2 -8 9 11 7 9 10 -9 16 -15 5 -25 2 -31 -6 -6 -10 -9 -8 -9 7 0 12 7 27 15 34 9 7 15 8 15 2 0 -15 30 -23 48 -12 16 9 15 9 -1 10 -12 0 -16 4 -11 13 4 6 4 9 -1 5 -4 -4 -14 -3 -22 3 -17 14 -52 -25 -53 -59 0 -13 -4 -21 -9 -18 -5 3 -5 25 0 48 12 64 11 88 -5 88 -18 0 -32 -38 -19 -51 6 -6 8 -31 5 -57 -4 -49 -12 -66 -19 -44 -3 6 -9 9 -14 6 -6 -3 -5 -12 2 -21 8 -9 9 -17 3 -21 -5 -4 -10 -15 -11 -26 -1 -13 2 -15 10 -7 14 14 40 15 32 1 -3 -5 -1 -10 4 -10 10 0 15 26 12 55 0 6 8 11 19 12 11 1 20 -4 20 -13 0 -8 -7 -14 -15 -14 -8 0 -15 -9 -15 -20 0 -11 4 -20 9 -20 5 0 17 -3 26 -7 14 -5 16 -2 11 15 -5 15 -2 24 11 30 25 13 43 5 54 -25 6 -15 13 -21 21 -17 9 6 9 9 0 12 -17 5 -15 22 3 22 11 0 15 -11 15 -36 0 -19 -4 -33 -9 -30 -11 7 -34 -20 -27 -32 3 -5 -2 -18 -12 -29 -13 -15 -24 -18 -49 -12 -18 3 -33 3 -33 -2 0 -5 5 -9 12 -9 6 0 8 -3 4 -7 -8 -8 -13 -9 -40 -12 -11 -1 -13 -8 -6 -31 5 -19 5 -28 -1 -25 -5 4 -9 15 -9 25 0 20 -36 46 -57 42 -16 -3 -16 3 -2 30 8 15 8 19 0 14 -6 -4 -13 -1 -16 6 -4 9 -19 12 -48 10 -32 -3 -47 2 -64 18 -26 24 -31 52 -8 44 8 -4 26 1 40 10 18 12 25 13 25 4 1 -7 7 -2 14 11 9 16 15 20 18 11 3 -9 11 -11 24 -6 10 5 15 10 9 12 -5 2 -10 30 -9 61 1 32 -1 65 -3 74 -4 16 -6 16 -24 -2 -11 -11 -25 -16 -35 -12 -12 4 -15 3 -10 -6 5 -8 1 -11 -16 -8 -12 2 -17 2 -10 0 21 -8 11 -30 -22 -49 -11 -6 -22 -17 -24 -25 -3 -12 -2 -11 7 1 5 8 13 12 16 8 3 -3 -1 -13 -10 -22 -9 -9 -17 -25 -18 -36 -2 -34 -17 -22 -17 14 0 44 -13 53 -30 20 -8 -13 -21 -24 -29 -23 -34 3 -52 -1 -46 -11 3 -5 1 -10 -4 -10 -6 0 -11 6 -11 13 0 8 -3 8 -9 -2 -7 -11 -10 -10 -13 5 -2 10 -4 -9 -4 -43 1 -35 5 -63 11 -63 17 1 45 26 45 41 0 8 8 4 20 -11 17 -22 19 -23 25 -7 4 9 10 17 14 17 11 0 10 -33 -2 -48 -7 -9 -5 -11 9 -6 17 5 17 4 -1 -13 -12 -10 -25 -27 -30 -38 -8 -18 -9 -18 -13 8 -4 30 -5 31 -33 17 -14 -8 -27 -6 -50 5 -17 9 -36 14 -42 12 -7 -2 -25 2 -41 11 l-29 14 24 18 c15 12 26 15 30 8 5 -7 12 -7 25 0 21 12 27 72 9 84 -6 5 -6 8 3 8 6 0 12 5 12 11 0 11 25 40 35 39 24 -1 27 1 15 15 -7 9 -10 18 -6 22 3 3 6 1 6 -5 0 -7 8 -12 17 -12 15 0 14 3 -5 23 -20 19 -24 20 -33 7 -8 -11 -10 -6 -6 20 5 39 0 60 -14 60 -5 0 -9 -16 -9 -35 0 -19 -4 -35 -10 -35 -6 0 -7 18 -4 44 4 30 2 46 -6 51 -22 13 -84 14 -92 2 -4 -7 -8 2 -8 20 0 17 -6 34 -12 37 -7 3 0 3 16 -1 28 -6 28 -5 21 28 -4 19 -11 36 -16 37 -5 2 -9 24 -9 50 0 42 -1 44 -14 27 -8 -11 -12 -23 -10 -27 3 -5 3 -8 0 -8 -3 0 -14 19 -25 43 -11 23 -21 40 -21 37z m0 -165 c0 -37 34 -135 47 -135 12 0 17 13 14 34 -1 4 9 6 23 2 14 -3 26 -1 28 5 5 16 34 0 46 -26 9 -20 8 -28 -6 -41 -12 -13 -13 -19 -4 -22 6 -2 12 -11 12 -19 0 -11 7 -14 25 -9 19 5 25 2 25 -9 0 -17 -11 -23 -50 -28 -15 -3 -26 -11 -28 -23 -7 -48 -13 -64 -22 -59 -5 3 -7 12 -4 19 6 15 -23 42 -33 32 -4 -4 -1 -11 7 -16 13 -8 12 -10 -2 -10 -14 0 -17 -7 -14 -30 5 -40 -7 -30 -24 20 -13 41 -7 67 10 40 8 -12 10 -11 10 5 0 11 7 29 15 39 14 18 14 17 12 -10 -1 -22 3 -29 18 -31 11 -1 14 0 7 3 -8 4 -11 17 -6 40 3 19 2 34 -2 34 -14 -1 -46 -27 -44 -36 1 -5 -3 -10 -9 -12 -7 -2 -8 3 -5 13 4 10 1 21 -7 26 -20 12 -79 11 -79 -2 0 -5 5 -7 10 -4 6 3 10 -2 10 -11 0 -10 7 -25 15 -34 19 -21 10 -49 -21 -60 -21 -8 -22 -12 -12 -47 5 -20 16 -42 24 -48 15 -11 6 -30 -15 -30 -8 0 -16 -7 -18 -15 -4 -13 -3 -13 6 0 9 13 11 12 11 -5 -1 -22 -19 -49 -37 -52 -12 -3 -12 41 0 53 7 7 -17 34 -31 34 -5 0 -12 14 -15 30 -6 30 -27 43 -27 17 0 -9 -9 -12 -29 -9 -16 2 -32 -1 -35 -7 -4 -6 -14 -11 -22 -11 -8 0 -12 5 -9 10 10 16 -5 33 -18 22 -7 -6 -30 -13 -53 -16 -30 -5 -44 -3 -53 8 -7 8 -25 17 -40 21 -26 5 -28 9 -24 42 4 39 23 58 63 67 14 2 33 8 43 11 16 7 17 3 11 -36 -4 -24 -14 -50 -23 -57 -14 -11 -14 -12 -1 -11 8 1 23 -1 33 -6 11 -4 23 -3 30 4 6 6 25 11 42 11 17 0 52 7 78 16 43 15 47 19 47 49 0 27 -5 34 -25 39 -14 4 -25 14 -25 22 0 11 5 14 16 10 9 -3 25 1 37 10 21 15 21 15 -14 10 -20 -3 -43 -8 -52 -12 -10 -3 -17 -2 -17 4 0 5 -18 1 -40 -10 -47 -23 -93 -18 -88 10 2 9 12 18 23 21 11 2 25 10 31 19 6 8 16 12 23 8 14 -9 45 20 36 34 -4 6 5 10 19 10 17 0 26 -5 26 -16 0 -13 3 -14 14 -4 8 6 23 11 33 10 43 -5 53 0 53 25 0 16 -6 25 -15 25 -8 0 -15 8 -15 18 0 14 2 15 10 2 8 -13 10 -12 10 3 0 10 6 17 13 16 31 -4 36 2 31 34 -4 24 -3 28 5 17 6 -8 11 -24 11 -35z m-513 -358 c14 3 25 -25 12 -32 -15 -10 0 -25 17 -18 12 4 15 1 12 -13 -2 -12 -13 -20 -31 -22 -15 -2 -27 -8 -27 -13 0 -5 -9 -9 -21 -9 -11 0 -17 -4 -14 -10 3 -6 -4 -10 -16 -10 -16 0 -20 -3 -12 -11 7 -7 7 -20 -2 -44 -14 -43 -25 -55 -25 -28 0 12 -8 23 -20 26 -23 6 -27 37 -5 37 8 0 15 5 15 11 0 5 3 8 8 6 4 -3 8 6 8 19 2 31 -20 26 -24 -4 -4 -26 -15 -28 -36 -7 -8 8 -21 15 -28 15 -19 0 -41 37 -27 46 6 3 15 2 21 -4 16 -16 48 -2 54 24 7 25 39 33 47 12 2 -7 8 -9 13 -5 4 4 3 17 -4 27 -14 22 -16 41 -4 39 22 -4 62 2 61 9 -5 27 5 20 10 -8 4 -19 12 -34 18 -33z m237 -89 c-4 -23 -3 -29 4 -19 11 15 90 19 112 6 6 -4 10 -15 7 -25 -2 -10 -1 -24 4 -31 8 -11 12 -10 24 5 8 11 18 16 22 11 5 -4 2 -10 -4 -12 -7 -3 -13 -14 -13 -25 0 -12 -8 -22 -20 -25 -12 -3 -20 -13 -19 -22 3 -36 0 -41 -25 -31 -20 7 -25 5 -35 -16 -13 -30 -14 -37 -2 -29 6 3 13 -1 18 -9 6 -11 18 -12 50 -7 51 10 75 -1 53 -23 -19 -18 -78 -23 -105 -9 -11 6 -33 13 -48 17 -16 4 -25 11 -21 17 3 6 12 8 19 5 7 -2 15 5 19 17 7 28 1 32 -27 20 -21 -10 -26 -8 -41 19 l-18 30 -24 -36 c-32 -47 -77 -50 -118 -7 l-28 29 32 17 c17 9 34 14 38 11 7 -8 33 14 27 23 -2 4 1 8 8 8 7 0 19 2 27 4 10 3 14 -2 12 -13 -3 -20 1 -21 47 -12 31 7 42 30 18 40 -9 3 -12 16 -9 37 5 30 4 31 -13 17 -17 -14 -17 -14 -1 18 9 17 21 32 26 32 5 0 7 -15 4 -32z m-1334 -273 c0 -8 6 -14 13 -12 6 1 12 -7 12 -18 0 -14 -14 -24 -60 -40 -33 -12 -71 -27 -85 -33 -14 -6 -42 -13 -62 -17 -24 -4 -38 -11 -38 -20 0 -9 -10 -15 -25 -15 -14 0 -25 5 -25 10 0 6 -5 10 -11 10 -6 0 -9 -7 -5 -15 3 -10 0 -14 -12 -11 -35 7 -52 19 -52 38 0 16 -5 18 -37 12 -21 -4 -44 -11 -50 -17 -9 -7 -13 -5 -13 6 0 10 -6 13 -20 10 -11 -3 -20 -1 -20 5 0 16 23 20 44 8 14 -8 20 -8 23 2 3 6 13 12 23 12 12 0 22 12 30 36 8 23 15 32 20 24 4 -6 13 -11 21 -10 28 4 39 0 39 -15 0 -8 -5 -15 -11 -15 -6 0 -17 -6 -24 -14 -12 -12 -12 -15 0 -20 9 -3 12 -12 8 -23 -6 -16 -5 -16 10 -5 9 8 21 11 26 7 6 -3 24 4 40 16 23 17 44 22 86 22 30 0 55 4 55 8 0 4 14 9 32 11 37 4 47 33 14 42 -21 6 -21 7 -2 21 25 19 56 19 56 0z m1697 -49 c-8 -11 -33 -26 -56 -31 -23 -6 -39 -13 -36 -16 3 -4 1 -18 -4 -32 -7 -18 -22 -30 -51 -38 -23 -7 -48 -22 -56 -33 -12 -18 -14 -18 -14 -3 0 9 5 17 12 17 6 0 1 11 -11 24 -23 24 -21 60 2 37 19 -19 29 -12 23 14 -5 18 -2 25 9 25 8 0 15 -4 15 -9 0 -8 23 9 91 71 28 25 31 25 60 11 28 -14 29 -17 16 -37z m9 -200 c23 4 25 2 19 -18 -4 -16 -3 -19 3 -10 5 8 12 13 16 13 19 -3 26 0 26 12 0 13 48 15 68 3 32 -19 -43 -75 -77 -57 -15 8 -20 7 -24 -8 -4 -19 -50 -33 -84 -27 -10 2 -44 7 -76 11 -54 7 -57 9 -57 36 0 34 13 44 39 29 11 -5 22 -6 25 -1 3 4 17 6 31 3 16 -3 25 0 25 8 0 7 7 10 15 6 8 -3 15 0 16 7 0 9 2 9 5 0 3 -6 16 -9 30 -7z m459 -81 c23 -22 23 -25 8 -34 -14 -8 -15 -12 -4 -25 8 -10 9 -16 3 -16 -21 0 -25 -41 -5 -55 16 -13 16 -14 1 -15 -9 0 -18 -6 -21 -12 -2 -7 -3 -5 -1 5 3 24 -25 50 -45 40 -32 -15 -111 -7 -126 13 -12 17 -11 19 6 22 19 3 28 32 9 32 -5 0 -10 5 -10 11 0 5 5 7 11 3 6 -3 21 -2 32 4 12 6 29 13 37 16 8 4 26 13 40 21 33 20 37 19 65 -10z m-875 1 c0 -23 19 -29 36 -11 13 12 19 13 30 4 13 -10 12 -14 -1 -29 -31 -34 -3 -43 33 -10 12 11 25 20 31 20 5 0 12 7 15 16 3 8 10 13 16 9 5 -3 19 -1 31 6 17 9 23 8 30 -2 4 -8 4 -16 0 -19 -4 -3 -13 -15 -20 -27 -15 -30 -86 -64 -135 -65 -37 0 -85 -32 -78 -52 1 -4 -17 -6 -40 -4 -24 3 -58 0 -77 -5 -22 -6 -43 -5 -63 4 -39 16 -60 -1 -34 -30 10 -11 15 -25 11 -31 -11 -17 -34 20 -35 56 0 16 -5 35 -12 42 -16 16 -4 25 31 25 20 0 28 4 24 14 -3 7 2 13 12 13 9 0 13 -4 10 -10 -3 -5 -2 -10 4 -10 5 0 16 -3 25 -6 11 -4 19 2 26 21 6 15 13 25 16 22 6 -6 44 29 44 41 0 8 38 29 58 31 6 0 12 -5 12 -13z m-1880 -62 c0 -13 -4 -24 -10 -24 -5 0 -17 -11 -26 -25 -14 -22 -15 -30 -4 -49 13 -25 6 -51 -11 -41 -5 4 -10 -2 -10 -12 -1 -17 -2 -17 -6 0 -7 25 -23 11 -23 -21 -1 -22 -2 -24 -10 -10 -9 14 9 67 30 88 3 3 6 15 7 28 2 19 -1 22 -23 18 -31 -6 -44 -17 -26 -23 14 -5 16 -33 2 -33 -5 0 -10 7 -10 15 0 12 -7 14 -27 9 -21 -6 -25 -4 -20 9 3 8 -1 21 -8 27 -18 15 -14 53 6 58 8 2 24 8 36 14 17 8 26 8 39 -3 14 -11 18 -11 22 -1 3 9 8 10 17 2 9 -8 14 -6 19 6 9 23 36 -1 36 -32z m2150 24 c0 -13 38 -9 42 3 3 9 9 9 24 1 10 -5 40 -8 67 -5 45 5 47 5 47 -21 0 -14 5 -26 10 -26 6 0 10 -5 10 -11 0 -6 -8 -8 -17 -5 -15 5 -14 3 2 -9 11 -9 21 -26 22 -38 8 -74 15 -86 38 -67 11 9 15 9 15 1 0 -7 4 -10 9 -6 5 3 12 1 16 -5 4 -6 11 -8 16 -4 16 10 39 -4 33 -20 -5 -12 -10 -13 -26 -5 -10 6 -27 9 -36 6 -30 -7 -69 20 -75 53 -6 29 -29 41 -42 20 -10 -16 -36 -12 -51 8 -13 16 -13 16 -14 0 0 -12 -8 -18 -24 -18 -14 0 -28 -4 -31 -10 -3 -5 -20 -10 -36 -10 -43 0 -109 68 -97 99 6 19 11 20 29 11 24 -13 24 -13 33 18 5 13 3 22 -3 22 -6 0 -11 7 -11 15 0 10 9 14 25 13 14 -1 25 -6 25 -10z m-1290 -22 c0 7 11 9 28 7 15 -2 37 -4 49 -4 23 1 27 -17 8 -31 -22 -16 8 -20 40 -5 28 14 33 14 28 2 -3 -10 1 -15 12 -15 9 0 14 4 10 9 -3 6 9 8 29 4 41 -6 89 4 81 17 -3 5 -1 11 4 14 5 4 12 -7 16 -24 4 -17 16 -35 27 -41 11 -6 17 -16 15 -24 -3 -7 -1 -17 5 -23 6 -6 6 -12 -1 -16 -6 -4 -11 0 -11 8 0 11 -8 13 -37 9 -33 -6 -36 -4 -31 15 4 12 2 22 -3 22 -5 0 -9 -3 -9 -7 0 -5 -24 -7 -54 -6 -46 1 -55 -1 -59 -18 -6 -23 12 -37 24 -18 14 22 31 -9 18 -33 -7 -13 -22 -18 -53 -18 l-43 0 2 37 c2 25 8 39 21 43 12 5 14 9 6 14 -7 4 -16 5 -21 2 -5 -3 -11 3 -14 13 -3 13 -17 22 -43 27 -54 9 -69 19 -71 44 -2 21 -1 22 12 4 8 -11 15 -14 15 -8z m-2210 -60 c0 -8 -5 -18 -10 -21 -10 -6 -40 -70 -40 -86 0 -5 4 -9 10 -9 5 0 7 7 4 15 -8 20 25 32 36 14 7 -11 15 -9 39 9 42 30 51 28 46 -13 -4 -30 -2 -35 15 -35 20 0 20 0 -1 -29 -27 -37 -77 -60 -89 -42 -11 19 -47 4 -54 -22 -3 -12 -6 -34 -6 -49 0 -16 -5 -28 -10 -28 -21 0 -70 -54 -70 -77 0 -12 -5 -23 -11 -23 -5 0 -7 5 -4 10 4 6 -12 10 -40 10 -30 0 -47 -5 -51 -14 -8 -20 -36 -29 -44 -15 -10 16 -96 24 -104 10 -9 -14 -66 -14 -86 0 -13 8 -12 12 8 26 12 8 22 26 22 38 0 14 12 31 35 46 19 13 35 27 35 32 0 4 11 7 24 7 17 0 28 9 38 30 7 17 20 30 28 30 12 0 13 -2 1 -9 -10 -7 -6 -16 20 -41 19 -18 33 -37 31 -42 -2 -6 5 -7 15 -3 10 4 27 8 37 11 24 4 33 13 39 39 4 15 5 13 6 -7 1 -35 17 -36 25 -3 4 14 11 25 16 25 6 0 10 4 10 9 0 12 -48 20 -54 9 -2 -5 -3 -3 -2 4 1 7 12 18 24 24 12 6 19 13 16 17 -3 3 -1 15 5 26 10 17 9 20 -4 15 -8 -4 -15 -12 -15 -19 0 -8 -4 -17 -10 -20 -14 -9 -130 37 -130 52 0 6 12 21 26 32 20 15 31 18 44 11 25 -13 45 -4 58 26 9 18 19 24 44 24 18 0 40 5 48 10 21 14 30 12 30 -4z m3845 -6 c4 -6 12 -7 18 -3 31 20 82 -7 72 -38 -4 -13 2 -19 24 -24 40 -9 47 -22 25 -46 -22 -24 -59 -24 -89 0 -18 13 -21 21 -12 30 8 8 6 11 -10 11 -12 0 -24 4 -28 10 -3 5 -12 7 -19 4 -17 -7 -61 30 -52 44 4 6 13 9 20 6 8 -3 17 -1 21 5 8 14 22 14 30 1z m-3058 -16 c2 -6 -5 -18 -16 -28 -24 -22 -18 -54 7 -34 13 11 15 9 10 -14 -4 -21 -1 -28 11 -28 9 -1 33 -9 54 -19 l38 -18 -45 -34 c-25 -19 -46 -40 -46 -47 0 -19 -31 -62 -44 -62 -6 0 -22 -10 -36 -21 -16 -14 -19 -19 -7 -15 12 4 17 0 17 -14 0 -17 5 -19 33 -13 17 3 37 12 42 19 14 17 72 6 80 -14 3 -9 1 -18 -5 -20 -6 -2 -17 -10 -25 -19 -8 -8 -21 -13 -28 -10 -6 2 -20 0 -30 -5 -14 -7 -24 -5 -38 8 -16 14 -22 15 -28 6 -4 -7 -12 -12 -17 -11 -9 2 -74 -23 -106 -41 -10 -6 -27 -10 -37 -10 -11 0 -24 -8 -30 -17 -8 -14 -12 -15 -22 -6 -10 10 -10 17 0 36 7 13 11 27 10 33 -2 5 0 24 4 43 5 24 11 32 22 27 8 -3 15 -1 15 4 0 6 11 10 24 10 17 0 26 7 30 25 5 21 11 24 30 19 17 -4 31 1 45 15 12 12 30 21 40 21 10 0 21 7 25 15 3 10 -1 15 -14 15 -19 0 -60 43 -60 63 0 6 -9 21 -21 33 -27 29 -17 44 29 45 37 1 37 1 8 9 -30 9 -78 49 -72 59 7 11 149 6 153 -5z m-406 -18 c-9 -11 -8 -22 5 -50 17 -35 18 -36 36 -16 10 11 17 25 16 31 -2 6 3 14 10 16 8 3 12 -5 12 -24 0 -35 -14 -58 -36 -58 -9 0 -22 -8 -27 -17 -9 -13 -6 -21 14 -36 22 -19 25 -19 31 -4 6 13 7 11 5 -7 -3 -38 -42 -38 -57 -1 -17 41 -29 47 -27 13 2 -22 -3 -29 -22 -31 -15 -2 -21 0 -17 7 9 14 7 14 -42 -3 -47 -17 -70 -3 -26 14 15 6 34 20 42 31 8 11 20 18 28 15 9 -3 14 2 14 14 0 22 -10 26 -27 9 -12 -12 -103 -2 -103 11 0 4 -11 11 -24 14 -27 7 -42 34 -27 49 7 7 16 6 28 -4 10 -9 36 -21 57 -27 33 -9 44 -8 68 6 15 9 28 24 28 33 0 15 13 24 44 28 5 0 3 -5 -3 -13z m1719 -48 c25 -3 73 -42 64 -51 -3 -2 2 -7 11 -10 8 -4 15 -2 15 4 0 6 9 8 20 4 11 -3 20 -2 20 3 0 6 10 5 25 -1 30 -14 33 -37 6 -37 -11 0 -22 -4 -25 -9 -3 -5 -22 -12 -41 -15 -31 -6 -35 -10 -29 -28 4 -14 2 -18 -5 -14 -6 4 -11 16 -11 28 0 17 -4 19 -26 14 -20 -5 -27 -3 -31 14 -6 22 -11 24 -32 11 -9 -6 -12 -20 -9 -40 3 -21 1 -28 -5 -22 -7 7 -14 5 -22 -6 -10 -13 -12 -11 -12 16 0 17 -7 39 -16 49 -9 10 -17 23 -17 29 0 12 29 27 48 24 6 -1 12 3 12 9 0 5 6 10 14 10 9 0 12 7 9 23 -3 14 -2 18 4 10 5 -6 20 -13 33 -15z m486 0 c13 0 24 -4 24 -8 0 -12 30 -21 43 -13 5 3 23 7 39 8 26 3 28 0 25 -29 -5 -42 -23 -73 -48 -81 -11 -4 -18 -12 -16 -18 2 -7 0 -20 -5 -29 -6 -14 -5 -16 7 -12 8 4 15 11 15 17 0 7 3 7 9 1 12 -11 113 -5 105 7 -3 5 0 9 5 9 6 0 11 -4 11 -10 0 -23 19 -8 25 20 4 17 15 35 26 40 24 13 24 8 -1 -32 -11 -18 -20 -42 -20 -54 0 -11 -6 -32 -12 -47 -11 -22 -19 -27 -52 -27 -23 0 -47 7 -58 17 -10 9 -18 12 -18 7 0 -5 -28 -10 -63 -12 -34 -1 -64 -7 -65 -13 -4 -11 -42 28 -42 43 0 5 -11 20 -26 33 l-25 23 23 8 c13 3 25 10 28 15 3 4 25 10 48 11 45 3 59 18 16 18 -21 0 -24 3 -19 21 5 13 3 19 -3 15 -5 -3 -12 1 -15 9 -4 9 -1 12 7 9 16 -6 30 11 21 25 -6 11 -54 -11 -66 -31 -7 -10 -9 -10 -9 0 0 6 -11 12 -24 12 -37 0 -56 10 -56 30 0 24 22 29 88 23 30 -3 64 -5 78 -5z m-3152 -33 c3 -8 12 -12 21 -9 18 7 20 -9 4 -37 -7 -15 -7 -24 1 -34 9 -10 7 -20 -5 -39 l-17 -26 -30 30 c-31 31 -64 41 -55 16 8 -20 -13 -38 -30 -25 -9 9 -14 7 -18 -5 -3 -9 -7 -23 -10 -31 -8 -28 -25 -15 -25 19 0 30 -3 33 -24 29 -17 -4 -25 0 -29 16 -7 27 9 39 58 43 32 2 40 7 45 28 5 21 12 25 38 23 17 -2 34 2 37 7 9 15 32 12 39 -5z m2221 -40 c22 1 44 -1 50 -4 5 -3 19 -5 29 -6 11 0 20 -6 22 -13 1 -7 0 -8 -3 -2 -11 22 -32 8 -39 -25 -5 -28 -11 -35 -29 -35 -13 0 -25 5 -27 11 -5 16 -48 1 -48 -16 0 -10 -9 -13 -32 -10 -19 2 -36 -1 -40 -8 -4 -7 -30 -12 -60 -12 -40 0 -53 -4 -54 -15 -3 -32 -7 -34 -13 -5 -4 17 -12 29 -19 28 -8 -2 -10 12 -7 44 6 57 11 63 20 24 6 -29 25 -53 25 -32 0 6 15 8 33 6 49 -6 92 8 92 31 0 12 7 19 20 19 11 0 21 8 23 19 2 10 7 14 11 9 3 -6 24 -9 46 -8z m1729 -132 c-21 -57 -50 -93 -76 -93 -12 0 -18 -7 -18 -22 0 -21 1 -21 13 -4 12 17 18 17 51 6 51 -17 56 -37 17 -72 -31 -28 -38 -29 -102 -12 -8 2 -21 20 -28 39 -12 35 -8 60 10 50 5 -4 9 -3 9 0 0 10 -23 30 -42 38 -27 10 -22 46 7 53 16 4 25 14 26 28 1 16 2 17 6 4 6 -24 13 -23 47 7 17 14 36 23 43 21 7 -3 13 -1 13 4 0 11 34 18 38 8 2 -4 -4 -29 -14 -55z m-1249 7 c-8 -13 41 -43 60 -37 8 4 19 -1 24 -11 10 -16 10 -16 11 1 0 9 5 17 10 17 6 0 10 -13 10 -29 0 -49 -56 -92 -127 -97 -12 0 -20 3 -17 7 3 5 0 9 -6 9 -21 0 -37 25 -37 60 0 40 12 61 32 54 7 -3 16 3 20 15 3 12 11 21 16 21 6 0 8 -4 4 -10z m-585 -31 c0 -5 5 -7 10 -4 17 11 11 -26 -9 -54 -13 -18 -36 -31 -70 -40 -50 -13 -69 -31 -32 -31 20 0 35 -25 25 -41 -3 -5 -23 -12 -45 -15 -38 -6 -51 -25 -28 -40 8 -5 6 -10 -5 -16 -9 -5 -16 -19 -16 -30 0 -12 -3 -19 -6 -16 -3 3 -1 29 4 57 5 28 6 51 2 51 -15 0 -17 51 -3 66 8 8 13 21 10 28 -11 28 16 46 71 47 46 2 55 5 63 26 9 23 29 32 29 12z m-2035 -29 c9 -15 -35 -72 -51 -66 -7 3 -16 1 -19 -4 -4 -6 0 -10 7 -10 8 0 22 -10 32 -22 18 -21 18 -22 0 -35 -10 -7 -21 -13 -25 -13 -4 0 -5 -9 -2 -20 6 -23 -12 -27 -21 -5 -11 29 -86 6 -86 -26 0 -23 -31 -89 -42 -89 -4 0 -8 6 -8 14 0 8 -7 17 -15 20 -12 4 -13 10 -6 25 8 15 7 20 -8 24 -21 5 -34 53 -17 65 6 4 25 14 41 21 17 7 38 17 48 23 10 5 22 6 27 3 6 -4 10 1 10 9 0 9 -7 16 -16 16 -8 0 -12 5 -9 11 4 6 13 8 21 5 10 -4 14 2 14 18 0 18 5 24 25 24 14 0 28 -5 31 -10 3 -5 13 0 21 11 15 22 38 27 48 11z m3585 0 c0 -5 7 -7 15 -4 22 9 44 -19 38 -49 -3 -15 -9 -24 -14 -21 -5 3 -4 15 3 27 10 19 9 20 -4 9 -9 -7 -21 -26 -28 -42 -7 -17 -21 -30 -33 -32 -12 -2 -21 -9 -19 -16 1 -7 -9 -12 -23 -12 -18 0 -25 5 -25 20 0 23 -10 26 -29 8 -11 -10 -10 -8 0 10 8 12 17 22 21 22 4 0 2 12 -4 26 l-12 25 -16 -21 c-23 -30 -96 -37 -110 -10 -13 24 4 35 43 31 15 -1 34 3 42 9 8 6 19 9 24 6 5 -4 13 -1 16 5 4 5 13 8 21 5 8 -3 14 -2 14 2 0 4 18 8 40 9 22 1 40 -2 40 -7z m-4074 -135 c-3 -13 -15 -45 -26 -71 -16 -36 -23 -45 -32 -36 -17 17 -23 15 -57 -14 -35 -29 -40 -49 -11 -41 11 3 22 2 25 -3 7 -12 -23 -33 -39 -27 -7 3 -22 0 -32 -7 -11 -7 -46 -23 -79 -35 -33 -12 -69 -26 -80 -31 -11 -5 -42 -11 -70 -14 -27 -3 -84 -12 -125 -20 -94 -20 -93 -20 -87 4 4 15 0 20 -14 20 -31 0 -22 19 19 38 20 9 40 21 43 26 4 5 44 10 88 12 91 4 101 7 101 34 0 17 46 38 57 26 3 -3 14 5 24 17 11 13 22 18 26 12 5 -5 20 -11 36 -12 22 -1 27 2 27 22 0 18 7 26 25 31 14 3 25 10 25 15 0 5 13 9 30 9 35 0 62 36 39 51 -9 6 -4 8 15 5 17 -3 34 1 43 10 20 19 36 7 29 -21z m2584 15 c0 -21 24 -28 35 -10 4 7 13 7 26 0 16 -9 17 -14 6 -30 -6 -11 -15 -20 -19 -20 -19 0 -58 -46 -58 -67 0 -22 7 -27 40 -24 8 0 22 -3 30 -9 23 -15 1 -41 -49 -56 -45 -13 -61 -3 -47 31 3 9 0 15 -10 15 -9 0 -14 -6 -11 -13 3 -9 -9 -13 -44 -14 -40 -1 -49 3 -55 19 -9 28 6 39 62 42 55 4 62 13 40 57 -21 43 -20 49 9 49 20 0 25 5 25 25 0 14 5 25 10 25 6 0 10 -9 10 -20z m810 8 c11 6 29 12 41 12 20 0 21 -4 16 -42 -4 -27 -14 -48 -28 -59 -14 -11 -18 -18 -10 -23 6 -4 11 -11 11 -16 0 -5 -16 2 -36 15 -20 14 -42 25 -49 25 -7 0 -18 7 -25 15 -7 8 -20 15 -30 15 -10 0 -21 7 -24 16 -3 8 -2 12 4 9 6 -3 10 1 10 9 0 10 9 16 24 16 14 0 28 4 31 10 4 6 13 5 25 -3 16 -9 24 -9 40 1z m-2331 -25 c-1 -21 -78 -120 -100 -130 -30 -15 -68 -102 -70 -161 -2 -31 -3 -32 -6 -9 -5 33 -15 34 -57 2 -40 -30 -75 -32 -106 -5 -13 11 -27 20 -31 20 -4 0 -15 7 -23 16 -18 18 -36 11 -36 -14 0 -15 -2 -15 -10 -2 -12 19 -12 41 -1 59 8 13 12 13 26 1 15 -12 19 -12 30 3 7 9 19 17 27 17 23 0 37 22 34 53 -4 33 2 35 14 5 9 -23 9 -23 10 2 0 18 3 21 9 11 5 -8 16 -11 25 -8 11 5 16 1 16 -12 0 -17 3 -18 25 -8 32 15 32 41 1 55 -19 8 -26 8 -30 -1 -3 -7 -3 -1 0 13 7 30 33 52 52 45 7 -3 20 2 28 10 9 9 25 12 43 9 20 -4 30 -1 34 10 7 19 37 22 37 4 0 -8 6 -6 17 5 18 17 43 23 42 10z m3681 -228 c0 -20 41 -36 58 -23 15 13 42 -7 40 -30 -3 -44 1 -53 21 -40 15 9 26 8 54 -5 33 -16 35 -19 26 -49 -5 -17 -14 -35 -21 -40 -21 -12 -55 -9 -71 7 -12 11 -17 12 -20 2 -4 -9 -7 -9 -14 0 -5 6 -21 17 -36 22 -16 6 -26 15 -23 20 3 4 -1 16 -8 27 -11 15 -17 16 -29 6 -20 -17 -32 1 -29 45 2 21 -2 33 -10 33 -13 0 40 38 55 39 4 1 7 -6 7 -14z"/>
<path d="M4703 269 c-24 -9 -30 -38 -12 -56 11 -11 4 -53 -9 -52 -4 1 -15 1 -25 0 -15 -1 -16 -5 -7 -21 13 -24 4 -44 -16 -36 -7 3 -16 1 -19 -4 -4 -6 -1 -10 4 -10 6 0 11 -9 11 -19 0 -11 4 -22 10 -26 16 -10 -1 -37 -21 -32 -11 3 -19 1 -19 -4 0 -5 40 -9 89 -9 97 0 100 3 101 70 l0 25 15 -28 c8 -15 12 -34 8 -42 -3 -8 -1 -15 5 -15 6 0 13 6 15 13 3 7 6 5 6 -5 1 -12 9 -18 26 -18 28 0 29 3 15 31 -7 13 -7 19 0 19 5 0 10 7 10 15 0 20 30 7 31 -14 0 -9 3 -11 5 -5 9 22 -15 64 -37 64 -27 0 -20 24 8 28 13 2 27 -6 37 -20 13 -18 16 -19 16 -5 0 10 12 22 26 27 40 15 24 35 -29 36 -34 0 -60 9 -97 32 -60 37 -59 37 -76 15 -7 -10 -16 -15 -20 -10 -4 4 -2 13 4 19 17 17 15 28 -7 28 -11 0 -21 4 -23 9 -2 5 -13 5 -25 0z"/>
</g>
</svg>
